<svg width="78" height="78" viewBox="0 0 78 78" fill="none" xmlns="http://www.w3.org/2000/svg">
<rect width="78" height="78" rx="17" fill="#5C3D11"/>
<path d="M56 36V26H46V29.75H41C40.337 29.75 39.7011 30.0134 39.2322 30.4822C38.7634 30.9511 38.5 31.587 38.5 32.25V39.75H31V36H21V46H31V42.25H38.5V49.75C38.5 50.413 38.7634 51.0489 39.2322 51.5178C39.7011 51.9866 40.337 52.25 41 52.25H46V56H56V46H46V49.75H41V32.25H46V36H56ZM28.5 43.5H23.5V38.5H28.5V43.5ZM48.5 48.5H53.5V53.5H48.5V48.5ZM48.5 28.5H53.5V33.5H48.5V28.5Z" fill="white"/>
</svg>
