<svg width="78" height="78" viewBox="0 0 78 78" fill="none" xmlns="http://www.w3.org/2000/svg">
<rect width="78" height="78" rx="17" fill="#F0B95A"/>
<path d="M53.5282 36.0361C53.667 35.701 53.7033 35.3323 53.6325 34.9766C53.5616 34.6209 53.3869 34.2941 53.1304 34.0378L43.9637 24.8711L41.3714 27.4634L47.4085 33.5006H24.3342V37.1673H51.8342C52.1968 37.1674 52.5512 37.0599 52.8527 36.8586C53.1543 36.6572 53.3893 36.371 53.5282 36.0361ZM24.4735 41.9651C24.3347 42.3002 24.2985 42.6689 24.3693 43.0246C24.4401 43.3803 24.6148 43.707 24.8714 43.9634L34.038 53.1301L36.6304 50.5378L30.5932 44.5006H53.6675V40.8339H26.1675C25.805 40.8338 25.4505 40.9413 25.149 41.1426C24.8474 41.3439 24.6124 41.6302 24.4735 41.9651Z" fill="white"/>
</svg>
