<svg width="78" height="78" viewBox="0 0 78 78" fill="none" xmlns="http://www.w3.org/2000/svg">
<rect width="78" height="78" rx="17" fill="#C48C2E"/>
<path d="M24.416 27.3333C24.416 26.1178 24.8989 24.952 25.7584 24.0924C26.618 23.2329 27.7838 22.75 28.9993 22.75H45.666C46.8816 22.75 48.0474 23.2329 48.9069 24.0924C49.7665 24.952 50.2493 26.1178 50.2493 27.3333V36.5C50.2493 36.8315 50.1177 37.1495 49.8832 37.3839C49.6488 37.6183 49.3309 37.75 48.9993 37.75C48.6678 37.75 48.3499 37.6183 48.1155 37.3839C47.881 37.1495 47.7493 36.8315 47.7493 36.5V27.3333C47.7493 26.1833 46.816 25.25 45.666 25.25H28.9993C27.8493 25.25 26.916 26.1833 26.916 27.3333V51.3033C26.9159 51.3745 26.9339 51.4444 26.9685 51.5066C27.0031 51.5688 27.053 51.621 27.1134 51.6585C27.1739 51.6959 27.243 51.7172 27.314 51.7204C27.3851 51.7236 27.4558 51.7085 27.5193 51.6767L29.186 50.8433C29.6703 50.6012 30.2125 50.4987 30.7517 50.5473C31.291 50.5959 31.8061 50.7936 32.2393 51.1183L33.7493 52.25C33.8215 52.3041 33.9092 52.3333 33.9993 52.3333C34.0895 52.3333 34.1772 52.3041 34.2493 52.25L35.686 51.1717C36.1499 50.8241 36.7068 50.6226 37.2856 50.5929C37.8645 50.5632 38.439 50.7067 38.936 51.005L40.0593 51.6783C40.2018 51.762 40.3263 51.873 40.4256 52.005C40.5249 52.137 40.597 52.2874 40.6378 52.4475C40.6787 52.6075 40.6874 52.7741 40.6634 52.9376C40.6395 53.101 40.5834 53.2581 40.4983 53.3997C40.4133 53.5414 40.3011 53.6647 40.1681 53.7627C40.0351 53.8607 39.884 53.9314 39.7235 53.9706C39.563 54.0098 39.3964 54.0169 39.2332 53.9913C39.07 53.9657 38.9135 53.9081 38.7727 53.8217L37.651 53.1483C37.58 53.1055 37.4978 53.0848 37.415 53.089C37.3321 53.0931 37.2524 53.1219 37.186 53.1717L35.7493 54.25C35.2445 54.6286 34.6304 54.8333 33.9993 54.8333C33.3683 54.8333 32.7542 54.6286 32.2493 54.25L30.7393 53.1167C30.6775 53.0707 30.6041 53.0427 30.5273 53.0359C30.4505 53.0292 30.3733 53.0439 30.3043 53.0783L28.6377 53.9117C28.193 54.1341 27.6989 54.2392 27.2021 54.217C26.7054 54.1947 26.2226 54.0459 25.7996 53.7845C25.3766 53.5232 25.0275 53.158 24.7853 52.7238C24.5432 52.2895 24.416 51.8005 24.416 51.3033V27.3333Z" fill="white"/>
<path d="M48.166 43.5827C46.9504 43.5827 45.7847 44.0656 44.9251 44.9251C44.0656 45.7847 43.5827 46.9504 43.5827 48.166C43.5827 49.3816 44.0656 50.5474 44.9251 51.4069C45.7847 52.2665 46.9504 52.7493 48.166 52.7493C49.3816 52.7493 50.5474 52.2665 51.4069 51.4069C52.2665 50.5474 52.7493 49.3816 52.7493 48.166C52.7493 46.9504 52.2665 45.7847 51.4069 44.9251C50.5474 44.0656 49.3816 43.5827 48.166 43.5827ZM41.0827 48.166C41.0827 47.2358 41.2659 46.3147 41.6219 45.4553C41.9778 44.596 42.4996 43.8151 43.1573 43.1573C43.8151 42.4996 44.596 41.9778 45.4553 41.6219C46.3147 41.2659 47.2358 41.0827 48.166 41.0827C49.0962 41.0827 50.0173 41.2659 50.8767 41.6219C51.7361 41.9778 52.5169 42.4996 53.1747 43.1573C53.8324 43.8151 54.3542 44.596 54.7102 45.4553C55.0661 46.3147 55.2493 47.2358 55.2493 48.166C55.2493 50.0446 54.5031 51.8463 53.1747 53.1747C51.8463 54.5031 50.0446 55.2493 48.166 55.2493C46.2874 55.2493 44.4857 54.5031 43.1573 53.1747C41.829 51.8463 41.0827 50.0446 41.0827 48.166ZM51.2377 45.8243C51.4718 46.0587 51.6033 46.3764 51.6033 46.7077C51.6033 47.0389 51.4718 47.3566 51.2377 47.591L47.4377 51.391L45.0943 49.0494C44.9715 48.9349 44.873 48.7969 44.8047 48.6436C44.7364 48.4902 44.6997 48.3247 44.6967 48.1569C44.6937 47.989 44.7246 47.8223 44.7875 47.6667C44.8503 47.511 44.9439 47.3697 45.0626 47.251C45.1813 47.1323 45.3227 47.0387 45.4784 46.9758C45.634 46.9129 45.8007 46.8821 45.9686 46.885C46.1364 46.888 46.3019 46.9247 46.4552 46.993C46.6086 47.0614 46.7466 47.1599 46.861 47.2827L47.4377 47.856L49.471 45.8227C49.7054 45.5886 50.0231 45.4571 50.3543 45.4571C50.6856 45.4571 51.0033 45.5903 51.2377 45.8243ZM29.416 30.666C29.416 30.3345 29.5477 30.0166 29.7821 29.7821C30.0166 29.5477 30.3345 29.416 30.666 29.416H41.4993C41.8309 29.416 42.1488 29.5477 42.3832 29.7821C42.6177 30.0166 42.7493 30.3345 42.7493 30.666C42.7493 30.9975 42.6177 31.3155 42.3832 31.5499C42.1488 31.7843 41.8309 31.916 41.4993 31.916H30.666C30.3345 31.916 30.0166 31.7843 29.7821 31.5499C29.5477 31.3155 29.416 30.9975 29.416 30.666ZM29.416 35.666C29.416 35.3345 29.5477 35.0166 29.7821 34.7821C30.0166 34.5477 30.3345 34.416 30.666 34.416H43.9993C44.3309 34.416 44.6488 34.5477 44.8832 34.7821C45.1177 35.0166 45.2493 35.3345 45.2493 35.666C45.2493 35.9975 45.1177 36.3155 44.8832 36.5499C44.6488 36.7843 44.3309 36.916 43.9993 36.916H30.666C30.3345 36.916 30.0166 36.7843 29.7821 36.5499C29.5477 36.3155 29.416 35.9975 29.416 35.666ZM29.416 40.666C29.416 40.3345 29.5477 40.0166 29.7821 39.7821C30.0166 39.5477 30.3345 39.416 30.666 39.416H36.4993C36.8309 39.416 37.1488 39.5477 37.3832 39.7821C37.6177 40.0166 37.7493 40.3345 37.7493 40.666C37.7493 40.9975 37.6177 41.3155 37.3832 41.5499C37.1488 41.7843 36.8309 41.916 36.4993 41.916H30.666C30.3345 41.916 30.0166 41.7843 29.7821 41.5499C29.5477 41.3155 29.416 40.9975 29.416 40.666ZM29.416 45.666C29.416 45.3345 29.5477 45.0166 29.7821 44.7821C30.0166 44.5477 30.3345 44.416 30.666 44.416H36.4993C36.8309 44.416 37.1488 44.5477 37.3832 44.7821C37.6177 45.0166 37.7493 45.3345 37.7493 45.666C37.7493 45.9975 37.6177 46.3155 37.3832 46.5499C37.1488 46.7843 36.8309 46.916 36.4993 46.916H30.666C30.3345 46.916 30.0166 46.7843 29.7821 46.5499C29.5477 46.3155 29.416 45.9975 29.416 45.666Z" fill="white"/>
</svg>
