<svg width="300" height="300" viewBox="0 0 300 300" fill="none" xmlns="http://www.w3.org/2000/svg">
<rect x="0.5" y="0.5" width="299" height="299" rx="149.5" fill="white"/>
<rect x="0.5" y="0.5" width="299" height="299" rx="149.5" stroke="#C7D4FF"/>
<rect x="70" y="70" width="160" height="160" rx="37.6229" fill="#DCA142"/>
<path fill-rule="evenodd" clip-rule="evenodd" d="M150.001 106.865C173.824 106.865 193.136 126.178 193.136 150.001C193.136 173.824 173.824 193.136 150.001 193.136C126.178 193.136 106.865 173.824 106.865 150.001C106.865 126.178 126.178 106.865 150.001 106.865ZM150.001 115.1C130.726 115.1 115.1 130.726 115.1 150.001C115.1 169.275 130.726 184.901 150.001 184.901C169.275 184.901 184.901 169.275 184.901 150.001C184.901 130.726 169.275 115.1 150.001 115.1Z" fill="white"/>
<path d="M147.63 136.937C144.689 137.741 142.917 140.001 142.917 142.131C142.917 144.261 144.689 146.521 147.63 147.322V136.937ZM152.343 152.651V163.033C155.284 162.231 157.056 159.972 157.056 157.842C157.056 155.711 155.284 153.452 152.343 152.651Z" fill="white"/>
<path fill-rule="evenodd" clip-rule="evenodd" d="M181.408 149.986C181.408 167.341 167.341 181.408 149.986 181.408C132.632 181.408 118.565 167.341 118.565 149.986C118.565 132.632 132.632 118.565 149.986 118.565C167.341 118.565 181.408 132.632 181.408 149.986ZM149.986 128.777C150.611 128.777 151.211 129.025 151.653 129.467C152.095 129.909 152.343 130.508 152.343 131.134V132.13C157.465 133.047 161.77 136.896 161.77 142.131C161.77 142.756 161.521 143.355 161.079 143.797C160.637 144.239 160.038 144.488 159.413 144.488C158.788 144.488 158.188 144.239 157.747 143.797C157.305 143.355 157.056 142.756 157.056 142.131C157.056 140.001 155.284 137.741 152.343 136.937V147.84C157.465 148.758 161.77 152.607 161.77 157.842C161.77 163.077 157.465 166.926 152.343 167.843V168.839C152.343 169.464 152.095 170.064 151.653 170.506C151.211 170.948 150.611 171.196 149.986 171.196C149.361 171.196 148.762 170.948 148.32 170.506C147.878 170.064 147.63 169.464 147.63 168.839V167.843C142.508 166.926 138.203 163.077 138.203 157.842C138.203 157.217 138.452 156.617 138.894 156.175C139.336 155.733 139.935 155.485 140.56 155.485C141.185 155.485 141.784 155.733 142.226 156.175C142.668 156.617 142.917 157.217 142.917 157.842C142.917 159.972 144.689 162.231 147.63 163.033V152.133C142.508 151.215 138.203 147.366 138.203 142.131C138.203 136.896 142.508 133.047 147.63 132.13V131.134C147.63 130.508 147.878 129.909 148.32 129.467C148.762 129.025 149.361 128.777 149.986 128.777Z" fill="white"/>
</svg>
