<svg width="55" height="55" viewBox="0 0 55 55" fill="none" xmlns="http://www.w3.org/2000/svg">
<rect width="55" height="55" rx="27.5" fill="#C7D4FF"/>
<g clip-path="url(#clip0_4605_4208)">
<path d="M28.0938 29.1875V28H26.9062V29.1875H19.7812V32.75H20.9688V30.375H26.9062V32.75H28.0938V30.375H34.0312V32.75H35.2188V29.1875H28.0938Z" fill="#182180"/>
<path d="M20.375 37.5C19.9026 37.5 19.4495 37.3123 19.1155 36.9783C18.7814 36.6442 18.5938 36.1912 18.5938 35.7188C18.5938 35.2463 18.7814 34.7933 19.1155 34.4592C19.4495 34.1252 19.9026 33.9375 20.375 33.9375C20.8474 33.9375 21.3005 34.1252 21.6345 34.4592C21.9686 34.7933 22.1562 35.2463 22.1562 35.7188C22.1562 36.1912 21.9686 36.6442 21.6345 36.9783C21.3005 37.3123 20.8474 37.5 20.375 37.5ZM20.375 35.125C20.2175 35.125 20.0665 35.1876 19.9552 35.2989C19.8438 35.4103 19.7812 35.5613 19.7812 35.7188C19.7812 35.8762 19.8438 36.0272 19.9552 36.1386C20.0665 36.2499 20.2175 36.3125 20.375 36.3125C20.5325 36.3125 20.6835 36.2499 20.7948 36.1386C20.9062 36.0272 20.9688 35.8762 20.9688 35.7188C20.9688 35.5613 20.9062 35.4103 20.7948 35.2989C20.6835 35.1876 20.5325 35.125 20.375 35.125ZM27.5 37.5C27.0276 37.5 26.5745 37.3123 26.2405 36.9783C25.9064 36.6442 25.7188 36.1912 25.7188 35.7188C25.7188 35.2463 25.9064 34.7933 26.2405 34.4592C26.5745 34.1252 27.0276 33.9375 27.5 33.9375C27.9724 33.9375 28.4255 34.1252 28.7595 34.4592C29.0936 34.7933 29.2812 35.2463 29.2812 35.7188C29.2812 36.1912 29.0936 36.6442 28.7595 36.9783C28.4255 37.3123 27.9724 37.5 27.5 37.5ZM27.5 35.125C27.3425 35.125 27.1915 35.1876 27.0802 35.2989C26.9688 35.4103 26.9062 35.5613 26.9062 35.7188C26.9062 35.8762 26.9688 36.0272 27.0802 36.1386C27.1915 36.2499 27.3425 36.3125 27.5 36.3125C27.6575 36.3125 27.8085 36.2499 27.9198 36.1386C28.0312 36.0272 28.0938 35.8762 28.0938 35.7188C28.0938 35.5613 28.0312 35.4103 27.9198 35.2989C27.8085 35.1876 27.6575 35.125 27.5 35.125ZM34.625 37.5C34.1526 37.5 33.6995 37.3123 33.3655 36.9783C33.0314 36.6442 32.8438 36.1912 32.8438 35.7188C32.8438 35.2463 33.0314 34.7933 33.3655 34.4592C33.6995 34.1252 34.1526 33.9375 34.625 33.9375C35.0974 33.9375 35.5505 34.1252 35.8845 34.4592C36.2186 34.7933 36.4062 35.2463 36.4062 35.7188C36.4062 36.1912 36.2186 36.6442 35.8845 36.9783C35.5505 37.3123 35.0974 37.5 34.625 37.5ZM34.625 35.125C34.4675 35.125 34.3165 35.1876 34.2052 35.2989C34.0938 35.4103 34.0312 35.5613 34.0312 35.7188C34.0312 35.8762 34.0938 36.0272 34.2052 36.1386C34.3165 36.2499 34.4675 36.3125 34.625 36.3125C34.7825 36.3125 34.9335 36.2499 35.0448 36.1386C35.1562 36.0272 35.2188 35.8762 35.2188 35.7188C35.2188 35.5613 35.1562 35.4103 35.0448 35.2989C34.9335 35.1876 34.7825 35.125 34.625 35.125ZM31.6562 23.25V22.0625H30.4094C30.3325 21.6917 30.1854 21.339 29.9759 21.0234L30.8606 20.1387L30.0175 19.2956L29.1328 20.1803C28.8173 19.9709 28.4646 19.8238 28.0938 19.7469V18.5H26.9062V19.7469C26.5354 19.8238 26.1827 19.9709 25.8672 20.1803L24.9825 19.2956L24.1394 20.1387L25.0241 21.0234C24.8146 21.339 24.6675 21.6917 24.5906 22.0625H23.3438V23.25H24.5906C24.6675 23.6208 24.8146 23.9735 25.0241 24.2891L24.1394 25.1737L24.9766 26.0109L25.8612 25.1262C26.1781 25.3385 26.5329 25.4876 26.9062 25.5656V26.8125H28.0938V25.5656C28.4646 25.4887 28.8173 25.3416 29.1328 25.1322L30.0175 26.0169L30.8547 25.1797L29.9759 24.2891C30.1854 23.9735 30.3325 23.6208 30.4094 23.25H31.6562ZM27.5 24.4375C27.2661 24.4375 27.0345 24.3914 26.8183 24.3019C26.6022 24.2124 26.4059 24.0812 26.2405 23.9158C26.0751 23.7504 25.9439 23.554 25.8543 23.3379C25.7648 23.1218 25.7188 22.8902 25.7188 22.6562C25.7188 22.4223 25.7648 22.1907 25.8543 21.9746C25.9439 21.7585 26.0751 21.5621 26.2405 21.3967C26.4059 21.2313 26.6022 21.1001 26.8183 21.0106C27.0345 20.9211 27.2661 20.875 27.5 20.875C27.9724 20.875 28.4255 21.0627 28.7595 21.3967C29.0936 21.7308 29.2812 22.1838 29.2812 22.6562C29.2812 23.1287 29.0936 23.5817 28.7595 23.9158C28.4255 24.2498 27.9724 24.4375 27.5 24.4375Z" fill="#182180"/>
<path d="M27.5002 23.2509C27.3427 23.2509 27.1917 23.1883 27.0803 23.077C26.969 22.9656 26.9064 22.8146 26.9064 22.6571C26.9036 22.6176 26.9036 22.5779 26.9064 22.5384C26.9134 22.5013 26.9254 22.4653 26.942 22.4315C26.9546 22.3935 26.9726 22.3575 26.9955 22.3246C27.0178 22.2938 27.0416 22.2641 27.0667 22.2356C27.1221 22.1801 27.189 22.1376 27.2627 22.1109C27.3708 22.0654 27.49 22.053 27.6052 22.0752C27.7203 22.0974 27.8264 22.1532 27.9099 22.2356L27.9811 22.3246C28.0033 22.3579 28.0213 22.3938 28.0345 22.4315C28.0603 22.4634 28.0804 22.4996 28.0939 22.5384C28.097 22.5779 28.097 22.6176 28.0939 22.6571C28.0939 22.8146 28.0314 22.9656 27.92 23.077C27.8087 23.1883 27.6576 23.2509 27.5002 23.2509Z" fill="black"/>
</g>
<defs>
<clipPath id="clip0_4605_4208">
<rect width="19" height="19" fill="white" transform="translate(18 18.5)"/>
</clipPath>
</defs>
</svg>
