<svg width="55" height="55" viewBox="0 0 55 55" fill="none" xmlns="http://www.w3.org/2000/svg">
<rect width="55" height="55" rx="27.5" fill="#C7D4FF"/>
<g clip-path="url(#clip0_4605_4247)">
<path fill-rule="evenodd" clip-rule="evenodd" d="M20.5166 28.0012C20.5163 26.5249 20.9839 25.0865 21.8523 23.8925C22.7206 22.6985 23.945 21.8104 25.3496 21.3558C26.7542 20.9012 28.2667 20.9034 29.67 21.3622C31.0732 21.8209 32.295 22.7126 33.1598 23.9091L32.5344 24.5345C32.4493 24.6194 32.3913 24.7276 32.3678 24.8456C32.3443 24.9635 32.3563 25.0857 32.4023 25.1968C32.4484 25.3079 32.5264 25.4028 32.6264 25.4695C32.7265 25.5362 32.844 25.5717 32.9643 25.5715H35.3929C35.5539 25.5715 35.7083 25.5075 35.8222 25.3936C35.936 25.2798 36 25.1253 36 24.9643V22.5357C36.0002 22.4155 35.9647 22.2979 35.898 22.1979C35.8313 22.0978 35.7364 22.0198 35.6253 21.9738C35.5143 21.9277 35.392 21.9157 35.2741 21.9392C35.1562 21.9628 35.0479 22.0208 34.963 22.1059L34.2441 22.826C33.1627 21.4174 31.6673 20.383 29.9679 19.8677C28.2685 19.3524 26.4504 19.3823 24.7689 19.953C23.0873 20.5238 21.6267 21.6068 20.592 23.05C19.5574 24.4932 19.0007 26.2242 19 28C19 28.2013 19.08 28.3943 19.2223 28.5367C19.3646 28.679 19.5576 28.759 19.7589 28.759C19.9602 28.759 20.1532 28.679 20.2956 28.5367C20.4379 28.3943 20.5179 28.2013 20.5179 28M27.5 22.9911C27.9189 22.9911 28.2589 23.3311 28.2589 23.75V24.4264C28.6566 24.4791 29.0319 24.6409 29.3433 24.8938C29.6547 25.1467 29.8901 25.4808 30.0233 25.8592C30.0604 25.954 30.078 26.0553 30.0752 26.1571C30.0723 26.2589 30.049 26.359 30.0067 26.4516C29.9643 26.5442 29.9037 26.6273 29.8286 26.696C29.7535 26.7647 29.6653 26.8175 29.5693 26.8514C29.4733 26.8853 29.3714 26.8996 29.2698 26.8933C29.1682 26.887 29.0689 26.8604 28.9778 26.815C28.8867 26.7695 28.8057 26.7062 28.7395 26.6288C28.6734 26.5514 28.6235 26.4615 28.5929 26.3644C28.5477 26.2359 28.4637 26.1247 28.3526 26.0462C28.2414 25.9676 28.1085 25.9256 27.9724 25.926H26.8759C26.7506 25.9248 26.6293 25.9702 26.5356 26.0534C26.4419 26.1366 26.3824 26.2517 26.3688 26.3762C26.3552 26.5008 26.3884 26.626 26.4619 26.7275C26.5354 26.8289 26.644 26.8995 26.7666 26.9254L28.4374 27.2897C28.9383 27.3984 29.3847 27.6804 29.698 28.086C30.0112 28.4915 30.1713 28.9947 30.15 29.5067C30.1287 30.0188 29.9273 30.5069 29.5813 30.885C29.2354 31.2631 28.7671 31.507 28.2589 31.5737V32.25C28.2589 32.4513 28.179 32.6443 28.0366 32.7867C27.8943 32.929 27.7013 33.009 27.5 33.009C27.2987 33.009 27.1057 32.929 26.9634 32.7867C26.821 32.6443 26.7411 32.4513 26.7411 32.25V31.5737C26.3434 31.5209 25.9681 31.3591 25.6567 31.1062C25.3453 30.8533 25.1099 30.5192 24.9767 30.1408C24.9396 30.046 24.922 29.9447 24.9248 29.8429C24.9277 29.7412 24.951 29.641 24.9933 29.5484C25.0357 29.4559 25.0963 29.3728 25.1714 29.3041C25.2465 29.2354 25.3347 29.1825 25.4307 29.1486C25.5267 29.1147 25.6286 29.1005 25.7302 29.1067C25.8318 29.113 25.9311 29.1397 26.0222 29.1851C26.1133 29.2305 26.1943 29.2939 26.2605 29.3713C26.3266 29.4487 26.3765 29.5386 26.4071 29.6357C26.4523 29.7641 26.5363 29.8753 26.6474 29.9539C26.7586 30.0324 26.8915 30.0744 27.0276 30.074H27.9724C28.1342 30.0734 28.2902 30.0132 28.4105 29.9049C28.5307 29.7965 28.6068 29.6477 28.6243 29.4868C28.6417 29.3258 28.5992 29.1641 28.5049 29.0326C28.4107 28.901 28.2712 28.8088 28.1132 28.7735L26.4436 28.408C25.9674 28.3041 25.5447 28.0317 25.2534 27.6409C24.962 27.2502 24.8215 26.7674 24.8577 26.2813C24.8939 25.7953 25.1043 25.3386 25.4504 24.9954C25.7964 24.6521 26.2547 24.4453 26.7411 24.413V23.75C26.7411 23.3311 27.0811 22.9911 27.5 22.9911ZM19.3752 34.0253C19.2642 33.9794 19.1693 33.9016 19.1025 33.8018C19.0357 33.7019 19 33.5845 19 33.4643V31.0357C19 30.8747 19.064 30.7203 19.1778 30.6064C19.2917 30.4926 19.4461 30.4286 19.6071 30.4286H22.0357C22.156 30.4284 22.2735 30.4639 22.3736 30.5306C22.4736 30.5973 22.5516 30.6922 22.5977 30.8032C22.6437 30.9143 22.6557 31.0366 22.6322 31.1545C22.6087 31.2724 22.5507 31.3807 22.4656 31.4656L21.8402 32.0897C22.705 33.2863 23.9268 34.1779 25.33 34.6367C26.7333 35.0954 28.2458 35.0976 29.6504 34.643C31.055 34.1884 32.2794 33.3003 33.1477 32.1064C34.0161 30.9124 34.4837 29.4739 34.4834 27.9976C34.4834 27.8979 34.5031 27.7993 34.5414 27.7072C34.5796 27.6152 34.6355 27.5315 34.7061 27.4611C34.7766 27.3907 34.8603 27.3349 34.9524 27.2968C35.0445 27.2587 35.1432 27.2392 35.2429 27.2393C35.3426 27.2394 35.4412 27.2591 35.5333 27.2973C35.6253 27.3355 35.7089 27.3915 35.7794 27.462C35.8498 27.5325 35.9056 27.6162 35.9437 27.7083C35.9817 27.8004 36.0013 27.8991 36.0012 27.9988C36.0011 29.775 35.4447 31.5066 34.4101 32.9503C33.3755 34.3941 31.9146 35.4775 30.2327 36.0485C28.5508 36.6194 26.7323 36.6493 25.0325 36.1337C23.3328 35.6182 21.8372 34.5832 20.7559 33.1741L20.037 33.8942C19.952 33.979 19.8438 34.0368 19.726 34.0601C19.6082 34.0835 19.4861 34.0714 19.3752 34.0253Z" fill="#182180"/>
</g>
<defs>
<clipPath id="clip0_4605_4247">
<rect width="17" height="17" fill="white" transform="translate(19 19.5)"/>
</clipPath>
</defs>
</svg>
