<svg width="55" height="55" viewBox="0 0 55 55" fill="none" xmlns="http://www.w3.org/2000/svg">
<rect width="55" height="55" rx="27.5" fill="#C7D4FF"/>
<path d="M17.5 33V23C17.5 22.4696 17.7107 21.9609 18.0858 21.5858C18.4609 21.2107 18.9696 21 19.5 21H35.5C36.0304 21 36.5391 21.2107 36.9142 21.5858C37.2893 21.9609 37.5 22.4696 37.5 23V33C37.5 33.5304 37.2893 34.0391 36.9142 34.4142C36.5391 34.7893 36.0304 35 35.5 35H19.5C18.9696 35 18.4609 34.7893 18.0858 34.4142C17.7107 34.0391 17.5 33.5304 17.5 33Z" stroke="#182180" stroke-width="1.5" stroke-linecap="round" stroke-linejoin="round"/>
<path d="M34 28.01L34.01 27.999M21 28.01L21.01 27.999M27.5 31C26.7044 31 25.9413 30.6839 25.3787 30.1213C24.8161 29.5587 24.5 28.7956 24.5 28C24.5 27.2044 24.8161 26.4413 25.3787 25.8787C25.9413 25.3161 26.7044 25 27.5 25C28.2956 25 29.0587 25.3161 29.6213 25.8787C30.1839 26.4413 30.5 27.2044 30.5 28C30.5 28.7956 30.1839 29.5587 29.6213 30.1213C29.0587 30.6839 28.2956 31 27.5 31Z" stroke="#182180" stroke-width="1.5" stroke-linecap="round" stroke-linejoin="round"/>
</svg>
