<svg width="55" height="55" viewBox="0 0 55 55" fill="none" xmlns="http://www.w3.org/2000/svg">
<rect width="55" height="55" rx="27.5" fill="#C7D4FF"/>
<path d="M34.5 19C35.0304 19 35.5391 19.2107 35.9142 19.5858C36.2893 19.9609 36.5 20.4696 36.5 21V35C36.5 35.5304 36.2893 36.0391 35.9142 36.4142C35.5391 36.7893 35.0304 37 34.5 37H20.5C19.9696 37 19.4609 36.7893 19.0858 36.4142C18.7107 36.0391 18.5 35.5304 18.5 35V21C18.5 20.4696 18.7107 19.9609 19.0858 19.5858C19.4609 19.2107 19.9696 19 20.5 19H34.5ZM34.5 21H20.5V35H34.5V21ZM27.537 23.729C27.808 22.861 28.977 22.779 29.387 23.545L29.439 23.655L31.177 28H32.5C32.7549 28.0003 33 28.0979 33.1854 28.2728C33.3707 28.4478 33.4822 28.687 33.4972 28.9414C33.5121 29.1958 33.4293 29.4464 33.2657 29.6418C33.1021 29.8373 32.8701 29.9629 32.617 29.993L32.5 30H30.507C30.3259 30.0001 30.1481 29.9515 29.9922 29.8593C29.8364 29.7672 29.7081 29.6348 29.621 29.476L29.569 29.366L28.616 26.982L26.962 32.275C26.703 33.103 25.607 33.228 25.155 32.53L25.095 32.425L23.881 30H22.5C22.2451 29.9997 22 29.9021 21.8146 29.7272C21.6293 29.5522 21.5178 29.313 21.5028 29.0586C21.4879 28.8042 21.5707 28.5536 21.7343 28.3582C21.8979 28.1627 22.1299 28.0371 22.383 28.007L22.5 28H24.494C24.834 28 25.148 28.17 25.334 28.449L25.397 28.559L25.785 29.335L27.537 23.729Z" fill="#182180"/>
</svg>
