<svg width="300" height="300" viewBox="0 0 300 300" fill="none" xmlns="http://www.w3.org/2000/svg">
<rect x="0.5" y="0.5" width="299" height="299" rx="149.5" fill="white"/>
<rect x="0.5" y="0.5" width="299" height="299" rx="149.5" stroke="#C7D4FF"/>
<rect x="70" y="70" width="160" height="160" rx="37.6229" fill="#744577"/>
<path d="M126.472 153.922H110.787C108.434 153.922 106.865 155.491 106.865 157.843V189.215C106.865 191.567 108.434 193.136 110.787 193.136H126.472C128.825 193.136 130.394 191.567 130.394 189.215V157.843C130.394 155.491 128.825 153.922 126.472 153.922ZM189.215 138.236H173.529C171.176 138.236 169.608 139.805 169.608 142.158V189.215C169.608 191.567 171.176 193.136 173.529 193.136H189.215C191.567 193.136 193.136 191.567 193.136 189.215V142.158C193.136 139.805 191.567 138.236 189.215 138.236ZM157.843 106.865H142.158C139.805 106.865 138.236 108.434 138.236 110.787V189.215C138.236 191.567 139.805 193.136 142.158 193.136H157.843C160.196 193.136 161.765 191.567 161.765 189.215V110.787C161.765 108.434 160.196 106.865 157.843 106.865Z" fill="white"/>
</svg>
