<svg width="78" height="78" viewBox="0 0 78 78" fill="none" xmlns="http://www.w3.org/2000/svg">
<rect width="78" height="78" rx="17" fill="#B07CB6"/>
<path d="M49.8335 43.8411C49.1377 43.8408 48.4491 43.9792 47.8093 44.248C47.1694 44.5167 46.5916 44.9102 46.1107 45.4046L34.1642 38.7957C34.3956 37.9413 34.3956 37.0422 34.1642 36.1877L46.1107 29.5789C46.9807 30.4657 48.1496 31.0102 49.3985 31.1104C50.6475 31.2106 51.8907 30.8597 52.8954 30.1233C53.9 29.3869 54.5971 28.3156 54.8561 27.1102C55.1151 25.9047 54.9182 24.6477 54.3023 23.5747C53.6864 22.5017 52.6937 21.6864 51.5103 21.2814C50.3268 20.8764 49.0338 20.9095 47.8734 21.3746C46.713 21.8397 45.7649 22.7048 45.2067 23.8079C44.6485 24.911 44.5185 26.1764 44.841 27.3669L32.8945 33.9758C32.1809 33.2442 31.261 32.7393 30.2531 32.526C29.2453 32.3127 28.1956 32.4008 27.239 32.7789C26.2825 33.157 25.4629 33.8079 24.8857 34.6477C24.3085 35.4876 24 36.4781 24 37.4917C24 38.5054 24.3085 39.4959 24.8857 40.3357C25.4629 41.1756 26.2825 41.8265 27.239 42.2046C28.1956 42.5827 29.2453 42.6708 30.2531 42.4575C31.261 42.2442 32.1809 41.7393 32.8945 41.0077L44.841 47.6165C44.564 48.6419 44.6205 49.7267 45.0025 50.7189C45.3845 51.711 46.0728 52.5607 46.9709 53.1486C47.869 53.7365 48.9318 54.0332 50.0101 53.997C51.0885 53.9609 52.1282 53.5936 52.9835 52.9469C53.8387 52.3001 54.4665 51.4063 54.7788 50.3908C55.0912 49.3754 55.0723 48.2892 54.7248 47.2849C54.3774 46.2805 53.7189 45.4083 52.8416 44.7907C51.9644 44.1731 50.9125 43.841 49.8335 43.8411Z" fill="white"/>
</svg>
