<svg width="78" height="78" viewBox="0 0 78 78" fill="none" xmlns="http://www.w3.org/2000/svg">
<rect width="78" height="78" rx="17" fill="#412443"/>
<g clip-path="url(#clip0_4605_4992)">
<path fill-rule="evenodd" clip-rule="evenodd" d="M25.1561 29.326V46.3671H52.8478V29.326H25.1561ZM24.0911 49.5623H32.6116V52.7574H29.9489C29.5252 52.7574 29.1189 52.9258 28.8192 53.2254C28.5196 53.525 28.3513 53.9313 28.3513 54.355C28.3513 54.7787 28.5196 55.1851 28.8192 55.4847C29.1189 55.7843 29.5252 55.9526 29.9489 55.9526H48.055C48.4787 55.9526 48.8851 55.7843 49.1847 55.4847C49.4843 55.1851 49.6526 54.7787 49.6526 54.355C49.6526 53.9313 49.4843 53.525 49.1847 53.2254C48.8851 52.9258 48.4787 52.7574 48.055 52.7574H45.3923V49.5623H53.9128C54.4778 49.5623 55.0196 49.3378 55.4191 48.9384C55.8185 48.5389 56.043 47.9971 56.043 47.4321V28.261C56.043 27.696 55.8185 27.1542 55.4191 26.7548C55.0196 26.3553 54.4778 26.1309 53.9128 26.1309H24.0911C23.5261 26.1309 22.9843 26.3553 22.5848 26.7548C22.1854 27.1542 21.9609 27.696 21.9609 28.261V47.4321C21.9609 47.9971 22.1854 48.5389 22.5848 48.9384C22.9843 49.3378 23.5261 49.5623 24.0911 49.5623ZM35.8068 52.7574V49.5623H42.1971V52.7574H35.8068ZM46.4574 36.249C46.4574 35.8253 46.2891 35.4189 45.9895 35.1193C45.6899 34.8197 45.2835 34.6514 44.8598 34.6514C44.4361 34.6514 44.0297 34.8197 43.7301 35.1193C43.4305 35.4189 43.2622 35.8253 43.2622 36.249V41.5743C43.2622 41.998 43.4305 42.4043 43.7301 42.7039C44.0297 43.0036 44.4361 43.1719 44.8598 43.1719C45.2835 43.1719 45.6899 43.0036 45.9895 42.7039C46.2891 42.4043 46.4574 41.998 46.4574 41.5743V36.249ZM38.4694 32.5212C38.8931 32.5212 39.2995 32.6896 39.5991 32.9892C39.8987 33.2888 40.067 33.6951 40.067 34.1188V41.5743C40.067 41.998 39.8987 42.4043 39.5991 42.7039C39.2995 43.0036 38.8931 43.1719 38.4694 43.1719C38.0457 43.1719 37.6394 43.0036 37.3398 42.7039C37.0401 42.4043 36.8718 41.998 36.8718 41.5743V34.1188C36.8718 33.6951 37.0401 33.2888 37.3398 32.9892C37.6394 32.6896 38.0457 32.5212 38.4694 32.5212ZM33.6766 38.3791C33.6766 37.9554 33.5083 37.549 33.2087 37.2494C32.9091 36.9498 32.5027 36.7815 32.079 36.7815C31.6553 36.7815 31.249 36.9498 30.9494 37.2494C30.6498 37.549 30.4814 37.9554 30.4814 38.3791V41.5743C30.4814 41.998 30.6498 42.4043 30.9494 42.7039C31.249 43.0036 31.6553 43.1719 32.079 43.1719C32.5027 43.1719 32.9091 43.0036 33.2087 42.7039C33.5083 42.4043 33.6766 41.998 33.6766 41.5743V38.3791Z" fill="white"/>
</g>
<defs>
<clipPath id="clip0_4605_4992">
<rect width="34.082" height="34.082" fill="white" transform="translate(21.9609 24)"/>
</clipPath>
</defs>
</svg>
