<svg width="55" height="55" viewBox="0 0 55 55" fill="none" xmlns="http://www.w3.org/2000/svg">
<rect width="55" height="55" rx="27.5" fill="#C7D4FF"/>
<path d="M27.4993 26.5C26.4827 26.5 25.5077 26.1049 24.7888 25.4017C24.0699 24.6984 23.666 23.7446 23.666 22.75C23.666 21.7554 24.0699 20.8016 24.7888 20.0983C25.5077 19.3951 26.4827 19 27.4993 19C28.516 19 29.491 19.3951 30.2099 20.0983C30.9288 20.8016 31.3327 21.7554 31.3327 22.75C31.3327 23.7446 30.9288 24.6984 30.2099 25.4017C29.491 26.1049 28.516 26.5 27.4993 26.5ZM27.4993 20.5C26.2267 20.5 25.1993 21.505 25.1993 22.75C25.1993 23.995 26.2267 25 27.4993 25C28.772 25 29.7993 23.995 29.7993 22.75C29.7993 21.505 28.772 20.5 27.4993 20.5Z" fill="#182180"/>
<path d="M36.7 32.5C36.2707 32.5 35.9333 32.17 35.9333 31.75C35.9333 31.33 36.2707 31 36.7 31C37.1293 31 37.4667 30.67 37.4667 30.25C37.4667 29.2554 37.0628 28.3016 36.3439 27.5983C35.625 26.8951 34.65 26.5 33.6333 26.5H32.1C31.6707 26.5 31.3333 26.17 31.3333 25.75C31.3333 25.33 31.6707 25 32.1 25C33.3727 25 34.4 23.995 34.4 22.75C34.4 21.505 33.3727 20.5 32.1 20.5C31.6707 20.5 31.3333 20.17 31.3333 19.75C31.3333 19.33 31.6707 19 32.1 19C33.1167 19 34.0917 19.3951 34.8106 20.0983C35.5295 20.8016 35.9333 21.7554 35.9333 22.75C35.9333 23.68 35.596 24.52 35.0133 25.18C37.298 25.78 39 27.82 39 30.25C39 31.495 37.9727 32.5 36.7 32.5ZM18.3 32.5C17.0273 32.5 16 31.495 16 30.25C16 27.82 17.6867 25.78 19.9867 25.18C19.4193 24.52 19.0667 23.68 19.0667 22.75C19.0667 21.7554 19.4705 20.8016 20.1894 20.0983C20.9083 19.3951 21.8833 19 22.9 19C23.3293 19 23.6667 19.33 23.6667 19.75C23.6667 20.17 23.3293 20.5 22.9 20.5C21.6273 20.5 20.6 21.505 20.6 22.75C20.6 23.995 21.6273 25 22.9 25C23.3293 25 23.6667 25.33 23.6667 25.75C23.6667 26.17 23.3293 26.5 22.9 26.5H21.3667C20.35 26.5 19.375 26.8951 18.6561 27.5983C17.9372 28.3016 17.5333 29.2554 17.5333 30.25C17.5333 30.67 17.8707 31 18.3 31C18.7293 31 19.0667 31.33 19.0667 31.75C19.0667 32.17 18.7293 32.5 18.3 32.5ZM32.1 37H22.9C21.6273 37 20.6 35.995 20.6 34.75V33.25C20.6 30.355 23.0073 28 25.9667 28H29.0333C31.9927 28 34.4 30.355 34.4 33.25V34.75C34.4 35.995 33.3727 37 32.1 37ZM25.9667 29.5C24.95 29.5 23.975 29.8951 23.2561 30.5983C22.5372 31.3016 22.1333 32.2554 22.1333 33.25V34.75C22.1333 35.17 22.4707 35.5 22.9 35.5H32.1C32.5293 35.5 32.8667 35.17 32.8667 34.75V33.25C32.8667 32.2554 32.4628 31.3016 31.7439 30.5983C31.025 29.8951 30.05 29.5 29.0333 29.5H25.9667Z" fill="#182180"/>
</svg>
