<svg width="55" height="55" viewBox="0 0 55 55" fill="none" xmlns="http://www.w3.org/2000/svg">
<rect width="55" height="55" rx="27.5" fill="#C7D4FF"/>
<path fill-rule="evenodd" clip-rule="evenodd" d="M34.2098 33.5643C35.0067 32.7673 35.4544 31.6864 35.4544 30.5593C35.4544 29.4323 35.0067 28.3514 34.2098 27.5543L27.6698 21.0143C27.4821 20.8268 27.3767 20.5725 27.3766 20.3072C27.3765 20.0419 27.4818 19.7875 27.6693 19.5998C27.8568 19.4122 28.1111 19.3067 28.3764 19.3066C28.6417 19.3065 28.8961 19.4118 29.0838 19.5993L35.6238 26.1393C36.796 27.3113 37.4547 28.901 37.4549 30.5586C37.4551 32.2163 36.7968 33.8061 35.6248 34.9783C34.4528 36.1506 32.8631 36.8093 31.2055 36.8095C29.5478 36.8096 27.958 36.1513 26.7858 34.9793L18.8318 27.0243C17.9877 26.1802 17.5136 25.0353 17.5137 23.8415C17.5138 22.6477 17.9881 21.5029 18.8323 20.6588C19.6764 19.8148 20.8214 19.3407 22.0151 19.3408C23.2089 19.3408 24.3537 19.8152 25.1978 20.6593L33.1508 28.6123C33.6543 29.131 33.9336 29.827 33.9282 30.5499C33.9229 31.2728 33.6333 31.9645 33.122 32.4756C32.6108 32.9867 31.919 33.2761 31.1961 33.2813C30.4732 33.2865 29.7773 33.0071 29.2588 32.5033L22.0128 25.2563C21.8251 25.0688 21.7197 24.8145 21.7196 24.5492C21.7195 24.2839 21.8248 24.0295 22.0123 23.8418C22.1998 23.6542 22.4541 23.5487 22.7194 23.5486C22.9847 23.5485 23.2391 23.6538 23.4268 23.8413L30.6738 31.0883C30.8146 31.2293 31.0056 31.3086 31.2049 31.3086C31.4042 31.3087 31.5953 31.2297 31.7363 31.0888C31.8772 30.948 31.9565 30.757 31.9566 30.5577C31.9567 30.3584 31.8776 30.1673 31.7368 30.0263L23.7838 22.0733C23.5516 21.841 23.2759 21.6567 22.9725 21.531C22.6691 21.4052 22.3439 21.3404 22.0155 21.3403C21.687 21.3402 21.3618 21.4048 21.0583 21.5304C20.7548 21.656 20.4791 21.8402 20.2468 22.0723C19.7776 22.5412 19.5139 23.1773 19.5137 23.8406C19.5135 24.504 19.7769 25.1402 20.2458 25.6093L28.1998 33.5633C28.9968 34.3602 30.0777 34.8079 31.2048 34.8079C32.3318 34.8079 33.4127 34.3602 34.2098 33.5633V33.5643Z" fill="#182180"/>
</svg>
