<svg width="55" height="55" viewBox="0 0 55 55" fill="none" xmlns="http://www.w3.org/2000/svg">
<rect width="55" height="55" rx="27.5" fill="#C7D4FF"/>
<path d="M25.6309 30.5439C26.2162 30.5439 26.7775 30.7765 27.1914 31.1904C27.6053 31.6043 27.8379 32.1656 27.8379 32.751V34.2559H26.2334V32.751C26.2334 32.5912 26.1696 32.4382 26.0566 32.3252C25.9437 32.2122 25.7906 32.1484 25.6309 32.1484H21.417C21.2573 32.1484 21.1042 32.2123 20.9912 32.3252C20.8782 32.4382 20.8145 32.5912 20.8145 32.751V34.2559H19.21V32.751C19.21 32.1656 19.4425 31.6043 19.8564 31.1904C20.2704 30.7766 20.8317 30.5439 21.417 30.5439H25.6309ZM22.4102 24.4434C22.9418 24.2231 23.5274 24.1661 24.0918 24.2783C24.656 24.3906 25.1743 24.6675 25.5811 25.0742C25.988 25.4811 26.2657 26.0001 26.3779 26.5645C26.4901 27.1287 26.4321 27.7136 26.2119 28.2451C25.9917 28.7766 25.6189 29.2311 25.1406 29.5508C24.6622 29.8705 24.0989 30.041 23.5234 30.041C22.7521 30.0409 22.0123 29.7348 21.4668 29.1895C20.9212 28.6438 20.6143 27.9035 20.6143 27.1318C20.6143 26.5565 20.7849 25.994 21.1045 25.5156C21.4242 25.0372 21.8786 24.6636 22.4102 24.4434ZM23.5234 25.8271C23.1777 25.8273 22.8461 25.9646 22.6016 26.209C22.3569 26.4537 22.2188 26.7858 22.2188 27.1318C22.2188 27.3899 22.2961 27.6419 22.4395 27.8564C22.5828 28.0709 22.7861 28.2382 23.0244 28.3369C23.2628 28.4357 23.5252 28.4615 23.7783 28.4111C24.0313 28.3608 24.2638 28.237 24.4463 28.0547C24.6287 27.8723 24.7533 27.6397 24.8037 27.3867C24.854 27.1337 24.8281 26.8711 24.7295 26.6328C24.6308 26.3945 24.4635 26.1902 24.249 26.0469C24.0345 25.9035 23.7815 25.8271 23.5234 25.8271Z" fill="#182180" stroke="#182180" stroke-width="0.2"/>
<path d="M26.4336 20.709V22.3135H18.0049V36.1611H34.6621V29.8398H36.2666V36.2607C36.2666 36.6598 36.1084 37.043 35.8262 37.3252C35.544 37.6074 35.1608 37.7656 34.7617 37.7656H17.9043C17.5054 37.7655 17.1229 37.6072 16.8408 37.3252C16.5586 37.043 16.4004 36.6598 16.4004 36.2607V22.2129C16.4005 21.814 16.5587 21.4315 16.8408 21.1494C17.1229 20.8673 17.5054 20.7091 17.9043 20.709H26.4336Z" fill="#182180" stroke="#182180" stroke-width="0.2"/>
<path d="M33.457 32.6504V34.2549H30.4482V32.6504H33.457ZM33.457 29.8408V31.4453H29.043V29.8408H33.457ZM33.457 17.9004V19.3955C33.8529 19.4869 34.2298 19.6453 34.5732 19.8623L35.5645 18.873L35.6348 18.8018L36.7695 19.9365L36.6992 20.0068L35.708 20.9971C35.9254 21.3407 36.0832 21.718 36.1748 22.1143H37.6719V23.7188H36.1748C36.0833 24.1147 35.9252 24.4915 35.708 24.835L36.7695 25.8965L36.6992 25.9678L35.7061 26.9609L35.6348 27.0312L34.5732 25.9697C34.2297 26.1869 33.853 26.345 33.457 26.4365V27.9336H31.8525V26.4365C31.4563 26.345 31.079 26.1871 30.7354 25.9697L29.7451 26.9609L29.6748 27.0312L28.54 25.8965L28.6113 25.8262L29.6006 24.835C29.3836 24.4916 29.2262 24.1145 29.1348 23.7188H27.6387V22.1143H29.1348C29.2263 21.7182 29.3833 21.3406 29.6006 20.9971L28.6113 20.0068L28.54 19.9365L28.6113 19.8662L29.6045 18.873L29.6748 18.8018L29.7451 18.873L30.7354 19.8623C31.0789 19.645 31.4565 19.487 31.8525 19.3955V17.9004H33.457ZM33.4229 21.0625C33.0562 20.9107 32.6529 20.8709 32.2637 20.9482C31.8743 21.0257 31.5161 21.2164 31.2354 21.4971C30.9546 21.7778 30.764 22.136 30.6865 22.5254C30.6092 22.9146 30.6489 23.3179 30.8008 23.6846C30.9527 24.0513 31.21 24.3654 31.54 24.5859C31.87 24.8063 32.2584 24.9238 32.6553 24.9238C33.1873 24.9232 33.697 24.7112 34.0732 24.335C34.4495 23.9587 34.6615 23.449 34.6621 22.917C34.6621 22.5201 34.5446 22.1318 34.3242 21.8018C34.1037 21.4717 33.7896 21.2144 33.4229 21.0625Z" fill="#182180" stroke="#182180" stroke-width="0.2"/>
</svg>
