<svg width="55" height="55" viewBox="0 0 55 55" fill="none" xmlns="http://www.w3.org/2000/svg">
<rect width="55" height="55" rx="27.5" fill="#C7D4FF"/>
<path d="M17.5 28C17.5 24.229 17.5 22.343 18.672 21.172C19.844 20.001 21.729 20 25.5 20H29.5C33.271 20 35.157 20 36.328 21.172C37.499 22.344 37.5 24.229 37.5 28V30C37.5 33.771 37.5 35.657 36.328 36.828C35.156 37.999 33.271 38 29.5 38H25.5C21.729 38 19.843 38 18.672 36.828C17.501 35.656 17.5 33.771 17.5 30V28Z" stroke="#182180" stroke-width="1.5"/>
<path opacity="0.5" d="M22.5 20V18.5M32.5 20V18.5M18 25H37" stroke="#182180" stroke-width="1.5" stroke-linecap="round"/>
<path d="M33.5 33C33.5 33.2652 33.3946 33.5196 33.2071 33.7071C33.0196 33.8946 32.7652 34 32.5 34C32.2348 34 31.9804 33.8946 31.7929 33.7071C31.6054 33.5196 31.5 33.2652 31.5 33C31.5 32.7348 31.6054 32.4804 31.7929 32.2929C31.9804 32.1054 32.2348 32 32.5 32C32.7652 32 33.0196 32.1054 33.2071 32.2929C33.3946 32.4804 33.5 32.7348 33.5 33ZM33.5 29C33.5 29.2652 33.3946 29.5196 33.2071 29.7071C33.0196 29.8946 32.7652 30 32.5 30C32.2348 30 31.9804 29.8946 31.7929 29.7071C31.6054 29.5196 31.5 29.2652 31.5 29C31.5 28.7348 31.6054 28.4804 31.7929 28.2929C31.9804 28.1054 32.2348 28 32.5 28C32.7652 28 33.0196 28.1054 33.2071 28.2929C33.3946 28.4804 33.5 28.7348 33.5 29ZM28.5 33C28.5 33.2652 28.3946 33.5196 28.2071 33.7071C28.0196 33.8946 27.7652 34 27.5 34C27.2348 34 26.9804 33.8946 26.7929 33.7071C26.6054 33.5196 26.5 33.2652 26.5 33C26.5 32.7348 26.6054 32.4804 26.7929 32.2929C26.9804 32.1054 27.2348 32 27.5 32C27.7652 32 28.0196 32.1054 28.2071 32.2929C28.3946 32.4804 28.5 32.7348 28.5 33ZM28.5 29C28.5 29.2652 28.3946 29.5196 28.2071 29.7071C28.0196 29.8946 27.7652 30 27.5 30C27.2348 30 26.9804 29.8946 26.7929 29.7071C26.6054 29.5196 26.5 29.2652 26.5 29C26.5 28.7348 26.6054 28.4804 26.7929 28.2929C26.9804 28.1054 27.2348 28 27.5 28C27.7652 28 28.0196 28.1054 28.2071 28.2929C28.3946 28.4804 28.5 28.7348 28.5 29ZM23.5 33C23.5 33.2652 23.3946 33.5196 23.2071 33.7071C23.0196 33.8946 22.7652 34 22.5 34C22.2348 34 21.9804 33.8946 21.7929 33.7071C21.6054 33.5196 21.5 33.2652 21.5 33C21.5 32.7348 21.6054 32.4804 21.7929 32.2929C21.9804 32.1054 22.2348 32 22.5 32C22.7652 32 23.0196 32.1054 23.2071 32.2929C23.3946 32.4804 23.5 32.7348 23.5 33ZM23.5 29C23.5 29.2652 23.3946 29.5196 23.2071 29.7071C23.0196 29.8946 22.7652 30 22.5 30C22.2348 30 21.9804 29.8946 21.7929 29.7071C21.6054 29.5196 21.5 29.2652 21.5 29C21.5 28.7348 21.6054 28.4804 21.7929 28.2929C21.9804 28.1054 22.2348 28 22.5 28C22.7652 28 23.0196 28.1054 23.2071 28.2929C23.3946 28.4804 23.5 28.7348 23.5 29Z" fill="#182180"/>
</svg>
