<svg width="78" height="78" viewBox="0 0 78 78" fill="none" xmlns="http://www.w3.org/2000/svg">
<rect width="78" height="78" rx="17" fill="#008787"/>
<path d="M28.8907 51.4495C28.1494 51.4495 27.5184 51.1842 26.9978 50.6538C26.4771 50.1234 26.2168 49.4812 26.2168 48.7271V27.2011C26.2168 26.4482 26.4771 25.8059 26.9978 25.2744C27.5184 24.744 28.1494 24.4788 28.8907 24.4788H36.6674C36.5163 23.6179 36.7181 22.8409 37.273 22.1475C37.8267 21.4541 38.5537 21.1074 39.4538 21.1074C40.3748 21.1074 41.1128 21.4541 41.6677 22.1475C42.2225 22.8409 42.4139 23.6179 42.2418 24.4788H50.0185C50.7576 24.4788 51.388 24.744 51.9098 25.2744C52.4304 25.8048 52.6908 26.4476 52.6908 27.2028V37.2325C52.4006 37.1303 52.1227 37.0471 51.8568 36.983C51.5921 36.9201 51.3185 36.8572 51.0361 36.7943V27.2028C51.0361 26.9432 50.9302 26.705 50.7184 26.4881C50.5066 26.2712 50.2728 26.1633 50.0169 26.1644H28.8907C28.6359 26.1644 28.402 26.2723 28.1891 26.4881C27.9762 26.7038 27.8703 26.9421 27.8714 27.2028V48.7271C27.8714 48.9856 27.9773 49.2233 28.1891 49.4401C28.4009 49.657 28.6342 49.7649 28.889 49.7638H38.2641C38.3038 50.0784 38.3551 50.3712 38.418 50.642C38.4809 50.9117 38.5619 51.1809 38.6612 51.4495H28.8907ZM27.8714 48.0781V49.7638V26.1644V36.7943V36.6678V48.0781ZM32.008 45.1619H38.5603C38.6209 44.8731 38.7037 44.5938 38.8085 44.3241L39.1394 43.4746H32.008V45.1619ZM32.008 38.8069H42.8954C43.4392 38.4181 43.9748 38.0888 44.502 37.8191C45.0293 37.5483 45.5952 37.3359 46.1997 37.182V37.1213H32.008V38.8069ZM32.008 32.452H46.8996V30.7663H32.008V32.452ZM40.344 24.8665C40.5778 24.6271 40.6947 24.3248 40.6947 23.9596C40.6947 23.5943 40.5778 23.2926 40.344 23.0544C40.1101 22.8161 39.8134 22.6964 39.4538 22.6953C39.0942 22.6942 38.798 22.8139 38.5652 23.0544C38.3325 23.2949 38.215 23.5966 38.2128 23.9596C38.2106 24.3226 38.3281 24.6249 38.5652 24.8665C38.8024 25.1081 39.0986 25.2272 39.4538 25.2238C39.809 25.2205 40.1057 25.1013 40.344 24.8665ZM49.3815 55.0163C47.5383 55.0163 45.9746 54.3617 44.6907 53.0525C43.4056 51.7444 42.763 50.1515 42.763 48.2737C42.763 46.3958 43.4056 44.8023 44.6907 43.4931C45.9757 42.1839 47.5394 41.5299 49.3815 41.531C51.2237 41.5321 52.7878 42.1861 54.074 43.4931C55.3602 44.8001 56.0022 46.3936 56 48.2737C56 50.1504 55.358 51.7433 54.074 53.0525C52.7878 54.3617 51.2237 55.0163 49.3815 55.0163ZM48.7461 53.1351H50.0185V48.921H54.1551V47.623H50.0185V43.4088H48.7445V47.623H44.6079V48.921H48.7445L48.7461 53.1351Z" fill="white"/>
</svg>
