<svg width="55" height="55" viewBox="0 0 55 55" fill="none" xmlns="http://www.w3.org/2000/svg">
<rect width="55" height="55" rx="27.5" fill="#C7D4FF"/>
<path d="M31.5 37C30.95 37 30.4793 36.8043 30.088 36.413C29.6967 36.0217 29.5007 35.5507 29.5 35V31C29.5 30.45 29.696 29.9793 30.088 29.588C30.48 29.1967 30.9507 29.0007 31.5 29H35.5C36.05 29 36.521 29.196 36.913 29.588C37.305 29.98 37.5007 30.4507 37.5 31V35C37.5 35.55 37.3043 36.021 36.913 36.413C36.5217 36.805 36.0507 37.0007 35.5 37H31.5ZM31.5 35H35.5V31H31.5V35ZM17.5 34V32H26.5V34H17.5ZM31.5 27C30.95 27 30.4793 26.8043 30.088 26.413C29.6967 26.0217 29.5007 25.5507 29.5 25V21C29.5 20.45 29.696 19.9793 30.088 19.588C30.48 19.1967 30.9507 19.0007 31.5 19H35.5C36.05 19 36.521 19.196 36.913 19.588C37.305 19.98 37.5007 20.4507 37.5 21V25C37.5 25.55 37.3043 26.021 36.913 26.413C36.5217 26.805 36.0507 27.0007 35.5 27H31.5ZM31.5 25H35.5V21H31.5V25ZM17.5 24V22H26.5V24H17.5Z" fill="#182180"/>
</svg>
