<svg width="78" height="78" viewBox="0 0 78 78" fill="none" xmlns="http://www.w3.org/2000/svg">
<rect width="78" height="78" rx="17" fill="#005757"/>
<path d="M54 52.809C54 49.147 51.0739 43.929 46.9913 42.7743M43.487 52.809C43.487 48.164 38.7806 42.296 32.974 42.296C27.1673 42.296 22.4609 48.164 22.4609 52.809M43.487 36.1634C44.8811 36.1634 46.2181 35.6096 47.2039 34.6238C48.1897 33.638 48.7435 32.301 48.7435 30.9069C48.7435 29.5128 48.1897 28.1758 47.2039 27.19C46.2181 26.2042 44.8811 25.6504 43.487 25.6504M38.2305 30.9069C38.2305 32.301 37.6767 33.638 36.6909 34.6238C35.7051 35.6096 34.3681 36.1634 32.974 36.1634C31.5798 36.1634 30.2428 35.6096 29.257 34.6238C28.2713 33.638 27.7174 32.301 27.7174 30.9069C27.7174 29.5128 28.2713 28.1758 29.257 27.19C30.2428 26.2042 31.5798 25.6504 32.974 25.6504C34.3681 25.6504 35.7051 26.2042 36.6909 27.19C37.6767 28.1758 38.2305 29.5128 38.2305 30.9069Z" stroke="white" stroke-width="2.62826" stroke-linecap="round" stroke-linejoin="round"/>
</svg>
