<svg width="300" height="300" viewBox="0 0 300 300" fill="none" xmlns="http://www.w3.org/2000/svg">
<rect x="0.5" y="0.5" width="299" height="299" rx="149.5" fill="white"/>
<rect x="0.5" y="0.5" width="299" height="299" rx="149.5" stroke="#C7D4FF"/>
<rect x="70" y="70" width="160" height="160" rx="37.6229" fill="#009F9F"/>
<path d="M173.674 155.074C183.872 155.074 192.139 163.342 192.139 173.54C192.139 183.738 183.872 192.006 173.674 192.006C163.475 192.006 155.208 183.738 155.208 173.54C155.208 163.342 163.475 155.074 173.674 155.074ZM185.501 151.438C181.909 149.476 177.788 148.359 173.406 148.359C159.457 148.359 148.149 159.667 148.149 173.616C148.149 178.138 149.338 182.382 151.419 186.054H117.018C111.961 186.054 107.86 181.954 107.86 176.897V139.394H185.501V151.438ZM173.482 161.083C171.755 161.083 170.354 162.484 170.354 164.212V175.485L177.999 179.418C179.593 180.238 181.549 179.566 182.302 177.938C183.027 176.369 182.353 174.507 180.791 173.767L176.611 171.785V164.212C176.611 162.484 175.21 161.083 173.482 161.083ZM120.287 167.016C118.46 167.016 116.979 168.497 116.979 170.324C116.979 172.151 118.46 173.633 120.287 173.633H126.643C128.47 173.633 129.951 172.151 129.951 170.324C129.951 168.497 128.47 167.016 126.643 167.016H120.287ZM120.287 151.831C118.46 151.831 116.979 153.313 116.979 155.14C116.979 156.967 118.46 158.448 120.287 158.448H126.643C128.47 158.448 129.951 156.967 129.951 155.14C129.951 153.313 128.47 151.831 126.643 151.831H120.287ZM138.486 151.831C136.659 151.831 135.178 153.312 135.178 155.14C135.178 156.967 136.659 158.448 138.486 158.448H144.841C146.668 158.448 148.149 156.967 148.149 155.14C148.149 153.312 146.668 151.831 144.841 151.831H138.486ZM163.754 107.994C165.482 107.994 166.882 109.395 166.882 111.123V114.48H176.726C181.572 114.48 185.501 118.409 185.501 123.255V133.709H107.86V123.255C107.86 118.409 111.789 114.48 116.636 114.48H126.288V111.123C126.288 109.395 127.689 107.994 129.417 107.994C131.145 107.994 132.545 109.395 132.545 111.123V114.48H160.625V111.123C160.625 109.395 162.026 107.994 163.754 107.994Z" fill="white"/>
</svg>
