<svg width="300" height="300" viewBox="0 0 300 300" fill="none" xmlns="http://www.w3.org/2000/svg">
<rect x="0.5" y="0.5" width="299" height="299" rx="149.5" fill="white"/>
<rect x="0.5" y="0.5" width="299" height="299" rx="149.5" stroke="#C7D4FF"/>
<rect x="70" y="70" width="160" height="160" rx="37.6229" fill="#1E3DCC"/>
<path d="M140.503 182.946L128.851 171.389C126.34 168.898 124.493 165.61 124.912 162.567C125.229 160.266 127.119 158.25 129.42 157.938C132.361 157.539 135.447 159.599 138.05 162.188L170.597 194.558L188.186 176.419C193.169 170.72 193.869 164.291 192.856 158.775C191.407 150.886 185.687 144.081 178.263 141.043C169.96 137.644 163.205 140.263 160.311 142.924L173.208 155.876C175.338 157.899 179.185 161.358 175.338 166.25C171.916 170.601 166.955 168.289 165.169 166.25L146.206 147.012C140.48 141.882 126.13 134.274 114.532 144.882C107.588 151.234 106.192 158.805 106.918 165.077C107.735 172.142 112.668 177.79 117.552 182.96L129.029 195.107L140.503 182.946Z" fill="white"/>
<path d="M187.705 119.117C187.705 126.972 181.337 133.339 173.483 133.339C165.628 133.339 159.26 126.972 159.26 119.117C159.26 111.262 165.628 104.895 173.483 104.895C181.337 104.895 187.705 111.262 187.705 119.117Z" fill="white"/>
<path d="M141.809 119.117C141.809 126.972 135.441 133.339 127.586 133.339C119.731 133.339 113.364 126.972 113.364 119.117C113.364 111.262 119.731 104.895 127.586 104.895C135.441 104.895 141.809 111.262 141.809 119.117Z" fill="white"/>
</svg>
