<svg width="55" height="55" viewBox="0 0 55 55" fill="none" xmlns="http://www.w3.org/2000/svg">
<rect width="55" height="55" rx="27.5" fill="#C7D4FF"/>
<path d="M27.5 28C30.26 28 32.5 25.76 32.5 23C32.5 20.24 30.26 18 27.5 18C24.74 18 22.5 20.24 22.5 23C22.5 25.76 24.74 28 27.5 28ZM27.5 20C29.15 20 30.5 21.35 30.5 23C30.5 24.65 29.15 26 27.5 26C25.85 26 24.5 24.65 24.5 23C24.5 21.35 25.85 20 27.5 20ZM19.5 38H35.5C36.05 38 36.5 37.55 36.5 37V36C36.5 32.14 33.36 29 29.5 29H25.5C21.64 29 18.5 32.14 18.5 36V37C18.5 37.55 18.95 38 19.5 38ZM25.5 31H29.5C32.26 31 34.5 33.24 34.5 36H20.5C20.5 33.24 22.74 31 25.5 31Z" fill="#182180"/>
</svg>
