<svg width="57" height="55" viewBox="0 0 57 55" fill="none" xmlns="http://www.w3.org/2000/svg">
<rect x="1.5" width="55" height="55" rx="27.5" fill="#C7D4FF"/>
<path d="M35.3199 21.6809C34.9599 22.0409 34.9299 22.6009 35.2499 23.0009C36.6999 24.8209 37.4599 27.3109 36.7799 29.9209C35.9899 32.9709 33.5999 35.2509 30.5699 35.8609C25.4699 36.8709 20.9999 32.9309 20.9999 28.0009C20.9999 23.9209 24.0499 20.5609 27.9999 20.0709V22.0909C26.4457 22.3536 25.0574 23.2173 24.1349 24.4953C23.2124 25.7734 22.8298 27.3631 23.0699 28.9209C23.4599 31.5309 25.6299 33.6309 28.2499 33.9509C29.3935 34.0944 30.5541 33.9054 31.5932 33.4067C32.6322 32.9079 33.5056 32.1205 34.1089 31.1385C34.7122 30.1565 35.02 29.0215 34.9953 27.8692C34.9707 26.717 34.6147 25.5962 33.9699 24.6409C33.6299 24.1409 32.8999 24.1109 32.4699 24.5309L32.4599 24.5409C32.1199 24.8809 32.0899 25.4109 32.3499 25.8109C32.9499 26.7309 33.1899 27.9109 32.8399 29.1309C32.6407 29.8125 32.2631 30.4285 31.7463 30.9154C31.2295 31.4024 30.5921 31.7426 29.8999 31.9009C29.3133 32.0364 28.7038 32.0377 28.1166 31.9047C27.5295 31.7718 26.9799 31.5081 26.5089 31.1332C26.0379 30.7583 25.6576 30.2819 25.3963 29.7396C25.135 29.1972 24.9995 28.6029 24.9999 28.0009C24.9999 26.1409 26.2799 24.5909 27.9999 24.1409V26.2809C27.3999 26.6309 26.9999 27.2609 26.9999 28.0009C26.9999 29.1009 27.8999 30.0009 28.9999 30.0009C30.0999 30.0009 30.9999 29.1009 30.9999 28.0009C30.9999 27.2609 30.5999 26.6209 29.9999 26.2809V18.7109C29.9999 18.3209 29.6799 18.0009 29.2899 18.0009C23.9299 17.8009 19.3099 22.0609 19.0199 27.4009C18.6599 33.9509 24.4299 39.2209 31.0299 37.8009C34.9099 36.9709 37.9099 34.0009 38.7799 30.1309C39.4899 26.9709 38.5799 23.9709 36.8099 21.7609C36.7219 21.6509 36.6116 21.5608 36.4863 21.4964C36.361 21.432 36.2235 21.3948 36.0828 21.3873C35.9421 21.3797 35.8015 21.402 35.67 21.4526C35.5385 21.5032 35.4192 21.581 35.3199 21.6809Z" fill="#182180"/>
<path d="M8.493 36.292C7.39767 35.8193 6.44467 35.178 5.634 34.368C4.82333 33.558 4.18167 32.606 3.709 31.512C3.23633 30.418 3 29.2483 3 28.003C3 26.7577 3.23633 25.5877 3.709 24.493C4.18167 23.3977 4.823 22.4447 5.633 21.634C6.443 20.8233 7.39533 20.1817 8.49 19.709C9.58467 19.2363 10.7547 19 12 19H12.5V27.14C12.672 27.2467 12.7983 27.3707 12.879 27.512C12.9597 27.6533 13 27.8167 13 28.002C13 28.2687 12.9003 28.5017 12.701 28.701C12.5017 28.9003 12.268 29 12 29C11.732 29 11.4983 28.9003 11.299 28.701C11.0997 28.5017 11 28.2693 11 28.004C11 27.82 11.0403 27.6557 11.121 27.511C11.2017 27.3663 11.328 27.243 11.5 27.141V24.048C10.5053 24.166 9.67333 24.5983 9.004 25.345C8.33467 26.0917 8 26.9767 8 28C8 29.1 8.39167 30.0417 9.175 30.825C9.95833 31.6083 10.9 32 12 32C13.1 32 14.0417 31.6083 14.825 30.825C15.6083 30.0417 16 29.1 16 28C16 27.4 15.879 26.846 15.637 26.338C15.395 25.83 15.066 25.384 14.65 25L15.364 24.287C15.87 24.747 16.269 25.2953 16.561 25.932C16.853 26.5687 16.9993 27.258 17 28C17 29.3887 16.5143 30.5693 15.543 31.542C14.5717 32.5147 13.3923 33.0007 12.005 33C10.6177 32.9993 9.436 32.5133 8.46 31.542C7.48667 30.5693 7 29.3887 7 28C7 26.6927 7.43333 25.568 8.3 24.626C9.16667 23.684 10.2333 23.154 11.5 23.036V20.012C9.40133 20.134 7.62667 20.961 6.176 22.493C4.72533 24.025 4 25.8607 4 28C4 30.2333 4.775 32.125 6.325 33.675C7.875 35.225 9.76667 36 12 36C14.2333 36 16.125 35.225 17.675 33.675C19.225 32.125 20 30.2333 20 28C20 26.85 19.775 25.775 19.325 24.775C18.875 23.775 18.2583 22.9083 17.475 22.175L18.188 21.462C19.0613 22.2887 19.7483 23.2613 20.249 24.38C20.7497 25.4987 21 26.7033 21 27.994C21 29.2407 20.764 30.4117 20.292 31.507C19.8193 32.6023 19.178 33.5553 18.368 34.366C17.558 35.1767 16.606 35.8183 15.512 36.291C14.418 36.7637 13.2483 37 12.003 37C10.7577 37 9.58767 36.764 8.493 36.292Z" fill="black"/>
</svg>
