<svg width="78" height="78" viewBox="0 0 78 78" fill="none" xmlns="http://www.w3.org/2000/svg">
<rect width="78" height="78" rx="17" fill="#09154F"/>
<g clip-path="url(#clip0_4583_2519)">
<path d="M56.9392 40.0292V41.6125C56.9466 41.9829 56.824 42.3442 56.5925 42.6335C56.3611 42.9228 56.0355 43.1218 55.6725 43.1958L53.7092 43.5917C53.3353 45.1674 52.704 46.6706 51.8408 48.0408L52.965 49.7192C53.1561 50.0181 53.2413 50.3726 53.2069 50.7258C53.1724 51.0789 53.0203 51.4103 52.775 51.6667L50.6058 53.8358C50.3462 54.0927 50.0058 54.252 49.6422 54.2866C49.2786 54.3213 48.9143 54.2291 48.6108 54.0258L46.9167 52.8858C45.5565 53.7752 44.0585 54.4333 42.4833 54.8333L42.1667 56.7175C42.0926 57.0805 41.8937 57.4061 41.6044 57.6375C41.3151 57.869 40.9537 57.9916 40.5833 57.9842H37.4167C37.0463 57.9916 36.6849 57.869 36.3956 57.6375C36.1063 57.4061 35.9074 57.0805 35.8333 56.7175L35.5167 54.8333C33.9415 54.4333 32.4435 53.7752 31.0833 52.8858L29.405 54.01C29.1016 54.2133 28.7372 54.3054 28.3736 54.2708C28.01 54.2362 27.6696 54.0769 27.41 53.82L25.225 51.6667C24.9681 51.4071 24.8088 51.0666 24.7742 50.7031C24.7396 50.3395 24.8317 49.9751 25.035 49.6717L26.1592 47.9933C25.296 46.6231 24.6647 45.1199 24.2908 43.5442L22.3275 43.1483C21.9645 43.0743 21.6389 42.8753 21.4075 42.586C21.176 42.2967 21.0534 41.9354 21.0608 41.565V39.9817H31.4475C31.4475 41.9847 32.2432 43.9057 33.6596 45.3221C35.0759 46.7385 36.997 47.5342 39 47.5342C41.003 47.5342 42.9241 46.7385 44.3404 45.3221C45.7568 43.9057 46.5525 41.9847 46.5525 39.9817L56.9392 40.0292ZM47.1858 26.0325C47.1858 27.0067 47.5728 27.9411 48.2617 28.6299C48.9506 29.3188 49.8849 29.7058 50.8592 29.7058C51.8334 29.7058 52.7677 29.3188 53.4566 28.6299C54.1455 27.9411 54.5325 27.0067 54.5325 26.0325C54.5325 25.0583 54.1455 24.1239 53.4566 23.4351C52.7677 22.7462 51.8334 22.3592 50.8592 22.3592C49.8849 22.3592 48.9506 22.7462 48.2617 23.4351C47.5728 24.1239 47.1858 25.0583 47.1858 26.0325ZM23.4833 26.0325C23.4833 27.0067 23.8703 27.9411 24.5592 28.6299C25.2481 29.3188 26.1824 29.7058 27.1567 29.7058C28.1309 29.7058 29.0652 29.3188 29.7541 28.6299C30.443 27.9411 30.83 27.0067 30.83 26.0325C30.83 25.0583 30.443 24.1239 29.7541 23.4351C29.0652 22.7462 28.1309 22.3592 27.1567 22.3592C26.1824 22.3592 25.2481 22.7462 24.5592 23.4351C23.8703 24.1239 23.4833 25.0583 23.4833 26.0325ZM30.7667 33.9333C30.1985 33.5721 29.5867 33.2847 28.9458 33.0783C27.2483 32.6013 25.4392 32.7143 23.8142 33.3988C22.1892 34.0833 20.8445 35.2988 20 36.8467H29.0725C29.5417 35.8231 30.1091 34.8474 30.7667 33.9333ZM48.785 36.8942H58C57.1597 35.3373 55.8146 34.1128 54.1858 33.4221C52.557 32.7315 50.7416 32.6158 49.0383 33.0942C48.3857 33.3031 47.763 33.5958 47.1858 33.965C47.8074 34.8904 48.3427 35.8709 48.785 36.8942ZM47.0275 36.8942C46.3953 35.2526 45.3004 33.8298 43.8754 32.7984C42.4505 31.7669 40.7569 31.1711 39 31.0833C37.2286 31.1614 35.5184 31.7541 34.0786 32.7889C32.6388 33.8238 31.5319 35.2559 30.8933 36.91L47.0275 36.8942ZM34.2342 24.6075C34.2342 25.8295 34.7196 27.0014 35.5837 27.8655C36.4477 28.7296 37.6197 29.215 38.8417 29.215C40.0637 29.215 41.2356 28.7296 42.0997 27.8655C42.9637 27.0014 43.4492 25.8295 43.4492 24.6075C43.4492 23.3855 42.9637 22.2136 42.0997 21.3495C41.2356 20.4854 40.0637 20 38.8417 20C37.6197 20 36.4477 20.4854 35.5837 21.3495C34.7196 22.2136 34.2342 23.3855 34.2342 24.6075Z" fill="white"/>
</g>
<defs>
<clipPath id="clip0_4583_2519">
<rect width="38" height="38" fill="white" transform="translate(20 20)"/>
</clipPath>
</defs>
</svg>
