<svg width="78" height="78" viewBox="0 0 78 78" fill="none" xmlns="http://www.w3.org/2000/svg">
<rect width="78" height="78" rx="17" fill="#1833B0"/>
<g clip-path="url(#clip0_4583_2496)">
<path d="M31.9798 55.5828C29.7898 54.6372 27.8849 53.3544 26.2649 51.7344C24.6449 50.1145 23.3628 48.2095 22.4184 46.0195C21.474 43.8296 21.0012 41.4896 21 38.9997C20.9988 36.5097 21.4716 34.1698 22.4184 31.9798C23.3652 29.7898 24.6473 27.8849 26.2649 26.2649C27.8825 24.6449 29.7874 23.3628 31.9798 22.4184C34.1722 21.474 36.5121 21.0012 38.9997 21H40.7996V35.8947C41.3396 36.2247 41.7746 36.6525 42.1046 37.1781C42.4346 37.7037 42.5996 38.3109 42.5996 38.9997C42.5996 39.9897 42.2474 40.8374 41.543 41.543C40.8386 42.2486 39.9909 42.6008 38.9997 42.5996C38.0085 42.5984 37.1613 42.2462 36.4581 41.543C35.7549 40.8398 35.4021 39.9921 35.3997 38.9997C35.3997 38.3097 35.5647 37.6947 35.8947 37.1547C36.2247 36.6147 36.6597 36.1947 37.1997 35.8947V32.0248C35.6397 32.4448 34.3498 33.2926 33.3298 34.5682C32.3098 35.8437 31.7998 37.3209 31.7998 38.9997C31.7998 40.9796 32.5048 42.6746 33.9148 44.0846C35.3247 45.4946 37.0197 46.1995 38.9997 46.1995C40.9796 46.1995 42.6746 45.4946 44.0846 44.0846C45.4946 42.6746 46.1995 40.9796 46.1995 38.9997C46.1995 37.9197 45.9817 36.9225 45.5462 36.0081C45.1106 35.0937 44.5184 34.291 43.7696 33.5998L46.3345 31.0348C47.3845 32.0248 48.2245 33.2026 48.8545 34.5682C49.4845 35.9337 49.7995 37.4109 49.7995 38.9997C49.7995 41.9996 48.7495 44.5496 46.6495 46.6495C44.5496 48.7495 41.9996 49.7995 38.9997 49.7995C35.9997 49.7995 33.4498 48.7495 31.3498 46.6495C29.2499 44.5496 28.1999 41.9996 28.1999 38.9997C28.1999 36.2997 29.0549 33.9526 30.7648 31.9582C32.4748 29.9638 34.6198 28.7561 37.1997 28.3349V24.6899C33.6298 25.1399 30.637 26.7149 28.2215 29.4148C25.8059 32.1148 24.5987 35.3097 24.5999 38.9997C24.5999 43.0196 25.9949 46.4245 28.7849 49.2145C31.5748 52.0044 34.9797 53.3994 38.9997 53.3994C43.0196 53.3994 46.4245 52.0044 49.2145 49.2145C52.0044 46.4245 53.3994 43.0196 53.3994 38.9997C53.3994 36.9297 52.9944 34.9947 52.1844 33.1948C51.3744 31.3948 50.2645 29.8348 48.8545 28.5149L51.4194 25.9499C53.1294 27.5999 54.4872 29.5426 55.4928 31.7782C56.4984 34.0138 57.0005 36.4209 56.9993 38.9997C56.9993 41.4896 56.5266 43.8296 55.581 46.0195C54.6354 48.2095 53.3532 50.1145 51.7344 51.7344C50.1157 53.3544 48.2107 54.6372 46.0195 55.5828C43.8284 56.5283 41.4884 57.0005 38.9997 56.9993C36.5109 56.9981 34.171 56.5271 31.9798 55.5828Z" fill="white"/>
</g>
<defs>
<clipPath id="clip0_4583_2496">
<rect width="49.4" height="49.4" fill="white" transform="translate(14.3008 14.3008)"/>
</clipPath>
</defs>
</svg>
