<svg width="78" height="78" viewBox="0 0 78 78" fill="none" xmlns="http://www.w3.org/2000/svg">
<rect width="78" height="78" rx="17" fill="#7C99FF"/>
<path d="M42.5 25C40.6435 25 38.863 25.7375 37.5503 27.0503C36.2375 28.363 35.5 30.1435 35.5 32C35.5 33.8565 36.2375 35.637 37.5503 36.9497C38.863 38.2625 40.6435 39 42.5 39C44.3565 39 46.137 38.2625 47.4497 36.9497C48.7625 35.637 49.5 33.8565 49.5 32C49.5 30.1435 48.7625 28.363 47.4497 27.0503C46.137 25.7375 44.3565 25 42.5 25ZM42.5 28.325C42.9826 28.325 43.4605 28.4201 43.9064 28.6047C44.3522 28.7894 44.7574 29.0601 45.0986 29.4014C45.4399 29.7426 45.7106 30.1478 45.8953 30.5936C46.0799 31.0395 46.175 31.5174 46.175 32C46.175 32.4826 46.0799 32.9605 45.8953 33.4064C45.7106 33.8522 45.4399 34.2574 45.0986 34.5986C44.7574 34.9399 44.3522 35.2106 43.9064 35.3953C43.4605 35.5799 42.9826 35.675 42.5 35.675C42.0174 35.675 41.5395 35.5799 41.0936 35.3953C40.6478 35.2106 40.2426 34.9399 39.9014 34.5986C39.5601 34.2574 39.2894 33.8522 39.1047 33.4064C38.9201 32.9605 38.825 32.4826 38.825 32C38.825 31.0253 39.2122 30.0906 39.9014 29.4014C40.5906 28.7122 41.5253 28.325 42.5 28.325ZM23.25 30.25V35.5H18V39H23.25V44.25H26.75V39H32V35.5H26.75V30.25H23.25ZM42.5 40.75C37.8275 40.75 28.5 43.0775 28.5 47.75V53H56.5V47.75C56.5 43.0775 47.1725 40.75 42.5 40.75ZM42.5 44.075C47.6975 44.075 53.175 46.63 53.175 47.75V49.675H31.825V47.75C31.825 46.63 37.25 44.075 42.5 44.075Z" fill="white"/>
</svg>
