<svg width="55" height="55" viewBox="0 0 55 55" fill="none" xmlns="http://www.w3.org/2000/svg">
<rect width="55" height="55" rx="27.5" fill="#C7D4FF"/>
<path d="M27.499 19.8057C29.9348 19.8057 32.1252 20.8223 33.8604 22.0049C35.3852 23.0442 36.6288 24.2596 37.4717 25.1826L37.8086 25.5596L37.8193 25.5723C38.2558 26.0862 38.4893 26.7425 38.4893 27.4111C38.4892 28.0797 38.2557 28.7361 37.8193 29.25C37.8157 29.2542 37.8122 29.2585 37.8086 29.2627C36.9788 30.2113 35.6032 31.6285 33.8604 32.8164C32.1252 33.9991 29.9349 35.0156 27.499 35.0156C25.0632 35.0155 22.8728 33.999 21.1377 32.8164C19.3951 31.6286 18.0201 30.2112 17.1904 29.2627C17.1867 29.2584 17.1824 29.2544 17.1787 29.25C16.7427 28.7365 16.5088 28.0817 16.5088 27.4111C16.5088 26.7406 16.7427 26.0858 17.1787 25.5723L17.1904 25.5596C18.0202 24.611 19.3949 23.1928 21.1377 22.0049C22.8728 20.8222 25.0632 19.8057 27.499 19.8057Z" stroke="black" stroke-width="2.35294" stroke-linecap="round" stroke-linejoin="round"/>
<path d="M27.5 23.376C28.5932 23.376 29.6539 23.786 30.4463 24.5342C31.241 25.2848 31.7012 26.318 31.7012 27.4102C31.7011 28.5022 31.241 29.5346 30.4463 30.2852C29.6539 31.0335 28.5932 31.4433 27.5 31.4434C26.4067 31.4434 25.3452 31.0336 24.5527 30.2852C23.7582 29.5347 23.2979 28.5021 23.2979 27.4102C23.2979 26.318 23.758 25.2848 24.5527 24.5342C25.3452 23.7858 26.4067 23.376 27.5 23.376Z" stroke="black" stroke-width="2.35294" stroke-linecap="round" stroke-linejoin="round"/>
</svg>
