<svg width="55" height="55" viewBox="0 0 55 55" fill="none" xmlns="http://www.w3.org/2000/svg">
<rect width="55" height="55" rx="27.5" fill="#C7D4FF"/>
<path d="M29.4173 30.1588V32.1617C28.55 31.8551 27.6217 31.761 26.7104 31.8874C25.7992 32.0139 24.9316 32.3571 24.1804 32.8883C23.4293 33.4196 22.8166 34.1233 22.3938 34.9403C21.971 35.7574 21.7505 36.664 21.7507 37.584H19.834C19.8335 36.4137 20.101 35.2588 20.616 34.2078C21.1309 33.1569 21.8796 32.2378 22.8046 31.5209C23.7297 30.8041 24.8066 30.3085 25.9529 30.0723C27.0991 29.836 28.2842 29.8662 29.4173 30.1588ZM27.5007 28.959C24.3238 28.959 21.7507 26.3859 21.7507 23.209C21.7507 20.0321 24.3238 17.459 27.5007 17.459C30.6775 17.459 33.2507 20.0321 33.2507 23.209C33.2507 26.3859 30.6775 28.959 27.5007 28.959ZM27.5007 27.0423C29.6186 27.0423 31.334 25.3269 31.334 23.209C31.334 21.0911 29.6186 19.3757 27.5007 19.3757C25.3827 19.3757 23.6673 21.0911 23.6673 23.209C23.6673 25.3269 25.3827 27.0423 27.5007 27.0423ZM33.0523 35.5849L36.44 32.1972L37.796 33.5523L33.0523 38.296L29.6636 34.9074L31.0197 33.5523L33.0523 35.5849Z" fill="#182180"/>
</svg>
