<svg width="78" height="78" viewBox="0 0 78 78" fill="none" xmlns="http://www.w3.org/2000/svg">
<rect width="78" height="78" rx="17" fill="#0F2175"/>
<path d="M38.9835 21.0742C29.0877 21.0742 21.0742 29.1056 21.0742 39.0015C21.0742 48.8973 29.0877 56.9287 38.9835 56.9287C48.8973 56.9287 56.9287 48.8973 56.9287 39.0015C56.9287 29.1056 48.8973 21.0742 38.9835 21.0742ZM39.0015 53.3433C31.0776 53.3433 24.6597 46.9253 24.6597 39.0015C24.6597 31.0776 31.0776 24.6597 39.0015 24.6597C46.9253 24.6597 53.3433 31.0776 53.3433 39.0015C53.3433 46.9253 46.9253 53.3433 39.0015 53.3433Z" fill="white"/>
<path d="M39.8981 30.0371H37.209V40.7935L46.6208 46.4405L47.9653 44.2355L39.8981 39.4489V30.0371Z" fill="white"/>
</svg>
