<svg width="60" height="60" viewBox="0 0 60 60" fill="none" xmlns="http://www.w3.org/2000/svg">
<rect width="60" height="60" rx="30" fill="white"/>
<path d="M17.3891 39.7919H41.6845C42.6941 39.7919 43.3234 38.7037 42.8252 37.8252L30.671 16.847C30.5568 16.647 30.3917 16.4807 30.1925 16.365C29.9934 16.2494 29.7671 16.1885 29.5368 16.1885C29.3065 16.1885 29.0803 16.2494 28.8811 16.365C28.6819 16.4807 28.5169 16.647 28.4027 16.847L16.2484 37.8252C15.7502 38.7037 16.3795 39.7919 17.3891 39.7919ZM30.8545 35.8585H28.2322V33.2362H30.8545V35.8585ZM29.5434 30.6139C28.8222 30.6139 28.2322 30.0239 28.2322 29.3028V26.6805C28.2322 25.9594 28.8222 25.3694 29.5434 25.3694C30.2645 25.3694 30.8545 25.9594 30.8545 26.6805V29.3028C30.8545 30.0239 30.2645 30.6139 29.5434 30.6139Z" fill="#FC2A33"/>
</svg>
