<svg width="224" height="224" viewBox="0 0 224 224" fill="none" xmlns="http://www.w3.org/2000/svg">
<g filter="url(#filter0_d_4508_1949)">
<rect x="47" y="16" width="130" height="130" rx="65" fill="white" shape-rendering="crispEdges"/>
<rect x="77.334" y="46.333" width="69.3333" height="69.3333" rx="16.3033" fill="#3F6BFF"/>
<path d="M114.237 66.8352L129.102 92.5813C129.328 92.9739 129.448 93.4192 129.448 93.8725C129.448 94.3259 129.328 94.7712 129.102 95.1638C128.875 95.5564 128.549 95.8824 128.156 96.1091C127.764 96.3357 127.319 96.4551 126.865 96.4551H97.1352C96.6819 96.4551 96.2365 96.3357 95.844 96.1091C95.4514 95.8824 95.1254 95.5564 94.8987 95.1638C94.6721 94.7712 94.5527 94.3259 94.5527 93.8725C94.5527 93.4192 94.6721 92.9739 94.8987 92.5813L109.764 66.8352C110.757 65.1135 113.242 65.1135 114.237 66.8352ZM112 87.2406C111.544 87.2406 111.106 87.422 110.783 87.7449C110.46 88.0678 110.279 88.5057 110.279 88.9623C110.279 89.4189 110.46 89.8568 110.783 90.1797C111.106 90.5026 111.544 90.684 112 90.684C112.457 90.684 112.895 90.5026 113.218 90.1797C113.541 89.8568 113.722 89.4189 113.722 88.9623C113.722 88.5057 113.541 88.0678 113.218 87.7449C112.895 87.422 112.457 87.2406 112 87.2406ZM112 75.1888C111.579 75.1889 111.172 75.3437 110.856 75.6239C110.541 75.9041 110.34 76.2903 110.291 76.7091L110.279 76.9105V83.7973C110.279 84.2361 110.447 84.6581 110.748 84.9772C111.05 85.2963 111.461 85.4884 111.899 85.5141C112.337 85.5398 112.769 85.3973 113.105 85.1156C113.442 84.834 113.658 84.4344 113.71 83.9987L113.722 83.7973V76.9105C113.722 76.4539 113.541 76.016 113.218 75.6931C112.895 75.3702 112.457 75.1888 112 75.1888Z" fill="white"/>
</g>
<defs>
<filter id="filter0_d_4508_1949" x="0" y="0" width="224" height="224" filterUnits="userSpaceOnUse" color-interpolation-filters="sRGB">
<feFlood flood-opacity="0" result="BackgroundImageFix"/>
<feColorMatrix in="SourceAlpha" type="matrix" values="0 0 0 0 0 0 0 0 0 0 0 0 0 0 0 0 0 0 127 0" result="hardAlpha"/>
<feOffset dy="31"/>
<feGaussianBlur stdDeviation="23.5"/>
<feComposite in2="hardAlpha" operator="out"/>
<feColorMatrix type="matrix" values="0 0 0 0 0.0784314 0 0 0 0 0.415686 0 0 0 0 0.921569 0 0 0 0.23 0"/>
<feBlend mode="normal" in2="BackgroundImageFix" result="effect1_dropShadow_4508_1949"/>
<feBlend mode="normal" in="SourceGraphic" in2="effect1_dropShadow_4508_1949" result="shape"/>
</filter>
</defs>
</svg>
