<svg width="224" height="224" viewBox="0 0 224 224" fill="none" xmlns="http://www.w3.org/2000/svg">
<g filter="url(#filter0_d_4508_1955)">
<rect x="47" y="16" width="130" height="130" rx="65" fill="white" shape-rendering="crispEdges"/>
<rect x="77.333" y="46.333" width="69.3333" height="69.3333" rx="16.3033" fill="#3F6BFF"/>
<path d="M103.272 82.4542H97.4536C96.5809 82.4542 95.999 83.0361 95.999 83.9088V95.5456C95.999 96.4184 96.5809 97.0002 97.4536 97.0002H103.272C104.145 97.0002 104.727 96.4184 104.727 95.5456V83.9088C104.727 83.0361 104.145 82.4542 103.272 82.4542ZM126.546 76.6358H120.727C119.854 76.6358 119.273 77.2177 119.273 78.0904V95.5456C119.273 96.4184 119.854 97.0002 120.727 97.0002H126.546C127.418 97.0002 128 96.4184 128 95.5456V78.0904C128 77.2177 127.418 76.6358 126.546 76.6358ZM114.909 64.999H109.09C108.218 64.999 107.636 65.5809 107.636 66.4536V95.5456C107.636 96.4184 108.218 97.0002 109.09 97.0002H114.909C115.782 97.0002 116.363 96.4184 116.363 95.5456V66.4536C116.363 65.5809 115.782 64.999 114.909 64.999Z" fill="white"/>
</g>
<defs>
<filter id="filter0_d_4508_1955" x="0" y="0" width="224" height="224" filterUnits="userSpaceOnUse" color-interpolation-filters="sRGB">
<feFlood flood-opacity="0" result="BackgroundImageFix"/>
<feColorMatrix in="SourceAlpha" type="matrix" values="0 0 0 0 0 0 0 0 0 0 0 0 0 0 0 0 0 0 127 0" result="hardAlpha"/>
<feOffset dy="31"/>
<feGaussianBlur stdDeviation="23.5"/>
<feComposite in2="hardAlpha" operator="out"/>
<feColorMatrix type="matrix" values="0 0 0 0 0.0784314 0 0 0 0 0.415686 0 0 0 0 0.921569 0 0 0 0.23 0"/>
<feBlend mode="normal" in2="BackgroundImageFix" result="effect1_dropShadow_4508_1955"/>
<feBlend mode="normal" in="SourceGraphic" in2="effect1_dropShadow_4508_1955" result="shape"/>
</filter>
</defs>
</svg>
