<svg width="55" height="55" viewBox="0 0 55 55" fill="none" xmlns="http://www.w3.org/2000/svg">
<rect width="55" height="55" rx="27.5" fill="white"/>
<path d="M17.5 28C17.5 23.286 17.5 20.929 18.964 19.464C20.43 18 22.786 18 27.5 18C32.214 18 34.571 18 36.035 19.464C37.5 20.93 37.5 23.286 37.5 28C37.5 32.714 37.5 35.071 36.035 36.535C34.572 38 32.214 38 27.5 38C22.786 38 20.429 38 18.964 36.535C17.5 35.072 17.5 32.714 17.5 28Z" stroke="#182180" stroke-width="2"/>
<path d="M22.5 30L24.297 27.844C25.009 26.989 25.365 26.562 25.833 26.562C26.302 26.562 26.658 26.989 27.37 27.844L27.63 28.156C28.342 29.011 28.698 29.438 29.167 29.438C29.636 29.438 29.991 29.011 30.703 28.156L32.5 26" stroke="#182180" stroke-width="2" stroke-linecap="round"/>
</svg>
