<svg width="55" height="55" viewBox="0 0 55 55" fill="none" xmlns="http://www.w3.org/2000/svg">
<rect width="55" height="55" rx="27.5" fill="white"/>
<path d="M27.909 21.8239L25.086 24.5859C24.7111 24.961 24.5004 25.4696 24.5004 25.9999C24.5004 26.5302 24.7111 27.0388 25.086 27.4139C25.4611 27.7888 25.9697 27.9995 26.5 27.9995C27.0303 27.9995 27.5389 27.7888 27.914 27.4139L29.624 25.7039C29.8478 25.48 30.1135 25.3024 30.406 25.1812C30.6985 25.06 31.0119 24.9977 31.3285 24.9977C31.6451 24.9977 31.9585 25.06 32.251 25.1812C32.5435 25.3024 32.8092 25.48 33.033 25.7039L34.914 27.5859C35.2889 27.961 35.4996 28.4696 35.4996 28.9999C35.4996 29.5302 35.2889 30.0388 34.914 30.4139C36.5 28.8279 37.5 27.4999 37.5 25.4999C37.5 24.3871 37.1624 23.3005 36.5319 22.3836C35.9013 21.4666 35.0075 20.7626 33.9684 20.3643C32.9293 19.966 31.7938 19.8923 30.712 20.1529C29.6301 20.4135 28.6528 20.9962 27.909 21.8239ZM34.914 30.4139C34.7168 30.6112 34.4826 30.7676 34.2249 30.8744C33.9672 30.9812 33.691 31.0361 33.412 31.0361C33.133 31.0361 32.8568 30.9812 32.5991 30.8744C32.3414 30.7676 32.1072 30.6112 31.91 30.4139C32.1235 30.607 32.2956 30.8415 32.4157 31.1032C32.5358 31.3648 32.6015 31.6482 32.6087 31.936C32.616 32.2238 32.5646 32.5101 32.4578 32.7774C32.351 33.0448 32.1909 33.2876 31.9873 33.4912C31.7837 33.6948 31.5409 33.8549 31.2735 33.9617C31.0062 34.0685 30.7199 34.1199 30.4321 34.1126C30.1443 34.1054 29.8609 34.0397 29.5993 33.9196C29.3376 33.7995 29.1031 33.6274 28.91 33.4139C29.1074 33.6105 29.2641 33.8441 29.3712 34.1014C29.4782 34.3586 29.5335 34.6344 29.5339 34.9131C29.5342 35.1917 29.4797 35.4677 29.3733 35.7252C29.267 35.9827 29.1109 36.2167 28.914 36.4139C28.724 36.604 28.4976 36.7538 28.2484 36.8544C27.9991 36.9551 27.7322 37.0044 27.4635 36.9996C27.1947 36.9947 26.9297 36.9358 26.6843 36.8262C26.4389 36.7166 26.218 36.5587 26.035 36.3619L20.5 30.9999C19 29.4999 17.5 27.7999 17.5 25.4999C17.5002 24.3872 17.8379 23.3007 18.4686 22.3839C19.0992 21.4672 19.993 20.7633 21.0321 20.3651C22.0711 19.967 23.2065 19.8934 24.2883 20.154C25.37 20.4146 26.3473 20.9972 27.091 21.8249C27.2022 21.9282 27.3484 21.9856 27.5002 21.9854C27.652 21.9852 27.7981 21.9275 27.909 21.8239" stroke="#182180" stroke-width="2" stroke-linecap="round" stroke-linejoin="round"/>
</svg>
