<svg width="55" height="55" viewBox="0 0 55 55" fill="none" xmlns="http://www.w3.org/2000/svg">
<rect width="55" height="55" rx="27.5" fill="white"/>
<path d="M29.8562 29.5065C30.3484 29.0143 30.625 28.3466 30.625 27.6504C30.625 26.9542 30.3484 26.2865 29.8562 25.7942C29.3639 25.302 28.6962 25.0254 28 25.0254C27.3038 25.0254 26.6361 25.302 26.1438 25.7942C25.6516 26.2865 25.375 26.9542 25.375 27.6504C25.375 28.3466 25.6516 29.0143 26.1438 29.5065C26.6361 29.9988 27.3038 30.2754 28 30.2754C28.6962 30.2754 29.3639 29.9988 29.8562 29.5065Z" stroke="#182180" stroke-width="1.575" stroke-linecap="round" stroke-linejoin="round"/>
<path d="M37.5897 21.0107C36.5995 20.7041 34.804 20.3009 32.2 20.3009C27.3921 20.3009 26.1069 22.0617 19.4719 20.745C18.466 20.5455 17.5 21.2921 17.5 22.3169V32.8368C17.4985 33.188 17.6168 33.5292 17.8354 33.8041C18.054 34.079 18.3597 34.2712 18.7023 34.3488C26.0155 35.9616 27.2125 34.0653 32.2 34.0653C33.7866 34.0653 35.0728 34.2155 36.0598 34.4013C37.2106 34.6187 38.5 33.7377 38.5 32.567V22.3242C38.5 21.7278 38.1598 21.1871 37.5897 21.0107Z" stroke="#182180" stroke-width="1.575" stroke-linecap="round" stroke-linejoin="round"/>
<path d="M17.5 24.5012C19.5486 24.5012 21.3903 22.8264 21.6255 21.0929M34.825 20.8262C34.825 22.9682 36.6783 24.9936 38.5 24.9936M38.5 30.8012C36.505 30.8012 34.573 32.1767 34.4071 34.0541M21.7 34.472C21.7 33.3581 21.2575 32.2898 20.4698 31.5021C19.6822 30.7145 18.6139 30.272 17.5 30.272" stroke="#182180" stroke-width="1.575" stroke-linecap="round" stroke-linejoin="round"/>
</svg>
