<svg width="55" height="55" viewBox="0 0 55 55" fill="none" xmlns="http://www.w3.org/2000/svg">
<rect width="55" height="55" rx="27.5" fill="white"/>
<path d="M31.5 37V35C31.5 33.9391 31.0786 32.9217 30.3284 32.1716C29.5783 31.4214 28.5609 31 27.5 31H21.5C20.4391 31 19.4217 31.4214 18.6716 32.1716C17.9214 32.9217 17.5 33.9391 17.5 35V37" stroke="#182180" stroke-width="2" stroke-linecap="round" stroke-linejoin="round"/>
<path d="M31.5 19.1279C32.3578 19.3503 33.1174 19.8512 33.6597 20.552C34.202 21.2528 34.4962 22.1138 34.4962 22.9999C34.4962 23.886 34.202 24.7471 33.6597 25.4479C33.1174 26.1487 32.3578 26.6496 31.5 26.8719" stroke="#182180" stroke-width="2" stroke-linecap="round" stroke-linejoin="round"/>
<path d="M37.5 36.9999V34.9999C37.4993 34.1136 37.2044 33.2527 36.6614 32.5522C36.1184 31.8517 35.3581 31.3515 34.5 31.1299" stroke="#182180" stroke-width="2" stroke-linecap="round" stroke-linejoin="round"/>
<path d="M24.5 27C26.7091 27 28.5 25.2091 28.5 23C28.5 20.7909 26.7091 19 24.5 19C22.2909 19 20.5 20.7909 20.5 23C20.5 25.2091 22.2909 27 24.5 27Z" stroke="#182180" stroke-width="2" stroke-linecap="round" stroke-linejoin="round"/>
</svg>
