<svg width="224" height="224" viewBox="0 0 224 224" fill="none" xmlns="http://www.w3.org/2000/svg">
<g filter="url(#filter0_d_4508_1952)">
<rect x="47" y="16" width="130" height="130" rx="65" fill="white" shape-rendering="crispEdges"/>
<rect x="77.333" y="46.333" width="69.3333" height="69.3333" rx="16.3033" fill="#3F6BFF"/>
<path d="M116.976 70.0524C116.976 71.3721 116.452 72.6379 115.519 73.5711C114.585 74.5043 113.32 75.0286 112 75.0286C110.68 75.0286 109.415 74.5043 108.481 73.5711C107.548 72.6379 107.024 71.3721 107.024 70.0524C107.024 68.7326 107.548 67.4669 108.481 66.5337C109.415 65.6004 110.68 65.0762 112 65.0762C113.32 65.0762 114.585 65.6004 115.519 66.5337C116.452 67.4669 116.976 68.7326 116.976 70.0524ZM126.929 71.0476C126.929 72.1034 126.509 73.116 125.763 73.8626C125.016 74.6091 124.003 75.0286 122.948 75.0286C121.892 75.0286 120.879 74.6091 120.133 73.8626C119.386 73.116 118.967 72.1034 118.967 71.0476C118.967 69.9918 119.386 68.9792 120.133 68.2326C120.879 67.4861 121.892 67.0667 122.948 67.0667C124.003 67.0667 125.016 67.4861 125.763 68.2326C126.509 68.9792 126.929 69.9918 126.929 71.0476ZM101.052 75.0286C102.108 75.0286 103.121 74.6091 103.867 73.8626C104.614 73.116 105.033 72.1034 105.033 71.0476C105.033 69.9918 104.614 68.9792 103.867 68.2326C103.121 67.4861 102.108 67.0667 101.052 67.0667C99.9966 67.0667 98.984 67.4861 98.2374 68.2326C97.4908 68.9792 97.0714 69.9918 97.0714 71.0476C97.0714 72.1034 97.4908 73.116 98.2374 73.8626C98.984 74.6091 99.9966 75.0286 101.052 75.0286ZM104.038 79.5071C104.038 78.1337 105.153 77.019 106.526 77.019H117.474C118.847 77.019 119.962 78.1337 119.962 79.5071V88.9619C119.962 91.0735 119.123 93.0987 117.63 94.5918C116.137 96.085 114.112 96.9238 112 96.9238C109.888 96.9238 107.863 96.085 106.37 94.5918C104.877 93.0987 104.038 91.0735 104.038 88.9619V79.5071ZM102.048 79.5071C102.048 78.5855 102.326 77.7316 102.802 77.019H98.5643C97.1908 77.019 96.0762 78.1337 96.0762 79.5071V86.9714C96.0761 87.8236 96.2584 88.6659 96.6108 89.4418C96.9633 90.2176 97.4777 90.9091 98.1195 91.4697C98.7613 92.0302 99.5157 92.4469 100.332 92.6918C101.148 92.9366 102.007 93.0039 102.852 92.8891C102.32 91.6481 102.047 90.312 102.048 88.9619V79.5071ZM121.952 88.9619C121.952 90.3552 121.666 91.6849 121.148 92.8891C121.411 92.925 121.679 92.9429 121.952 92.9429C123.536 92.9429 125.055 92.3137 126.175 91.1939C127.295 90.074 127.924 88.5552 127.924 86.9714V79.5071C127.924 78.1337 126.809 77.019 125.436 77.019H121.198C121.676 77.7316 121.952 78.5855 121.952 79.5071V88.9619Z" fill="white"/>
</g>
<defs>
<filter id="filter0_d_4508_1952" x="0" y="0" width="224" height="224" filterUnits="userSpaceOnUse" color-interpolation-filters="sRGB">
<feFlood flood-opacity="0" result="BackgroundImageFix"/>
<feColorMatrix in="SourceAlpha" type="matrix" values="0 0 0 0 0 0 0 0 0 0 0 0 0 0 0 0 0 0 127 0" result="hardAlpha"/>
<feOffset dy="31"/>
<feGaussianBlur stdDeviation="23.5"/>
<feComposite in2="hardAlpha" operator="out"/>
<feColorMatrix type="matrix" values="0 0 0 0 0.0784314 0 0 0 0 0.415686 0 0 0 0 0.921569 0 0 0 0.23 0"/>
<feBlend mode="normal" in2="BackgroundImageFix" result="effect1_dropShadow_4508_1952"/>
<feBlend mode="normal" in="SourceGraphic" in2="effect1_dropShadow_4508_1952" result="shape"/>
</filter>
</defs>
</svg>
