<svg width="46" height="46" viewBox="0 0 46 46" fill="none" xmlns="http://www.w3.org/2000/svg">
<rect width="46" height="46" rx="23" fill="#EDF0F5"/>
<path fill-rule="evenodd" clip-rule="evenodd" d="M21.6455 13.5126C21.9847 13.1738 22.4386 12.9745 22.9176 12.9539C23.3966 12.9333 23.866 13.093 24.233 13.4015L24.3557 13.5136L26.1765 15.3335H28.7506C29.234 15.3336 29.6995 15.5163 30.0538 15.8451C30.4082 16.1738 30.6252 16.6244 30.6615 17.1064L30.6672 17.2501V19.8242L32.4881 21.6451C32.8271 21.9843 33.0267 22.4384 33.0472 22.9177C33.0678 23.3969 32.908 23.8664 32.5992 24.2335L32.4871 24.3552L30.6663 26.1761V28.7501C30.6664 29.2337 30.4838 29.6994 30.155 30.054C29.8262 30.4086 29.3756 30.6258 28.8934 30.662L28.7506 30.6668H26.1775L24.3566 32.4876C24.0173 32.8267 23.5632 33.0262 23.084 33.0468C22.6048 33.0674 22.1353 32.9075 21.7682 32.5988L21.6465 32.4876L19.8256 30.6668H17.2506C16.767 30.667 16.3013 30.4843 15.9467 30.1555C15.5922 29.8267 15.375 29.3761 15.3387 28.8939L15.3339 28.7501V26.1761L13.5131 24.3552C13.174 24.0159 12.9745 23.5619 12.9539 23.0826C12.9333 22.6034 13.0932 22.1339 13.4019 21.7668L13.5131 21.6451L15.3339 19.8242V17.2501C15.334 16.7668 15.5167 16.3013 15.8455 15.9469C16.1743 15.5925 16.6248 15.3755 17.1068 15.3392L17.2506 15.3335H19.8247L21.6455 13.5126Z" fill="#3F9643"/>
<path fill-rule="evenodd" clip-rule="evenodd" d="M25.9513 20.1089L21.8841 24.176L20.1898 22.4817C20.01 22.302 19.7661 22.2011 19.5119 22.2012C19.2577 22.2013 19.0139 22.3024 18.8342 22.4822C18.6545 22.662 18.5536 22.9058 18.5537 23.1601C18.5538 23.4143 18.6549 23.658 18.8347 23.8377L21.1385 26.1416C21.2364 26.2395 21.3527 26.3172 21.4806 26.3702C21.6085 26.4232 21.7456 26.4505 21.8841 26.4505C22.0226 26.4505 22.1597 26.4232 22.2876 26.3702C22.4156 26.3172 22.5318 26.2395 22.6297 26.1416L27.3064 21.4639C27.4809 21.2832 27.5775 21.0411 27.5753 20.7898C27.5732 20.5386 27.4724 20.2982 27.2947 20.1205C27.117 19.9429 26.8766 19.8421 26.6254 19.8399C26.3741 19.8377 26.132 19.9343 25.9513 20.1089Z" fill="white"/>
</svg>
