<svg width="300" height="300" viewBox="0 0 300 300" fill="none" xmlns="http://www.w3.org/2000/svg">
<rect x="0.5" y="0.5" width="299" height="299" rx="149.5" fill="white"/>
<rect x="0.5" y="0.5" width="299" height="299" rx="149.5" stroke="#C7D4FF"/>
<rect x="70" y="70" width="160" height="160" rx="37.6229" fill="#EA6E00"/>
<path d="M160.666 118.394C162.742 119.478 163.799 121.074 164.369 122.554C164.953 124.071 164.975 125.731 164.975 127.357V149.165C164.975 150.919 164.975 152.74 164.205 154.316C162.875 157.042 160.51 157.225 158.904 156.785C158.45 156.661 158.169 156.232 158.147 155.762L157.651 145.322C157.326 136.533 150.4 134.189 146.978 134.116H136.621C135.494 134.116 134.332 134.103 133.312 133.624C130.813 132.45 129.921 129.745 129.735 127.425C129.603 125.776 129.955 124.11 130.697 122.632C131.59 120.855 132.643 119.994 134.06 118.659C134.59 125.538 140.339 130.955 147.354 130.955C154.459 130.955 160.266 125.398 160.666 118.394Z" fill="white"/>
<path d="M147.354 106.666C153.404 106.666 158.309 111.571 158.309 117.621C158.309 123.672 153.404 128.576 147.354 128.576C141.304 128.576 136.399 123.672 136.399 117.621C136.399 111.571 141.304 106.666 147.354 106.666Z" fill="white"/>
<path d="M173.401 188.173C171.246 189.089 169.341 188.892 167.837 188.393C166.294 187.881 164.996 186.845 163.74 185.813L146.89 171.968C145.535 170.855 144.128 169.698 143.399 168.103C142.138 165.345 143.498 163.401 144.857 162.439C145.241 162.168 145.752 162.223 146.129 162.504L154.509 168.749C161.507 174.077 167.714 170.213 169.943 167.616L176.518 159.613C177.234 158.743 177.982 157.853 178.999 157.369C181.493 156.184 184.15 157.212 186.06 158.541C187.417 159.486 188.481 160.816 189.152 162.328C189.958 164.145 189.956 165.506 190.087 167.448C184.436 163.49 176.6 164.494 172.147 169.914C167.637 175.403 168.243 183.417 173.401 188.173Z" fill="white"/>
<path d="M190.914 185.333C187.072 190.008 180.169 190.684 175.494 186.843C170.82 183.002 170.144 176.098 173.985 171.424C177.826 166.749 184.729 166.073 189.404 169.914C194.079 173.755 194.755 180.658 190.914 185.333Z" fill="white"/>
<path d="M111.324 165.225C111.177 162.888 111.996 161.157 112.966 159.904C113.962 158.619 115.371 157.74 116.761 156.898L135.422 145.61C136.922 144.703 138.481 143.76 140.228 143.603C143.248 143.331 144.629 145.261 145.085 146.862C145.213 147.315 144.991 147.777 144.6 148.04L135.924 153.867C128.573 158.695 130.152 165.833 131.861 168.799L137.222 177.661C137.805 178.625 138.395 179.627 138.513 180.747C138.802 183.493 136.949 185.657 135.06 187.016C133.718 187.982 132.11 188.544 130.461 188.673C128.479 188.829 126.891 188.674 125.322 187.853C130.933 183.839 132.592 176.116 128.961 170.114C125.284 164.035 117.524 161.942 111.324 165.225Z" fill="white"/>
<path d="M108.179 182.685C105.047 177.508 106.705 170.773 111.882 167.641C117.059 164.51 123.794 166.168 126.926 171.345C130.057 176.522 128.4 183.257 123.223 186.389C118.046 189.52 111.31 187.862 108.179 182.685Z" fill="white"/>
</svg>
