<svg width="55" height="55" viewBox="0 0 55 55" fill="none" xmlns="http://www.w3.org/2000/svg">
<rect width="55" height="55" rx="27.5" fill="#C7D4FF"/>
<path d="M38.5 30.7503V39.0003H27.5V30.7503H30.25V28.0003H35.75V30.7503H38.5ZM31.625 30.7503H34.375V29.3753H31.625V30.7503ZM37.125 34.8753H35.75V36.2503H34.375V34.8753H31.625V36.2503H30.25V34.8753H28.875V37.6253H37.125V34.8753ZM37.125 32.1253H28.875V33.5003H37.125V32.1253ZM33.3115 26.6253C32.9248 26.1885 32.4665 25.8519 31.9365 25.6156C31.4066 25.3792 30.8444 25.2575 30.25 25.2503C29.6771 25.2503 29.1436 25.3578 28.6494 25.5726C28.1553 25.7874 27.7184 26.0811 27.3389 26.4535C26.9593 26.8259 26.6621 27.2663 26.4473 27.7747C26.2324 28.2832 26.125 28.8167 26.125 29.3753C26.125 30.0342 25.9782 30.6537 25.6846 31.2337C25.391 31.8138 24.9756 32.3008 24.4385 32.6947C24.7607 32.8594 25.0615 33.0492 25.3408 33.264C25.6201 33.4789 25.8815 33.7223 26.125 33.9945V37.6253C26.125 37.0596 26.0176 36.5261 25.8027 36.0247C25.5879 35.5234 25.2943 35.0866 24.9219 34.7142C24.5495 34.3418 24.109 34.0446 23.6006 33.8226C23.0921 33.6006 22.5586 33.4932 22 33.5003C21.4271 33.5003 20.8936 33.6078 20.3994 33.8226C19.9053 34.0374 19.4684 34.3311 19.0889 34.7035C18.7093 35.0759 18.4121 35.5163 18.1973 36.0247C17.9824 36.5332 17.875 37.0667 17.875 37.6253H16.5C16.5 37.1025 16.5716 36.5977 16.7148 36.1107C16.8581 35.6237 17.0622 35.1618 17.3271 34.7249C17.5921 34.2881 17.9144 33.9014 18.2939 33.5648C18.6735 33.2282 19.096 32.9382 19.5615 32.6947C19.0316 32.308 18.6198 31.8246 18.3262 31.2445C18.0326 30.6644 17.8822 30.0414 17.875 29.3753C17.875 28.8096 17.9824 28.2761 18.1973 27.7747C18.4121 27.2734 18.7057 26.8366 19.0781 26.4642C19.4505 26.0918 19.8874 25.7946 20.3887 25.5726C20.89 25.3506 21.4271 25.2432 22 25.2503C22.6589 25.2503 23.2783 25.3971 23.8584 25.6908C24.4385 25.9844 24.9255 26.3997 25.3193 26.9369C25.5915 26.3997 25.9388 25.9199 26.3613 25.4974C26.7839 25.0749 27.2673 24.724 27.8115 24.4447C27.2816 24.058 26.8698 23.5746 26.5762 22.9945C26.2826 22.4144 26.1322 21.7914 26.125 21.1253C26.125 20.5596 26.2324 20.0261 26.4473 19.5247C26.6621 19.0234 26.9557 18.5866 27.3281 18.2142C27.7005 17.8418 28.1374 17.5446 28.6387 17.3226C29.14 17.1006 29.6771 16.9932 30.25 17.0003C30.8158 17.0003 31.3493 17.1078 31.8506 17.3226C32.3519 17.5374 32.7887 17.8311 33.1611 18.2035C33.5335 18.5759 33.8307 19.0163 34.0527 19.5247C34.2747 20.0332 34.3822 20.5667 34.375 21.1253C34.375 21.7842 34.2282 22.4037 33.9346 22.9837C33.641 23.5638 33.2256 24.0508 32.6885 24.4447C33.1755 24.6882 33.6159 24.9925 34.0098 25.3578C34.4036 25.723 34.7367 26.1455 35.0088 26.6253H33.3115ZM22 32.1253C22.3796 32.1253 22.734 32.0537 23.0635 31.9105C23.3929 31.7673 23.6865 31.5703 23.9443 31.3197C24.2021 31.069 24.3991 30.779 24.5352 30.4496C24.6712 30.1201 24.7428 29.7621 24.75 29.3753C24.75 28.9958 24.6784 28.6413 24.5352 28.3119C24.3919 27.9824 24.195 27.6888 23.9443 27.431C23.6937 27.1732 23.4036 26.9762 23.0742 26.8402C22.7448 26.7041 22.3867 26.6325 22 26.6253C21.6204 26.6253 21.266 26.6969 20.9365 26.8402C20.6071 26.9834 20.3135 27.1803 20.0557 27.431C19.7979 27.6817 19.6009 27.9717 19.4648 28.3011C19.3288 28.6305 19.2572 28.9886 19.25 29.3753C19.25 29.7549 19.3216 30.1094 19.4648 30.4388C19.6081 30.7682 19.805 31.0619 20.0557 31.3197C20.3063 31.5775 20.5964 31.7744 20.9258 31.9105C21.2552 32.0466 21.6133 32.1182 22 32.1253ZM27.5 21.1253C27.5 21.5049 27.5716 21.8594 27.7148 22.1888C27.8581 22.5182 28.055 22.8119 28.3057 23.0697C28.5563 23.3275 28.8464 23.5244 29.1758 23.6605C29.5052 23.7966 29.8633 23.8682 30.25 23.8753C30.6296 23.8753 30.984 23.8037 31.3135 23.6605C31.6429 23.5173 31.9365 23.3203 32.1943 23.0697C32.4521 22.819 32.6491 22.529 32.7852 22.1996C32.9212 21.8701 32.9928 21.5121 33 21.1253C33 20.7458 32.9284 20.3913 32.7852 20.0619C32.6419 19.7324 32.445 19.4388 32.1943 19.181C31.9437 18.9232 31.6536 18.7262 31.3242 18.5902C30.9948 18.4541 30.6367 18.3825 30.25 18.3753C29.8704 18.3753 29.516 18.447 29.1865 18.5902C28.8571 18.7334 28.5635 18.9303 28.3057 19.181C28.0479 19.4317 27.8509 19.7217 27.7148 20.0511C27.5788 20.3805 27.5072 20.7386 27.5 21.1253Z" fill="#182180"/>
</svg>
