<svg width="55" height="55" viewBox="0 0 55 55" fill="none" xmlns="http://www.w3.org/2000/svg">
<rect width="55" height="55" rx="27.5" fill="#C7D4FF"/>
<path d="M27.0977 19.8936C27.8071 19.7554 28.542 19.8301 29.209 20.1084C29.876 20.3868 30.4459 20.8566 30.8467 21.458C31.2474 22.0595 31.4609 22.7665 31.4609 23.4893L31.4551 23.6719C31.4038 24.5813 31.0177 25.4422 30.3672 26.0859C29.6734 26.7724 28.7357 27.1558 27.7598 27.1523H27.7588C27.0361 27.1446 26.3316 26.9237 25.7344 26.5166C25.137 26.1095 24.6737 25.5343 24.4023 24.8643C24.131 24.1943 24.0643 23.459 24.21 22.751C24.3557 22.0429 24.7069 21.3932 25.2207 20.8848C25.7345 20.3763 26.3881 20.0318 27.0977 19.8936ZM27.7607 21.2764C27.325 21.2837 26.9009 21.4188 26.542 21.666C26.1829 21.9134 25.9052 22.2621 25.7432 22.667C25.5812 23.0719 25.5425 23.5156 25.6318 23.9424C25.7212 24.3692 25.9343 24.7605 26.2451 25.0664C26.556 25.3723 26.9507 25.5796 27.3789 25.6621C27.807 25.7446 28.2502 25.6986 28.6523 25.5303C29.0546 25.3618 29.399 25.078 29.6406 24.7148C29.882 24.3521 30.0104 23.9259 30.0107 23.4902L29.998 23.2695C29.942 22.7596 29.7116 22.2819 29.3428 21.9189C28.9211 21.504 28.3523 21.2732 27.7607 21.2764Z" fill="#182180" stroke="#182180" stroke-width="0.2"/>
<path d="M21.7695 29.0518C24.131 27.8296 26.8069 27.3638 29.4346 27.7109L29.96 27.792L30.0391 27.8057L30.043 27.8857L30.0986 29.167L30.1045 29.2939L29.9805 29.2705C27.4738 28.7966 24.8818 29.1534 22.5967 30.2852V32.3662C22.5967 32.5584 22.5206 32.7429 22.3848 32.8789C22.2488 33.0148 22.0643 33.0917 21.8721 33.0918C21.6798 33.0918 21.4954 33.0148 21.3594 32.8789C21.2234 32.7429 21.1465 32.5585 21.1465 32.3662V30.1406C21.1405 29.9206 21.1949 29.7031 21.3037 29.5117C21.4131 29.3194 21.5732 29.1602 21.7666 29.0527L21.7695 29.0518ZM27.0977 19.8936C27.8072 19.7553 28.5418 19.83 29.209 20.1084C29.8761 20.3868 30.4458 20.8564 30.8467 21.458C31.2475 22.0596 31.4619 22.7664 31.4619 23.4893L31.4561 23.6719C31.4048 24.5812 31.0186 25.4423 30.3682 26.0859C29.6745 26.7724 28.7367 27.1557 27.7607 27.1523H27.7598C27.037 27.1447 26.3326 26.9236 25.7354 26.5166C25.138 26.1095 24.6737 25.5343 24.4023 24.8643C24.1311 24.1943 24.0643 23.4589 24.21 22.751C24.3556 22.0429 24.7078 21.3933 25.2217 20.8848C25.7355 20.3765 26.3883 20.0318 27.0977 19.8936ZM27.7617 21.2764C27.3259 21.2836 26.9019 21.4188 26.543 21.666C26.1838 21.9135 25.9052 22.262 25.7432 22.667C25.5813 23.0718 25.5425 23.5156 25.6318 23.9424C25.7212 24.3693 25.9352 24.7605 26.2461 25.0664C26.557 25.3723 26.9517 25.5796 27.3799 25.6621C27.808 25.7445 28.2511 25.6987 28.6533 25.5303C29.0556 25.3618 29.399 25.0779 29.6406 24.7148C29.882 24.3521 30.0114 23.926 30.0117 23.4902L29.998 23.2695C29.942 22.7596 29.7116 22.2819 29.3428 21.9189C28.9212 21.5042 28.3531 21.2733 27.7617 21.2764Z" fill="#182180" stroke="#182180" stroke-width="0.2"/>
<path d="M32.0605 28.959C32.2527 28.9591 32.4373 29.035 32.5732 29.1709C32.7091 29.3068 32.7851 29.4914 32.7852 29.6836V30.5088H36.874C37.0663 30.5088 37.2508 30.5857 37.3867 30.7217C37.5226 30.8577 37.5986 31.0421 37.5986 31.2344V37.4854C37.5986 37.6777 37.5227 37.863 37.3867 37.999C37.2508 38.1349 37.0662 38.2109 36.874 38.2109H26.8711C26.6789 38.2109 26.4943 38.1349 26.3584 37.999C26.2224 37.863 26.1465 37.6777 26.1465 37.4854V31.2344C26.1465 31.0421 26.2225 30.8577 26.3584 30.7217C26.4944 30.5857 26.6788 30.5088 26.8711 30.5088H31.335V29.6836C31.335 29.4914 31.411 29.3068 31.5469 29.1709C31.6829 29.0349 31.8682 28.959 32.0605 28.959ZM27.5967 36.7607H36.1484V31.959H32.7852V32.1152C32.7852 32.3074 32.709 32.492 32.5732 32.6279C32.4373 32.7638 32.2527 32.8407 32.0605 32.8408C31.8682 32.8408 31.6829 32.7639 31.5469 32.6279C31.4112 32.492 31.335 32.3073 31.335 32.1152V31.959H27.5967V36.7607Z" fill="#182180" stroke="#182180" stroke-width="0.2"/>
<path d="M33.7051 33.8984V34.9736H29.7783V33.8984H33.7051ZM32.498 24.4023C34.0668 24.5038 35.5971 24.9329 36.9893 25.6631V25.6641C37.1736 25.7615 37.3281 25.9072 37.4355 26.0859C37.543 26.2646 37.6 26.4693 37.5996 26.6777V28.6152C37.5996 28.8076 37.5227 28.9919 37.3867 29.1279C37.2507 29.2639 37.0663 29.3408 36.874 29.3408C36.6818 29.3408 36.4973 29.2639 36.3613 29.1279C36.2254 28.9919 36.1494 28.8075 36.1494 28.6152V26.8652C34.8673 26.2327 33.4629 25.886 32.0332 25.8516L31.8701 25.8477L31.9473 25.7051C32.1535 25.3206 32.3036 24.9084 32.3936 24.4814L32.4121 24.3965L32.498 24.4023ZM23.0078 23.4873L23.0166 23.6875C23.0292 23.8872 23.0548 24.0858 23.0938 24.2822L23.1191 24.4121L23.1016 24.4102L23.1182 24.4873C23.2083 24.9149 23.3614 25.3267 23.5713 25.71L23.6543 25.8633L23.4805 25.8584C21.8763 25.8132 20.2853 26.1584 18.8447 26.8643V28.6152C18.8447 28.8076 18.7678 28.9919 18.6318 29.1279C18.4958 29.2639 18.3114 29.3408 18.1191 29.3408C17.9269 29.3408 17.7424 29.2639 17.6064 29.1279C17.4705 28.9919 17.3945 28.8075 17.3945 28.6152V26.6768C17.3954 26.4695 17.4522 26.2662 17.5596 26.0889C17.667 25.9115 17.8206 25.7667 18.0039 25.6699L18.0049 25.6689C19.5568 24.8686 21.2726 24.4375 23.0186 24.4082L23.0586 24.4072L22.9873 24.4014C22.1718 24.3372 21.4099 23.971 20.8496 23.375C20.2893 22.7789 19.9706 21.9957 19.957 21.1777V21.1738C19.9696 20.5057 20.1847 19.8572 20.5732 19.3135C20.9619 18.7697 21.5066 18.3562 22.1348 18.1279C22.7629 17.8998 23.4458 17.8667 24.0928 18.0342C24.7397 18.2017 25.3202 18.5621 25.7588 19.0664L25.8457 19.165L25.7266 19.2217C25.3534 19.3987 25.0034 19.6212 24.6846 19.8838L24.6152 19.9404L24.5518 19.8789C24.2021 19.5395 23.7334 19.3498 23.2461 19.3506H23.2412C22.7734 19.3304 22.316 19.4912 21.9639 19.7998C21.6117 20.1085 21.3918 20.5413 21.3506 21.0078C21.3094 21.4743 21.4496 21.939 21.7422 22.3047C22.0347 22.6702 22.4569 22.9085 22.9209 22.9707L23.0078 22.9824V23.4873ZM35.042 21.1699C35.0364 21.8951 34.7914 22.5985 34.3447 23.1699C33.8981 23.7412 33.2756 24.1495 32.5732 24.3301L32.4248 24.3682L32.4492 24.2168C32.488 23.9739 32.5088 23.7284 32.5107 23.4824L32.502 23.1982C32.4958 23.1034 32.4861 23.0084 32.4736 22.9141L32.4639 22.8418L32.5312 22.8105C32.8451 22.665 33.1111 22.4331 33.2988 22.1426C33.4859 21.853 33.5875 21.5166 33.5918 21.1719L33.5859 21.0459C33.5606 20.7532 33.4659 20.4699 33.3096 20.2197C33.1309 19.9338 32.8774 19.7013 32.5771 19.5479C32.277 19.3945 31.9408 19.325 31.6045 19.3477C31.2681 19.3703 30.944 19.4845 30.667 19.6768L30.6094 19.7168L30.5518 19.6758C30.1931 19.4202 29.8014 19.2135 29.3877 19.0625L29.2422 19.0098L29.3506 18.8994C29.6607 18.5832 30.0311 18.3317 30.4395 18.1602C30.8476 17.9887 31.2858 17.9015 31.7285 17.9014H31.7295C32.6012 17.8981 33.4389 18.2385 34.0596 18.8506C34.6805 19.463 35.0335 20.2969 35.042 21.1689L35.043 21.1699H35.042Z" fill="#182180" stroke="#182180" stroke-width="0.2"/>
</svg>
