<svg width="78" height="78" viewBox="0 0 78 78" fill="none" xmlns="http://www.w3.org/2000/svg">
<rect width="78" height="78" rx="17" fill="#FF9833"/>
<path d="M49.8672 49.1162V51.1514H42.4727V49.1162H49.8672ZM34.6543 21.3213C36.2334 21.0072 37.87 21.1681 39.3574 21.7842C40.845 22.4003 42.1172 23.4435 43.0117 24.7822C43.9063 26.121 44.3838 27.6955 44.3838 29.3057C44.3838 31.4648 43.5258 33.5357 41.999 35.0625C40.4723 36.5892 38.4013 37.4473 36.2422 37.4473C34.6322 37.4472 33.0584 36.9695 31.7197 36.0752C30.3809 35.1806 29.3369 33.9085 28.7207 32.4209C28.1046 30.9335 27.9438 29.2968 28.2578 27.7178C28.5719 26.1386 29.3468 24.6874 30.4854 23.5488C31.6239 22.4103 33.0751 21.6354 34.6543 21.3213ZM36.2422 23.9688C35.1688 23.9688 34.1191 24.2874 33.2266 24.8838C32.3342 25.4801 31.6383 26.3278 31.2275 27.3193C30.8169 28.311 30.7095 29.4024 30.9189 30.4551C31.1284 31.5079 31.6453 32.4753 32.4043 33.2344C33.1633 33.9933 34.1308 34.5103 35.1836 34.7197C36.2363 34.9291 37.3277 34.8209 38.3193 34.4102C39.311 33.9994 40.1585 33.3036 40.7549 32.4111C41.3511 31.5187 41.6699 30.4697 41.6699 29.3965C41.6699 28.6838 41.5295 27.9778 41.2568 27.3193C40.9841 26.6609 40.584 26.0626 40.0801 25.5586C39.5761 25.0546 38.9778 24.6546 38.3193 24.3818C37.6608 24.1091 36.9549 23.9688 36.2422 23.9688ZM42.7666 41.1826L42.4873 41.1152C40.4425 40.6212 38.3458 40.3725 36.2422 40.375H36.2412C32.7225 40.3599 29.2408 41.0688 26.0117 42.4541L25.3691 42.7402C25.0095 42.9066 24.7058 43.1745 24.4961 43.5107C24.2866 43.8468 24.1797 44.2369 24.1885 44.6328V51.3662C24.1885 51.5443 24.1541 51.7212 24.0859 51.8857C24.0178 52.0503 23.917 52.1993 23.791 52.3252C23.6652 52.451 23.516 52.551 23.3516 52.6191C23.187 52.6873 23.0102 52.7226 22.832 52.7227C22.6538 52.7227 22.4771 52.6873 22.3125 52.6191C22.148 52.551 21.998 52.4511 21.8721 52.3252C21.7463 52.1994 21.6462 52.0501 21.5781 51.8857C21.51 51.7212 21.4746 51.5443 21.4746 51.3662V44.6387C21.471 43.7262 21.7268 42.8314 22.2119 42.0586C22.6971 41.2856 23.3923 40.6668 24.2158 40.2734L24.2197 40.2715C29.9711 37.6483 36.4229 36.9797 42.5898 38.3682L42.7666 38.4082V41.1826Z" fill="white" stroke="white" stroke-width="0.452288"/>
<path d="M46.2715 39.6055C46.6313 39.6055 46.977 39.7485 47.2314 40.0029C47.4859 40.2574 47.6289 40.603 47.6289 40.9629V45.3613C47.6289 45.721 47.4856 46.0659 47.2314 46.3203C46.977 46.5748 46.6313 46.7178 46.2715 46.7178C45.9116 46.7178 45.5669 46.5748 45.3125 46.3203C45.0581 46.0659 44.9151 45.7212 44.915 45.3613V45.1123H38.2432V54.124H53.8135V45.1123H49.0986V42.3984H55.1699C55.5297 42.3984 55.8754 42.5415 56.1299 42.7959C56.3843 43.0504 56.5273 43.396 56.5273 43.7559V55.4814C56.5273 55.8411 56.3842 56.186 56.1299 56.4404C55.8754 56.6949 55.5298 56.8379 55.1699 56.8379H36.8867C36.5269 56.8379 36.1812 56.6949 35.9268 56.4404C35.6725 56.1861 35.5294 55.8411 35.5293 55.4814V43.7559C35.5293 43.396 35.6723 43.0504 35.9268 42.7959C36.1812 42.5414 36.5269 42.3984 36.8867 42.3984H44.915V40.9629C44.915 40.603 45.058 40.2574 45.3125 40.0029C45.5669 39.7487 45.9118 39.6055 46.2715 39.6055Z" fill="white" stroke="white" stroke-width="0.452288"/>
</svg>
