<svg width="78" height="78" viewBox="0 0 78 78" fill="none" xmlns="http://www.w3.org/2000/svg">
<rect width="78" height="78" rx="17" fill="#663000"/>
<path d="M37.3086 24.8838C38.5357 24.6447 39.8062 24.7736 40.96 25.2549C42.1137 25.7363 43.0997 26.5485 43.793 27.5889C44.4863 28.6293 44.8564 29.8522 44.8564 31.1025V31.1035C44.8447 32.7915 44.1647 34.4064 42.9648 35.5938C41.765 36.7811 40.1431 37.4444 38.4551 37.4385H38.4541C37.2039 37.4253 35.9853 37.0421 34.9521 36.3379C33.9191 35.6338 33.1168 34.6402 32.6475 33.4814C32.1782 32.3227 32.0626 31.0507 32.3145 29.8262C32.5664 28.6015 33.1748 27.4781 34.0635 26.5986C34.9521 25.7192 36.0815 25.1229 37.3086 24.8838ZM38.457 27.2744C37.7032 27.2869 36.9695 27.5215 36.3486 27.9492C35.7275 28.3771 35.247 28.9794 34.9668 29.6797C34.6866 30.38 34.6199 31.1475 34.7744 31.8857C34.929 32.6241 35.2982 33.301 35.8359 33.8301C36.3735 34.359 37.0554 34.7176 37.7959 34.8604C38.5366 35.0031 39.3032 34.9232 39.999 34.6318C40.6948 34.3404 41.2891 33.8497 41.707 33.2217C42.1244 32.5943 42.3471 31.8579 42.3477 31.1045L42.3418 30.9131C42.2846 29.9601 41.876 29.0595 41.1924 28.3867C40.4633 27.6692 39.4799 27.269 38.457 27.2744Z" fill="white" stroke="white" stroke-width="0.345905"/>
<path d="M28.5029 40.5156C32.623 38.4891 37.266 37.7753 41.8047 38.4697L42.2578 38.5439L42.3955 38.5674L42.4014 38.7061L42.498 40.9229L42.5078 41.1416L42.2939 41.1006C37.9588 40.281 33.4754 40.8974 29.5234 42.8545V46.4561C29.5234 46.7886 29.3914 47.1076 29.1562 47.3428C28.9211 47.5779 28.6021 47.71 28.2695 47.71C27.937 47.7099 27.618 47.5779 27.3828 47.3428C27.1477 47.1076 27.0157 46.7886 27.0156 46.4561V42.6064C27.0053 42.2258 27.0989 41.8496 27.2871 41.5186C27.4527 41.2273 27.6859 40.9804 27.9658 40.7988L28.0928 40.7227L28.5029 40.5156ZM37.3076 24.8838C38.5348 24.6447 39.8061 24.7734 40.96 25.2549C42.1136 25.7363 43.0988 26.5486 43.792 27.5889C44.4853 28.6293 44.8554 29.8523 44.8555 31.1025V31.1035C44.8437 32.7915 44.1637 34.4064 42.9639 35.5938C41.764 36.781 40.1421 37.4444 38.4541 37.4385H38.4531C37.2029 37.4253 35.9843 37.0421 34.9512 36.3379C33.9183 35.6338 33.1168 34.64 32.6475 33.4814C32.1782 32.3228 32.0617 31.0507 32.3135 29.8262C32.5654 28.6015 33.1748 27.4781 34.0635 26.5986C34.952 25.7195 36.0807 25.1229 37.3076 24.8838ZM38.457 27.2744C37.7031 27.2868 36.9696 27.5215 36.3486 27.9492C35.7274 28.3771 35.246 28.9793 34.9658 29.6797C34.6857 30.3799 34.6189 31.1475 34.7734 31.8857C34.9281 32.6241 35.2973 33.301 35.835 33.8301C36.3726 34.3592 37.0552 34.7176 37.7959 34.8604C38.5364 35.003 39.3024 34.9231 39.998 34.6318C40.6938 34.3404 41.2881 33.8497 41.7061 33.2217C42.1235 32.5943 42.3471 31.858 42.3477 31.1045L42.3408 30.9131C42.2836 29.9601 41.8751 29.0595 41.1914 28.3867C40.4625 27.6694 39.4796 27.2692 38.457 27.2744Z" fill="white" stroke="white" stroke-width="0.345905"/>
<path d="M45.8936 40.5654C46.2261 40.5655 46.5451 40.6975 46.7803 40.9326C47.0154 41.1678 47.1474 41.4868 47.1475 41.8193V43.2471H54.2188C54.5513 43.2471 54.8703 43.3791 55.1055 43.6143C55.3407 43.8495 55.4727 44.1683 55.4727 44.501V55.3135C55.4726 55.6461 55.3407 55.965 55.1055 56.2002C54.8703 56.4353 54.5513 56.5674 54.2188 56.5674H36.9189C36.5864 56.5673 36.2674 56.4354 36.0322 56.2002C35.7971 55.965 35.6651 55.6461 35.665 55.3135V44.501C35.665 44.1684 35.7971 43.8495 36.0322 43.6143C36.2674 43.3791 36.5864 43.2471 36.9189 43.2471H44.6396V41.8193C44.6397 41.4868 44.7717 41.1678 45.0068 40.9326C45.242 40.6975 45.561 40.5654 45.8936 40.5654ZM38.1729 54.0596H52.9648V45.7549H47.1475V46.0254C47.1475 46.358 47.0154 46.6769 46.7803 46.9121C46.5451 47.1473 46.2261 47.2793 45.8936 47.2793C45.5609 47.2793 45.242 47.1473 45.0068 46.9121C44.7716 46.6769 44.6396 46.358 44.6396 46.0254V45.7549H38.1729V54.0596Z" fill="white" stroke="white" stroke-width="0.345905"/>
<path d="M48.7373 49.1055V50.9648H41.9473V49.1055H48.7373ZM46.6514 32.6816C49.3647 32.8571 52.0111 33.6002 54.4189 34.8633V34.8643C54.7378 35.0327 55.0046 35.2848 55.1904 35.5938C55.3762 35.9028 55.4743 36.2566 55.4736 36.6172V39.9688C55.4736 40.3013 55.3416 40.6203 55.1064 40.8555C54.8713 41.0906 54.5523 41.2226 54.2197 41.2227C53.8871 41.2227 53.5682 41.0906 53.333 40.8555C53.0978 40.6203 52.9658 40.3014 52.9658 39.9688V36.9414C50.7485 35.8476 48.3193 35.249 45.8467 35.1895L45.5654 35.1826L45.6982 34.9346C46.055 34.2695 46.3152 33.5568 46.4707 32.8184L46.502 32.6719L46.6514 32.6816ZM45.3213 21.4375C46.8292 21.4318 48.278 22.0221 49.3516 23.0811C50.4254 24.1403 51.037 25.5816 51.0518 27.0898V27.0928C51.042 28.3468 50.6179 29.5626 49.8457 30.5508C49.0732 31.539 47.9951 32.2443 46.7803 32.5566L46.5254 32.6221L46.5664 32.3623C46.6336 31.9421 46.6695 31.5173 46.6729 31.0918L46.6689 30.8447C46.6613 30.5988 46.6415 30.3534 46.6094 30.1094L46.5928 29.9824L46.708 29.9297C47.2509 29.678 47.7113 29.277 48.0361 28.7744C48.3599 28.2733 48.5355 27.6912 48.543 27.0947L48.5312 26.877C48.4873 26.3706 48.3241 25.881 48.0537 25.4482C47.7446 24.9537 47.3074 24.5516 46.7881 24.2861C46.2689 24.0208 45.6872 23.9013 45.1055 23.9404C44.5236 23.9795 43.9634 24.1763 43.4844 24.5088L43.3838 24.5781L43.2852 24.5078C42.6647 24.0657 41.9871 23.7094 41.2715 23.4482L41.0195 23.3555L41.208 23.1641C41.7443 22.6173 42.3847 22.1824 43.0908 21.8857C43.7969 21.5892 44.5555 21.4367 45.3213 21.4365V21.4375ZM30.2373 31.0996L30.252 31.4453C30.2738 31.7909 30.3184 32.1347 30.3857 32.4746L30.4297 32.6982L30.4004 32.6953L30.4287 32.8291C30.5846 33.5686 30.848 34.2815 31.2109 34.9443L31.3555 35.209L31.0547 35.2002C28.2796 35.1221 25.5281 35.7211 23.0361 36.9424V39.9688C23.0361 40.3014 22.9042 40.6203 22.6689 40.8555C22.4337 41.0906 22.1148 41.2227 21.7822 41.2227C21.4497 41.2226 21.1307 41.0906 20.8955 40.8555C20.6604 40.6203 20.5283 40.3013 20.5283 39.9688V36.6162C20.5298 36.2576 20.6287 35.9063 20.8145 35.5996C21.0002 35.2928 21.2659 35.0425 21.583 34.875L21.584 34.874C24.2684 33.4894 27.2368 32.7429 30.2568 32.6924L30.333 32.6904L30.2021 32.6807C28.7916 32.5698 27.473 31.9372 26.5039 30.9062C25.5347 29.8752 24.9843 28.5193 24.9609 27.1045V27.0986C24.9827 25.9431 25.3544 24.8212 26.0264 23.8809C26.6985 22.9404 27.6401 22.2248 28.7266 21.8301C29.8131 21.4353 30.9941 21.3793 32.1133 21.6689C33.2323 21.9586 34.2375 22.5809 34.9961 23.4531L35.1455 23.625L34.9395 23.7227C34.294 24.0288 33.6891 24.4139 33.1377 24.8682L33.0176 24.9658L32.9072 24.8584C32.3024 24.2712 31.4914 23.9438 30.6484 23.9453H30.6406V23.9443C29.8315 23.9094 29.0397 24.1878 28.4307 24.7217C27.8215 25.2556 27.4424 26.0046 27.3711 26.8115C27.2999 27.6182 27.542 28.4213 28.0479 29.0537C28.5539 29.6862 29.285 30.0996 30.0879 30.207L30.2373 30.2266V31.0996Z" fill="white" stroke="white" stroke-width="0.345905"/>
</svg>
