<svg width="78" height="78" viewBox="0 0 78 78" fill="none" xmlns="http://www.w3.org/2000/svg">
<rect width="78" height="78" rx="17" fill="#D96A00"/>
<path d="M31.442 20.7656H47.8537C49.8596 20.7656 51.5008 22.4068 51.5008 24.4127V53.5891C51.5008 55.595 49.8596 57.2362 47.8537 57.2362H31.442C29.4361 57.2362 27.7949 55.595 27.7949 53.5891V49.9421H31.442V53.5891H47.8537V24.4127H31.442V28.0597H27.7949V24.4127C27.7949 22.4068 29.4361 20.7656 31.442 20.7656Z" fill="white"/>
<path d="M33.4288 45.5469L36 48.1181L45.1176 39.0005L36 29.8828L33.4288 32.454L38.1335 37.1769H20.5V40.824H38.1335L33.4288 45.5469Z" fill="white"/>
</svg>
