<svg width="55" height="55" viewBox="0 0 55 55" fill="none" xmlns="http://www.w3.org/2000/svg">
<rect width="55" height="55" rx="27.5" fill="#C7D4FF"/>
<path d="M33.7812 34.0088V35.1846H29.5068V34.0088H33.7812ZM24.9873 17.9424C25.9001 17.7608 26.8462 17.8538 27.7061 18.21C28.5659 18.5661 29.3013 19.1695 29.8184 19.9434C30.3353 20.7172 30.6113 21.627 30.6113 22.5576C30.6113 23.8057 30.1149 25.0023 29.2324 25.8848C28.3499 26.7673 27.1533 27.2637 25.9053 27.2637C24.9747 27.2637 24.0648 26.9877 23.291 26.4707C22.5171 25.9536 21.9138 25.2183 21.5576 24.3584C21.2015 23.4985 21.1085 22.5525 21.29 21.6396C21.4716 20.7268 21.92 19.8886 22.5781 19.2305C23.2363 18.5723 24.0745 18.124 24.9873 17.9424ZM25.9053 19.4727C25.2848 19.4727 24.678 19.6563 24.1621 20.001C23.6462 20.3457 23.2443 20.836 23.0068 21.4092C22.7694 21.9824 22.7071 22.6132 22.8281 23.2217C22.9492 23.8301 23.2479 24.3894 23.6865 24.8281C24.1252 25.2668 24.6845 25.5654 25.293 25.6865C25.9014 25.8075 26.5323 25.7461 27.1055 25.5088C27.6787 25.2713 28.1689 24.8685 28.5137 24.3525C28.8582 23.8368 29.0429 23.2306 29.043 22.6104C29.043 22.1984 28.9614 21.7898 28.8037 21.4092C28.6461 21.0287 28.4152 20.6828 28.124 20.3916C27.8327 20.1003 27.4861 19.8696 27.1055 19.7119C26.7249 19.5543 26.3172 19.4727 25.9053 19.4727ZM29.6768 29.4229L29.5146 29.3838C28.3328 29.0983 27.1211 28.9546 25.9053 28.9561H25.9043C23.7348 28.9468 21.5897 29.4136 19.6201 30.3232C19.4123 30.4194 19.2374 30.5743 19.1162 30.7686C18.9951 30.9628 18.9325 31.1881 18.9375 31.417V35.3096C18.9374 35.4124 18.9173 35.5143 18.8779 35.6094C18.8385 35.7045 18.7808 35.7915 18.708 35.8643C18.6353 35.9369 18.5491 35.9948 18.4541 36.0342C18.3589 36.0736 18.2563 36.0938 18.1533 36.0938C18.0505 36.0937 17.9485 36.0735 17.8535 36.0342C17.7584 35.9948 17.6715 35.9371 17.5986 35.8643C17.5258 35.7914 17.4681 35.7045 17.4287 35.6094C17.3894 35.5144 17.3692 35.4124 17.3691 35.3096V31.4199C17.3672 30.8929 17.5148 30.3761 17.7949 29.9297C18.0753 29.483 18.4773 29.1249 18.9531 28.8975L18.9561 28.8965C22.2805 27.3803 26.0096 26.9934 29.5742 27.7959L29.6768 27.8193V29.4229Z" fill="#182180" stroke="#182180" stroke-width="0.261437"/>
<path d="M31.7031 28.5117C31.911 28.5117 32.1108 28.5943 32.2578 28.7412C32.4048 28.8882 32.4872 29.088 32.4873 29.2959V31.8389C32.4872 32.0468 32.4048 32.2465 32.2578 32.3936C32.1107 32.5405 31.911 32.623 31.7031 32.623C31.4952 32.623 31.2955 32.5406 31.1484 32.3936C31.0014 32.2465 30.919 32.0468 30.9189 31.8389V31.6953H27.0625V36.9043H36.0625V31.6953H33.3379V30.126H36.8477C37.0553 30.1261 37.2544 30.2088 37.4014 30.3555C37.5484 30.5025 37.6317 30.7023 37.6318 30.9102V37.6885C37.6318 37.8964 37.5484 38.0961 37.4014 38.2432C37.2544 38.3899 37.0553 38.4725 36.8477 38.4727H26.2783C26.0704 38.4726 25.8707 38.3902 25.7236 38.2432C25.5766 38.0961 25.4942 37.8964 25.4941 37.6885V30.9102C25.4942 30.7023 25.5766 30.5025 25.7236 30.3555C25.8706 30.2085 26.0704 30.126 26.2783 30.126H30.9189V29.2959C30.919 29.088 31.0014 28.8882 31.1484 28.7412C31.2955 28.5942 31.4952 28.5118 31.7031 28.5117Z" fill="#182180" stroke="#182180" stroke-width="0.261437"/>
</svg>
