<svg width="55" height="55" viewBox="0 0 55 55" fill="none" xmlns="http://www.w3.org/2000/svg">
<rect width="55" height="55" rx="27.5" fill="#C7D4FF"/>
<path d="M38.5007 35.1737C38.5007 36.1885 38.0976 37.1617 37.38 37.8792C36.6625 38.5967 35.6893 38.9998 34.6746 38.9998H32.7615V37.0868H34.6746C35.182 37.0868 35.6686 36.8852 36.0273 36.5265C36.3861 36.1677 36.5876 35.6811 36.5876 35.1737C36.5876 34.6664 36.3861 34.1798 36.0273 33.821C35.6686 33.4623 35.182 33.2607 34.6746 33.2607H32.7615V31.3477H34.6746C35.6893 31.3477 36.6625 31.7508 37.38 32.4683C38.0976 33.1858 38.5007 34.159 38.5007 35.1737ZM25.1094 35.1737C25.1094 34.159 25.5125 33.1858 26.23 32.4683C26.9475 31.7508 27.9207 31.3477 28.9355 31.3477H30.8485V33.2607H28.9355C28.4281 33.2607 27.9415 33.4623 27.5827 33.821C27.224 34.1798 27.0224 34.6664 27.0224 35.1737C27.0224 35.6811 27.224 36.1677 27.5827 36.5265C27.9415 36.8852 28.4281 37.0868 28.9355 37.0868H30.8485V38.9998H28.9355C27.9207 38.9998 26.9475 38.5967 26.23 37.8792C25.5125 37.1617 25.1094 36.1885 25.1094 35.1737Z" fill="#182180"/>
<path d="M29.8909 34.218H33.717V36.131H29.8909V34.218ZM25.1083 21.7832C24.5407 21.7832 23.9859 21.9515 23.514 22.2668C23.0421 22.5821 22.6743 23.0303 22.4571 23.5546C22.2399 24.079 22.1831 24.656 22.2938 25.2126C22.4046 25.7692 22.6779 26.2805 23.0792 26.6819C23.4805 27.0832 23.9918 27.3565 24.5484 27.4672C25.1051 27.5779 25.6821 27.5211 26.2064 27.3039C26.7308 27.0867 27.1789 26.7189 27.4942 26.247C27.8095 25.7751 27.9778 25.2203 27.9778 24.6528C27.9753 23.8925 27.6722 23.1641 27.1346 22.6265C26.597 22.0889 25.8686 21.7857 25.1083 21.7832ZM25.1083 25.6093C24.9191 25.6093 24.7342 25.5532 24.5769 25.4481C24.4196 25.343 24.297 25.1936 24.2246 25.0188C24.1522 24.844 24.1332 24.6517 24.1701 24.4662C24.207 24.2806 24.2981 24.1102 24.4319 23.9764C24.5657 23.8426 24.7361 23.7515 24.9217 23.7146C25.1072 23.6777 25.2995 23.6967 25.4743 23.7691C25.6491 23.8415 25.7985 23.9641 25.9036 24.1214C26.0087 24.2787 26.0648 24.4636 26.0648 24.6528C26.064 24.9062 25.963 25.1491 25.7838 25.3283C25.6046 25.5075 25.3617 25.6085 25.1083 25.6093ZM21.5787 31.3484C22.6317 30.6679 23.8547 30.2967 25.1083 30.2771C25.3574 30.2813 25.606 30.3018 25.8524 30.3383C26.7722 29.7487 27.8418 29.4353 28.9344 29.4354H29.1773C27.924 28.7648 26.5295 28.4009 25.1083 28.3736C23.1665 28.3736 19.3691 29.3971 19.3691 31.798V33.2615H23.5291C23.7794 32.5558 24.1654 31.9059 24.6654 31.3484H21.5787Z" fill="#182180"/>
<path d="M31.8043 18.9132H27.8061C27.6102 18.3541 27.2454 17.8696 26.7622 17.5269C26.279 17.1841 25.7012 17 25.1087 17C24.5162 17 23.9384 17.1841 23.4552 17.5269C22.9719 17.8696 22.6072 18.3541 22.4113 18.9132H18.413C17.9061 18.9148 17.4204 19.1168 17.062 19.4752C16.7036 19.8337 16.5015 20.3194 16.5 20.8263V34.2176C16.5015 34.7245 16.7036 35.2102 17.062 35.5686C17.4204 35.9271 17.9061 36.1291 18.413 36.1306H23.3305C23.1498 35.5057 23.1498 34.8425 23.3305 34.2176H18.413V20.8263H31.8043V29.435H33.7174V20.8263C33.7159 20.3194 33.5138 19.8337 33.1554 19.4752C32.797 19.1168 32.3113 18.9148 31.8043 18.9132ZM25.1087 20.1089C24.9189 20.1074 24.7373 20.0313 24.6031 19.8971C24.4689 19.7629 24.3928 19.5813 24.3913 19.3915C24.3913 19.2012 24.4669 19.0188 24.6014 18.8842C24.736 18.7497 24.9184 18.6741 25.1087 18.6741C25.299 18.6741 25.4814 18.7497 25.616 18.8842C25.7505 19.0188 25.8261 19.2012 25.8261 19.3915C25.8246 19.5813 25.7485 19.7629 25.6143 19.8971C25.4801 20.0313 25.2985 20.1074 25.1087 20.1089Z" fill="#182180"/>
</svg>
