<svg width="55" height="55" viewBox="0 0 55 55" fill="none" xmlns="http://www.w3.org/2000/svg">
<rect width="55" height="55" rx="27.5" fill="#C7D4FF"/>
<path d="M25.6299 30.5439C26.2153 30.5439 26.7765 30.7765 27.1904 31.1904C27.6043 31.6043 27.8369 32.1656 27.8369 32.751V34.2559H26.2324V32.751C26.2324 32.5912 26.1686 32.4382 26.0557 32.3252C25.9427 32.2122 25.7896 32.1484 25.6299 32.1484H21.416C21.2563 32.1484 21.1032 32.2123 20.9902 32.3252C20.8773 32.4382 20.8135 32.5912 20.8135 32.751V34.2559H19.209V32.751C19.209 32.1656 19.4415 31.6043 19.8555 31.1904C20.2694 30.7766 20.8307 30.5439 21.416 30.5439H25.6299ZM22.4092 24.4434C22.9408 24.2231 23.5264 24.1661 24.0908 24.2783C24.655 24.3906 25.1733 24.6675 25.5801 25.0742C25.987 25.4811 26.2647 26.0001 26.377 26.5645C26.4891 27.1287 26.4311 27.7136 26.2109 28.2451C25.9908 28.7766 25.618 29.2311 25.1396 29.5508C24.6612 29.8705 24.0979 30.041 23.5225 30.041C22.7511 30.0409 22.0113 29.7348 21.4658 29.1895C20.9202 28.6438 20.6133 27.9035 20.6133 27.1318C20.6133 26.5565 20.7839 25.994 21.1035 25.5156C21.4232 25.0372 21.8776 24.6636 22.4092 24.4434ZM23.5225 25.8271C23.1767 25.8273 22.8452 25.9646 22.6006 26.209C22.3559 26.4537 22.2178 26.7858 22.2178 27.1318C22.2178 27.3899 22.2951 27.6419 22.4385 27.8564C22.5818 28.0709 22.7851 28.2382 23.0234 28.3369C23.2618 28.4357 23.5242 28.4615 23.7773 28.4111C24.0303 28.3608 24.2629 28.237 24.4453 28.0547C24.6277 27.8723 24.7523 27.6397 24.8027 27.3867C24.8531 27.1337 24.8272 26.8711 24.7285 26.6328C24.6298 26.3945 24.4625 26.1902 24.248 26.0469C24.0335 25.9035 23.7805 25.8271 23.5225 25.8271Z" fill="#182180" stroke="#182180" stroke-width="0.2"/>
<path d="M26.4336 20.709V22.3135H18.0049V36.1611H34.6621V29.8398H36.2666V36.2607C36.2666 36.6598 36.1084 37.043 35.8262 37.3252C35.544 37.6074 35.1608 37.7656 34.7617 37.7656H17.9043C17.5054 37.7655 17.1229 37.6072 16.8408 37.3252C16.5586 37.043 16.4004 36.6598 16.4004 36.2607V22.2129C16.4005 21.814 16.5587 21.4315 16.8408 21.1494C17.1229 20.8673 17.5054 20.7091 17.9043 20.709H26.4336Z" fill="#182180" stroke="#182180" stroke-width="0.2"/>
<path d="M33.457 32.6504V34.2549H30.4482V32.6504H33.457ZM33.457 29.8408V31.4453H29.043V29.8408H33.457ZM33.457 17.9004V19.3955C33.8529 19.4869 34.2298 19.6453 34.5732 19.8623L35.5645 18.873L35.6348 18.8018L36.7695 19.9365L36.6992 20.0068L35.708 20.9971C35.9254 21.3407 36.0832 21.718 36.1748 22.1143H37.6719V23.7188H36.1748C36.0833 24.1147 35.9252 24.4915 35.708 24.835L36.7695 25.8965L36.6992 25.9678L35.7061 26.9609L35.6348 27.0312L34.5732 25.9697C34.2297 26.1869 33.853 26.345 33.457 26.4365V27.9336H31.8525V26.4365C31.4563 26.345 31.079 26.1871 30.7354 25.9697L29.7451 26.9609L29.6748 27.0312L28.54 25.8965L28.6113 25.8262L29.6006 24.835C29.3836 24.4916 29.2262 24.1145 29.1348 23.7188H27.6387V22.1143H29.1348C29.2263 21.7182 29.3833 21.3406 29.6006 20.9971L28.6113 20.0068L28.54 19.9365L28.6113 19.8662L29.6045 18.873L29.6748 18.8018L29.7451 18.873L30.7354 19.8623C31.0789 19.645 31.4565 19.487 31.8525 19.3955V17.9004H33.457ZM33.4229 21.0625C33.0562 20.9107 32.6529 20.8709 32.2637 20.9482C31.8743 21.0257 31.5161 21.2164 31.2354 21.4971C30.9546 21.7778 30.764 22.136 30.6865 22.5254C30.6092 22.9146 30.6489 23.3179 30.8008 23.6846C30.9527 24.0513 31.21 24.3654 31.54 24.5859C31.87 24.8063 32.2584 24.9238 32.6553 24.9238C33.1873 24.9232 33.697 24.7112 34.0732 24.335C34.4495 23.9587 34.6615 23.449 34.6621 22.917C34.6621 22.5201 34.5446 22.1318 34.3242 21.8018C34.1037 21.4717 33.7896 21.2144 33.4229 21.0625Z" fill="#182180" stroke="#182180" stroke-width="0.2"/>
</svg>
