<svg width="300" height="300" viewBox="0 0 300 300" fill="none" xmlns="http://www.w3.org/2000/svg">
<rect x="0.5" y="0.5" width="299" height="299" rx="149.5" fill="white"/>
<rect x="0.5" y="0.5" width="299" height="299" rx="149.5" stroke="#C7D4FF"/>
<rect x="70" y="70" width="160" height="160" rx="37.6229" fill="#EF4444"/>
<path fill-rule="evenodd" clip-rule="evenodd" d="M132.419 128.054C138.284 126.29 153.414 123.82 167.018 128.054C168.118 138.257 166.246 161.154 149.962 171.117C143.091 167.213 129.965 153.135 132.419 128.054ZM149.936 135.598C147.055 135.598 144.719 137.934 144.719 140.815C144.719 142.741 145.764 144.424 147.318 145.327L145.972 156.72H153.9L152.478 145.371C154.074 144.479 155.153 142.773 155.153 140.815C155.153 137.934 152.817 135.598 149.936 135.598Z" fill="white"/>
<path d="M158.533 186.133C159.363 185.571 160.492 185.788 161.054 186.618C161.617 187.448 161.399 188.577 160.569 189.14C157.667 191.106 155.349 192.463 153.616 193.363C151.928 194.24 150.696 194.737 149.992 194.902L149.314 195.061L148.704 194.726C147.134 193.864 144.759 192.553 142.739 191.424C141.73 190.86 140.804 190.338 140.111 189.939C139.765 189.741 139.469 189.568 139.246 189.433C139.135 189.367 139.032 189.303 138.946 189.248C138.913 189.226 138.73 189.111 138.574 188.967C137.839 188.285 137.797 187.136 138.479 186.401C139.123 185.707 140.183 185.631 140.918 186.199L140.953 186.221C140.993 186.246 141.048 186.28 141.12 186.323C141.311 186.439 141.582 186.597 141.921 186.792C142.595 187.179 143.506 187.693 144.511 188.255C146.242 189.222 148.238 190.325 149.759 191.162C150.227 190.977 150.949 190.657 151.942 190.141C153.532 189.315 155.728 188.033 158.533 186.133Z" fill="white"/>
<path d="M167.388 168.171C167.956 167.345 169.087 167.135 169.913 167.703C170.739 168.271 170.949 169.401 170.381 170.228C163.983 179.538 154.531 185.225 150.497 186.953L149.751 187.272L149.015 186.929C139.54 182.512 132.016 173.986 129.397 170.239C128.823 169.418 129.023 168.286 129.845 167.711C130.667 167.137 131.799 167.337 132.373 168.159C134.714 171.508 141.457 179.132 149.806 183.28C153.743 181.402 161.845 176.237 167.388 168.171Z" fill="white"/>
<path d="M114.191 148.839C115.168 148.615 116.142 149.226 116.366 150.203C117.139 153.582 119.056 159.31 122.271 165.313C125.488 171.32 129.944 177.486 135.739 181.866C136.539 182.471 136.697 183.61 136.092 184.41C135.488 185.21 134.349 185.368 133.549 184.763C127.193 179.958 122.434 173.308 119.07 167.027C115.704 160.743 113.672 154.71 112.826 151.014C112.602 150.036 113.213 149.063 114.191 148.839Z" fill="white"/>
<path d="M183.455 150.203C183.679 149.226 184.653 148.615 185.63 148.839C186.608 149.063 187.219 150.036 186.995 151.014C186.149 154.71 184.117 160.743 180.751 167.027C177.387 173.308 172.628 179.958 166.272 184.763C165.472 185.368 164.333 185.21 163.728 184.41C163.124 183.61 163.282 182.471 164.082 181.866C169.877 177.486 174.333 171.32 177.55 165.313C180.765 159.31 182.682 153.582 183.455 150.203Z" fill="white"/>
<path d="M127.326 140.798C128.323 140.697 129.214 141.423 129.316 142.421C130.061 149.74 135.269 166.411 149.859 175.323C156.563 171.168 168.824 159.593 170.246 142.455C170.329 141.455 171.206 140.712 172.206 140.795C173.205 140.878 173.948 141.755 173.865 142.755C172.243 162.303 157.812 175.039 150.75 179.015L149.851 179.522L148.956 179.008C132.281 169.443 126.529 150.902 125.703 142.788C125.602 141.791 126.328 140.9 127.326 140.798Z" fill="white"/>
<path d="M119.917 117.475C124.958 115.41 138.009 111.401 150.206 111.843C162.29 112.281 174.95 115.75 179.812 117.44L181.031 117.864V140.266L181.031 140.281C180.968 144.259 179.742 154.203 175.276 162.752C174.812 163.641 173.715 163.985 172.826 163.521C171.937 163.056 171.593 161.959 172.057 161.071C176.179 153.181 177.341 143.852 177.4 140.236V120.464C172.062 118.749 160.779 115.86 150.075 115.472C139.396 115.085 127.837 118.358 122.421 120.394V140.227C122.682 150.305 126.36 158.313 128.059 160.92C128.606 161.76 128.369 162.885 127.529 163.432C126.689 163.98 125.564 163.743 125.017 162.903C122.984 159.783 119.066 151.118 118.79 140.298L118.79 140.275V117.937L119.917 117.475Z" fill="white"/>
<path d="M137.517 105.616C138.512 105.494 139.418 106.201 139.54 107.197C139.663 108.192 138.955 109.098 137.96 109.22C128.718 110.355 119.666 113.66 115.44 115.536V143.321C115.44 144.323 114.627 145.136 113.624 145.136C112.621 145.136 111.809 144.323 111.809 143.321V113.23L112.839 112.736C116.696 110.887 126.938 106.915 137.517 105.616Z" fill="white"/>
<path d="M160.46 107.197C160.582 106.201 161.488 105.494 162.483 105.616C173.061 106.915 183.304 110.887 187.161 112.736L188.191 113.23V143.321C188.191 144.323 187.378 145.136 186.376 145.136C185.373 145.136 184.56 144.323 184.56 143.321V115.536C180.334 113.66 171.282 110.355 162.04 109.22C161.045 109.098 160.337 108.192 160.46 107.197Z" fill="white"/>
<path d="M142.943 119.086C143.942 118.995 144.825 119.731 144.916 120.729C145.008 121.728 144.272 122.611 143.274 122.702C138.689 123.121 132.654 124.344 129.223 125.327V134.626C129.223 135.629 128.41 136.442 127.407 136.442C126.405 136.442 125.592 135.629 125.592 134.626V122.686L126.825 122.269C130.152 121.142 137.506 119.583 142.943 119.086Z" fill="white"/>
<path d="M154.828 120.729C154.919 119.731 155.802 118.995 156.801 119.086C162.238 119.583 169.592 121.142 172.919 122.269L174.152 122.686V134.626C174.152 135.629 173.34 136.442 172.337 136.442C171.334 136.442 170.521 135.629 170.521 134.626V125.327C167.09 124.344 161.055 123.121 156.471 122.702C155.472 122.611 154.737 121.728 154.828 120.729Z" fill="white"/>
<path d="M154.386 104.938C155.388 104.938 156.201 105.75 156.201 106.753C156.201 107.756 155.388 108.569 154.386 108.569H145.282C144.279 108.569 143.466 107.756 143.466 106.753C143.466 105.75 144.279 104.938 145.282 104.938H154.386Z" fill="white"/>
</svg>
