<svg width="78" height="78" viewBox="0 0 78 78" fill="none" xmlns="http://www.w3.org/2000/svg">
<rect width="78" height="78" rx="17" fill="#FF6767"/>
<path d="M44.625 24C42.6359 24 40.7282 24.7902 39.3217 26.1967C37.9152 27.6032 37.125 29.5109 37.125 31.5C37.125 33.4891 37.9152 35.3968 39.3217 36.8033C40.7282 38.2098 42.6359 39 44.625 39C46.6141 39 48.5218 38.2098 49.9283 36.8033C51.3348 35.3968 52.125 33.4891 52.125 31.5C52.125 29.5109 51.3348 27.6032 49.9283 26.1967C48.5218 24.7902 46.6141 24 44.625 24ZM44.625 27.5625C45.1421 27.5625 45.6541 27.6643 46.1318 27.8622C46.6095 28.0601 47.0436 28.3501 47.4092 28.7158C47.7749 29.0814 48.0649 29.5155 48.2628 29.9932C48.4607 30.4709 48.5625 30.9829 48.5625 31.5C48.5625 32.0171 48.4607 32.5291 48.2628 33.0068C48.0649 33.4845 47.7749 33.9186 47.4092 34.2842C47.0436 34.6499 46.6095 34.9399 46.1318 35.1378C45.6541 35.3357 45.1421 35.4375 44.625 35.4375C44.1079 35.4375 43.5959 35.3357 43.1182 35.1378C42.6405 34.9399 42.2064 34.6499 41.8408 34.2842C41.4751 33.9186 41.1851 33.4845 40.9872 33.0068C40.7893 32.5291 40.6875 32.0171 40.6875 31.5C40.6875 30.4557 41.1023 29.4542 41.8408 28.7158C42.5792 27.9773 43.5807 27.5625 44.625 27.5625ZM24 29.625V35.25H18.375V39H24V44.625H27.75V39H33.375V35.25H27.75V29.625H24ZM44.625 40.875C39.6187 40.875 29.625 43.3687 29.625 48.375V54H59.625V48.375C59.625 43.3687 49.6313 40.875 44.625 40.875ZM44.625 44.4375C50.1938 44.4375 56.0625 47.175 56.0625 48.375V50.4375H33.1875V48.375C33.1875 47.175 39 44.4375 44.625 44.4375Z" fill="white"/>
</svg>
