<svg width="78" height="78" viewBox="0 0 78 78" fill="none" xmlns="http://www.w3.org/2000/svg">
<rect width="78" height="78" rx="17" fill="#E03636"/>
<path d="M48.8486 38.6544V29.3645C48.8487 29.2472 48.8256 29.131 48.7807 29.0226C48.7359 28.9143 48.67 28.8158 48.587 28.7329L43.9086 24.0545C43.7416 23.8873 43.5149 23.7932 43.2785 23.793H25.962C25.7255 23.793 25.4987 23.8869 25.3315 24.0541C25.1643 24.2214 25.0703 24.4482 25.0703 24.6847V52.6241C25.0703 52.8606 25.1643 53.0874 25.3315 53.2546C25.4987 53.4219 25.7255 53.5158 25.962 53.5158H38.4456M31.0149 35.6821H42.904M31.0149 29.7375H36.9594M31.0149 41.6267H35.4733" stroke="white" stroke-width="2.90316" stroke-linecap="round" stroke-linejoin="round"/>
<path d="M42.9043 23.793V28.8459C42.9043 29.0823 42.9982 29.3091 43.1655 29.4764C43.3327 29.6436 43.5595 29.7375 43.796 29.7375H48.8489M48.837 43.2986L52.6356 44.2631C53.0309 44.3641 53.3088 44.7238 53.2969 45.131C53.0413 53.6882 48.1058 55.002 48.1058 55.002C48.1058 55.002 43.1703 53.6882 42.9147 45.131C42.9106 44.9329 42.9738 44.7392 43.0939 44.5816C43.214 44.424 43.3839 44.3117 43.576 44.2631L47.3746 43.2986C47.8546 43.1767 48.357 43.1767 48.837 43.2986Z" stroke="white" stroke-width="2.90316" stroke-linecap="round" stroke-linejoin="round"/>
</svg>
