<svg width="78" height="78" viewBox="0 0 78 78" fill="none" xmlns="http://www.w3.org/2000/svg">
<rect width="78" height="78" rx="17" fill="#5F84FF"/>
<path d="M51.465 47.6676H47.9985C47.5075 47.6676 47.0961 47.5013 46.7645 47.1685C46.4328 46.8357 46.2665 46.4243 46.2653 45.9344C46.2641 45.4445 46.4305 45.0331 46.7645 44.7003C47.0984 44.3676 47.5098 44.2012 47.9985 44.2012H51.465V40.7347C51.465 40.2436 51.6314 39.8323 51.9642 39.5006C52.297 39.169 52.7083 39.0026 53.1982 39.0015C53.6882 39.0003 54.1001 39.1667 54.434 39.5006C54.768 39.8346 54.9338 40.2459 54.9315 40.7347V44.2012H58.3979C58.889 44.2012 59.301 44.3676 59.6337 44.7003C59.9665 45.0331 60.1323 45.4445 60.1312 45.9344C60.13 46.4243 59.9636 46.8363 59.632 47.1702C59.3004 47.5041 58.889 47.67 58.3979 47.6676H54.9315V51.1341C54.9315 51.6252 54.7651 52.0371 54.4323 52.3699C54.0995 52.7027 53.6882 52.8685 53.1982 52.8674C52.7083 52.8662 52.297 52.6998 51.9642 52.3682C51.6314 52.0366 51.465 51.6252 51.465 51.1341V47.6676ZM25.4665 54.6006C24.5132 54.6006 23.6974 54.2614 23.0191 53.5832C22.3409 52.9049 22.0012 52.0886 22 51.1341V26.8688C22 25.9155 22.3397 25.0998 23.0191 24.4215C23.6986 23.7432 24.5143 23.4035 25.4665 23.4023H49.7318C50.6851 23.4023 51.5014 23.7421 52.1808 24.4215C52.8603 25.1009 53.1994 25.9167 53.1982 26.8688V33.8018C53.1982 34.2928 53.0319 34.7048 52.6991 35.0376C52.3663 35.3703 51.9549 35.5361 51.465 35.535C50.9751 35.5338 50.5637 35.3674 50.2309 35.0358C49.8982 34.7042 49.7318 34.2928 49.7318 33.8018V32.0685H25.4665V51.1341H46.2653C46.7564 51.1341 47.1683 51.3005 47.5011 51.6333C47.8339 51.9661 47.9997 52.3774 47.9985 52.8674C47.9974 53.3573 47.831 53.7692 47.4994 54.1031C47.1677 54.4371 46.7564 54.6029 46.2653 54.6006H25.4665Z" fill="white"/>
</svg>
