<svg width="78" height="78" viewBox="0 0 78 78" fill="none" xmlns="http://www.w3.org/2000/svg">
<rect width="78" height="78" rx="17" fill="#061457"/>
<path d="M27 20.5C27 20.1022 26.842 19.7206 26.5607 19.4393C26.2794 19.158 25.8978 19 25.5 19C25.1022 19 24.7206 19.158 24.4393 19.4393C24.158 19.7206 24 20.1022 24 20.5V24H20.5C20.1022 24 19.7206 24.158 19.4393 24.4393C19.158 24.7206 19 25.1022 19 25.5C19 25.8978 19.158 26.2794 19.4393 26.5607C19.7206 26.842 20.1022 27 20.5 27H25.5C25.8978 27 26.2794 26.842 26.5607 26.5607C26.842 26.2794 27 25.8978 27 25.5V20.5ZM54 20.5C54 20.1022 53.842 19.7206 53.5607 19.4393C53.2794 19.158 52.8978 19 52.5 19C52.1022 19 51.7206 19.158 51.4393 19.4393C51.158 19.7206 51 20.1022 51 20.5V25.5C51 26.328 51.672 27 52.5 27H57.5C57.8978 27 58.2794 26.842 58.5607 26.5607C58.842 26.2794 59 25.8978 59 25.5C59 25.1022 58.842 24.7206 58.5607 24.4393C58.2794 24.158 57.8978 24 57.5 24H54V20.5ZM32 27C31.2044 27 30.4413 27.3161 29.8787 27.8787C29.3161 28.4413 29 29.2044 29 30V48C29 48.7956 29.3161 49.5587 29.8787 50.1213C30.4413 50.6839 31.2044 51 32 51H46C46.7956 51 47.5587 50.6839 48.1213 50.1213C48.6839 49.5587 49 48.7956 49 48V30C49 29.2044 48.6839 28.4413 48.1213 27.8787C47.5587 27.3161 46.7956 27 46 27H32ZM32 30H46V48H32V30ZM25.5 59C25.8978 59 26.2794 58.842 26.5607 58.5607C26.842 58.2794 27 57.8978 27 57.5V52.5C27 52.1022 26.842 51.7206 26.5607 51.4393C26.2794 51.158 25.8978 51 25.5 51H20.5C20.1022 51 19.7206 51.158 19.4393 51.4393C19.158 51.7206 19 52.1022 19 52.5C19 52.8978 19.158 53.2794 19.4393 53.5607C19.7206 53.842 20.1022 54 20.5 54H24V57.5C24 58.328 24.672 59 25.5 59ZM52.5 59C52.8978 59 53.2794 58.842 53.5607 58.5607C53.842 58.2794 54 57.8978 54 57.5V54H57.5C57.8978 54 58.2794 53.842 58.5607 53.5607C58.842 53.2794 59 52.8978 59 52.5C59 52.1022 58.842 51.7206 58.5607 51.4393C58.2794 51.158 57.8978 51 57.5 51H52.5C52.1022 51 51.7206 51.158 51.4393 51.4393C51.158 51.7206 51 52.1022 51 52.5V57.5C51 58.328 51.672 59 52.5 59ZM35.5 34C35.1022 34 34.7206 34.158 34.4393 34.4393C34.158 34.7206 34 35.1022 34 35.5C34 35.8978 34.158 36.2794 34.4393 36.5607C34.7206 36.842 35.1022 37 35.5 37H42.5C42.8978 37 43.2794 36.842 43.5607 36.5607C43.842 36.2794 44 35.8978 44 35.5C44 35.1022 43.842 34.7206 43.5607 34.4393C43.2794 34.158 42.8978 34 42.5 34H35.5ZM35.5 40C35.1022 40 34.7206 40.158 34.4393 40.4393C34.158 40.7206 34 41.1022 34 41.5C34 41.8978 34.158 42.2794 34.4393 42.5607C34.7206 42.842 35.1022 43 35.5 43H39.5C39.8978 43 40.2794 42.842 40.5607 42.5607C40.842 42.2794 41 41.8978 41 41.5C41 41.1022 40.842 40.7206 40.5607 40.4393C40.2794 40.158 39.8978 40 39.5 40H35.5Z" fill="white"/>
<path d="M30.5625 27.1875C30.7863 27.1875 31.0009 27.2764 31.1591 27.4346C31.3174 27.5929 31.4062 27.8075 31.4062 28.0312V30.5625C31.4062 30.7863 31.3174 31.0009 31.1591 31.1591C31.0009 31.3174 30.7863 31.4062 30.5625 31.4062H28.0312C27.8075 31.4062 27.5929 31.3174 27.4346 31.1591C27.2764 31.0009 27.1875 30.7863 27.1875 30.5625C27.1875 30.3387 27.2764 30.1241 27.4346 29.9659C27.5929 29.8076 27.8075 29.7188 28.0312 29.7188H29.7188V28.0312C29.7188 27.8075 29.8076 27.5929 29.9659 27.4346C30.1241 27.2764 30.3387 27.1875 30.5625 27.1875ZM47.4375 27.1875C47.6613 27.1875 47.8759 27.2764 48.0341 27.4346C48.1924 27.5929 48.2812 27.8075 48.2812 28.0312V29.7188H49.9688C50.1925 29.7188 50.4071 29.8076 50.5654 29.9659C50.7236 30.1241 50.8125 30.3387 50.8125 30.5625C50.8125 30.7863 50.7236 31.0009 50.5654 31.1591C50.4071 31.3174 50.1925 31.4062 49.9688 31.4062H47.4375C47.2137 31.4062 46.9991 31.3174 46.8409 31.1591C46.6826 31.0009 46.5938 30.7863 46.5938 30.5625V28.0312C46.5938 27.8075 46.6826 27.5929 46.8409 27.4346C46.9991 27.2764 47.2137 27.1875 47.4375 27.1875ZM34.7812 31.4062C34.3337 31.4062 33.9045 31.584 33.588 31.9005C33.2715 32.217 33.0938 32.6462 33.0938 33.0938V44.9062C33.0938 45.3538 33.2715 45.783 33.588 46.0995C33.9045 46.416 34.3337 46.5938 34.7812 46.5938H43.2188C43.6663 46.5938 44.0955 46.416 44.412 46.0995C44.7285 45.783 44.9062 45.3538 44.9062 44.9062V33.0938C44.9062 32.6462 44.7285 32.217 44.412 31.9005C44.0955 31.584 43.6663 31.4062 43.2188 31.4062H34.7812ZM34.7812 33.0938H43.2188V44.9062H34.7812V33.0938ZM36.8906 35.625C36.6668 35.625 36.4522 35.7139 36.294 35.8721C36.1358 36.0304 36.0469 36.245 36.0469 36.4688C36.0469 36.6925 36.1358 36.9071 36.294 37.0654C36.4522 37.2236 36.6668 37.3125 36.8906 37.3125H41.1094C41.3332 37.3125 41.5478 37.2236 41.706 37.0654C41.8642 36.9071 41.9531 36.6925 41.9531 36.4688C41.9531 36.245 41.8642 36.0304 41.706 35.8721C41.5478 35.7139 41.3332 35.625 41.1094 35.625H36.8906ZM36.8906 39C36.6668 39 36.4522 39.0889 36.294 39.2471C36.1358 39.4054 36.0469 39.62 36.0469 39.8438C36.0469 40.0675 36.1358 40.2821 36.294 40.4404C36.4522 40.5986 36.6668 40.6875 36.8906 40.6875H39.4219C39.6457 40.6875 39.8603 40.5986 40.0185 40.4404C40.1767 40.2821 40.2656 40.0675 40.2656 39.8438C40.2656 39.62 40.1767 39.4054 40.0185 39.2471C39.8603 39.0889 39.6457 39 39.4219 39H36.8906ZM31.4062 49.9688C31.4062 50.1925 31.3174 50.4071 31.1591 50.5654C31.0009 50.7236 30.7863 50.8125 30.5625 50.8125C30.3387 50.8125 30.1241 50.7236 29.9659 50.5654C29.8076 50.4071 29.7188 50.1925 29.7188 49.9688V48.2812H28.0312C27.8075 48.2812 27.5929 48.1924 27.4346 48.0341C27.2764 47.8759 27.1875 47.6613 27.1875 47.4375C27.1875 47.2137 27.2764 46.9991 27.4346 46.8409C27.5929 46.6826 27.8075 46.5938 28.0312 46.5938H30.5625C30.7863 46.5938 31.0009 46.6826 31.1591 46.8409C31.3174 46.9991 31.4062 47.2137 31.4062 47.4375V49.9688ZM48.2812 49.9688C48.2812 50.1925 48.1924 50.4071 48.0341 50.5654C47.8759 50.7236 47.6613 50.8125 47.4375 50.8125C47.2137 50.8125 46.9991 50.7236 46.8409 50.5654C46.6826 50.4071 46.5938 50.1925 46.5938 49.9688V47.4375C46.5938 47.2137 46.6826 46.9991 46.8409 46.8409C46.9991 46.6826 47.2137 46.5938 47.4375 46.5938H49.9688C50.1925 46.5938 50.4071 46.6826 50.5654 46.8409C50.7236 46.9991 50.8125 47.2137 50.8125 47.4375C50.8125 47.6613 50.7236 47.8759 50.5654 48.0341C50.4071 48.1924 50.1925 48.2812 49.9688 48.2812H48.2812V49.9688Z" fill="black"/>
</svg>
