<svg width="78" height="78" viewBox="0 0 78 78" fill="none" xmlns="http://www.w3.org/2000/svg">
<rect width="78" height="78" rx="17" fill="#2E54E6"/>
<path d="M57.399 32.512C57.1654 32.513 56.9346 32.4605 56.7244 32.3587L38.999 23.312L21.2737 32.2973C20.8955 32.4763 20.4617 32.4976 20.0678 32.3567C19.6738 32.2158 19.352 31.9242 19.173 31.546C18.9941 31.1678 18.9727 30.734 19.1136 30.3401C19.2545 29.9461 19.5462 29.6243 19.9244 29.4453L38.999 20L58.0737 29.4453C58.4758 29.5393 58.8247 29.7878 59.0448 30.1371C59.265 30.4864 59.3387 30.9084 59.25 31.3117C59.1612 31.7149 58.9173 32.067 58.5708 32.2917C58.2244 32.5163 57.8034 32.5955 57.399 32.512ZM31.3324 47.8453H22.1324V57.0453H31.3324V47.8453ZM43.599 47.8453H34.399V57.0453H43.599V47.8453ZM55.8657 47.8453H46.6657V57.0453H55.8657V47.8453ZM49.7324 35.5787H40.5324V44.7787H49.7324V35.5787ZM37.4657 35.5787H28.2657V44.7787H37.4657V35.5787Z" fill="white"/>
</svg>
