<svg width="300" height="300" viewBox="0 0 300 300" fill="none" xmlns="http://www.w3.org/2000/svg">
<rect x="0.5" y="0.5" width="299" height="299" rx="149.5" fill="white"/>
<rect x="0.5" y="0.5" width="299" height="299" rx="149.5" stroke="#C7D4FF"/>
<rect x="70" y="70" width="160" height="160" rx="37.6229" fill="#5F84FF"/>
<path fill-rule="evenodd" clip-rule="evenodd" d="M144.853 105.737C147.871 103.965 151.612 103.965 154.63 105.737L186.081 124.207C189.034 125.941 190.847 129.109 190.848 132.533V167.733C190.848 171.171 189.02 174.349 186.05 176.078L154.782 194.28C151.774 196.031 148.056 196.028 145.051 194.271L113.936 176.081C110.974 174.349 109.152 171.176 109.152 167.745V132.224C109.153 128.799 110.967 125.631 113.92 123.897L144.853 105.737ZM120.164 166.377L147.005 181.645V152.752C147.005 151.46 146.308 150.268 145.183 149.634L120.164 135.54V166.377ZM133.644 136.694C133.644 137.86 134.274 138.934 135.291 139.504L148.976 147.166C151.349 148.495 152.82 151.003 152.82 153.724V169.433C152.82 170.57 153.42 171.623 154.397 172.203L163.079 177.351V144.977C163.079 143.825 162.463 142.76 161.465 142.185L133.644 126.176V136.694ZM149.986 129.716C149.986 130.881 150.617 131.956 151.634 132.525L165.318 140.187C167.692 141.516 169.163 144.025 169.163 146.745V162.454C169.163 163.591 169.762 164.644 170.74 165.225L179.422 170.373V137.999C179.422 136.847 178.806 135.782 177.808 135.207L149.986 119.197V129.716Z" fill="white"/>
</svg>
