<svg width="117" height="38" viewBox="0 0 117 38" fill="none" xmlns="http://www.w3.org/2000/svg">
<path d="M26.8506 15.0068L13.6221 30.8496L8.93457 36.0186L0 16.7393L9.01074 16.3662L11.6973 21.5195L9.16406 27.2783L18.373 16.293L25.9863 7.75098L20.8779 6.51562L39.7676 0L26.8506 15.0068Z" fill="url(#paint0_linear_4011_243)"/>
<path d="M41.9801 8.44825L24.3028 29.1283L29.4816 30.1143L10.4004 37.3862L24.6571 20.4587L41.0741 1.37109L41.9801 8.44825Z" fill="#050A31"/>
<path d="M38.1744 19.1578C39.8045 18.9638 41.6622 19.4336 42.9994 20.3779C43.8581 20.9843 43.8562 20.9821 47.1999 25.0254C50.8526 29.4422 50.8581 29.4486 51.2821 29.7435C52.2176 30.394 53.3686 30.5726 54.4422 30.2337C55.2948 29.9646 55.9875 29.3727 56.4319 28.6219L59.9943 29.6517C59.0496 31.9469 57.1308 33.5999 54.722 34.1057C53.0183 34.4634 51.1559 34.1151 49.6349 33.1544C48.9018 32.6913 48.3485 32.1848 47.6369 31.3248C42.343 24.9281 41.4375 23.8557 41.147 23.638C40.4565 23.1207 39.8215 22.9115 38.9346 22.9092C37.9098 22.9066 37.0894 23.2612 36.3694 24.0179C34.9818 25.4764 34.981 27.8196 36.3678 29.2753C36.8208 29.7509 37.2041 29.9989 37.8068 30.2065C38.902 30.5839 40.0925 30.4073 41.0492 29.7254C41.3393 29.5186 41.6639 29.179 42.2739 28.4447C42.7304 27.8951 43.127 27.4374 43.1549 27.4277C43.2128 27.4095 45.5032 30.1581 45.5041 30.2469C45.5041 30.3456 44.5118 31.5326 43.975 32.0759C43.1848 32.8756 42.4181 33.3681 41.3695 33.7499C37.8884 35.0175 34.1256 33.393 32.5026 29.922C32.0067 28.8614 31.7734 27.814 31.7734 26.6478C31.7734 25.4792 32.0071 24.4317 32.5039 23.3736C32.8952 22.5401 33.252 22.0074 33.8326 21.389C35.0177 20.127 36.5207 19.3544 38.1744 19.1578ZM65.4664 19.1147H68.9388V22.5039H65.4664V27.4339C65.4664 28.5431 65.7583 29.3853 66.3421 29.9605C66.946 30.5356 67.8116 30.8232 68.9388 30.8232V34.2126C67.9122 34.2126 66.9762 34.0483 66.1307 33.7196C65.3055 33.391 64.5908 32.939 63.9869 32.3639C63.4031 31.7682 62.9503 31.0491 62.6282 30.2069C62.3062 29.3647 62.1451 28.4404 62.1451 27.4339V22.5039H60.3334V19.1147H62.1451V15.1089H65.4664V19.1147ZM81.1639 27.4956C81.1639 28.5431 81.486 29.3854 82.1301 30.0222C82.7743 30.6589 83.6097 30.9773 84.6363 30.9773C85.6629 30.9773 86.4882 30.6589 87.1122 30.0222C87.7563 29.3854 88.0784 28.5431 88.0784 27.4956V19.1147H91.3999V27.3722C91.3999 28.4198 91.2388 29.3647 90.9168 30.2069C90.5947 31.0491 90.1418 31.7682 89.5581 32.3639C88.9744 32.9596 88.2596 33.4216 87.4142 33.7503C86.5889 34.0584 85.6629 34.2126 84.6363 34.2126C83.6097 34.2126 82.6737 34.0584 81.8283 33.7503C81.003 33.4216 80.2883 32.9596 79.6844 32.3639C79.1006 31.7682 78.6478 31.0491 78.3257 30.2069C78.0037 29.3647 77.8426 28.4198 77.8426 27.3722V19.1147H81.1639V27.4956ZM76.9391 22.1958C75.8723 22.1958 75.0267 22.4937 74.4027 23.0894C73.7787 23.6851 73.4667 24.4964 73.4667 25.5235V33.9043H70.1454V25.6468C70.1454 24.5992 70.3065 23.6543 70.6285 22.8121C70.9506 21.97 71.4035 21.2508 71.9872 20.6551C72.5911 20.0595 73.3056 19.6075 74.1309 19.2994C74.9763 18.9707 75.9125 18.8064 76.9391 18.8064V22.1958ZM110.236 18.8064C111.222 18.8064 112.128 18.9811 112.953 19.3302C113.779 19.6589 114.493 20.1314 115.097 20.7477C115.701 21.3434 116.164 22.0623 116.486 22.9045C116.828 23.7467 116.999 24.6609 116.999 25.6468V33.9043H113.678V25.6468C113.678 24.5993 113.366 23.7673 112.742 23.1511C112.118 22.5143 111.283 22.1958 110.236 22.1958C109.189 22.1958 108.344 22.5143 107.7 23.1511C107.076 23.7673 106.764 24.5993 106.764 25.6468V33.9043H103.442V25.6468C103.442 24.5993 103.13 23.7673 102.506 23.1511C101.882 22.5143 101.047 22.1958 100 22.1958C98.9533 22.1958 98.1078 22.5143 97.4637 23.1511C96.8397 23.7673 96.5276 24.5993 96.5276 25.6468V33.9043H93.2063V25.6468C93.2063 24.6609 93.3773 23.7467 93.7195 22.9045C94.0617 22.0623 94.5348 21.3434 95.1386 20.7477C95.7425 20.1314 96.4572 19.6589 97.2825 19.3302C98.1078 18.981 99.0137 18.8064 100 18.8064C101.067 18.8064 102.033 19.0017 102.899 19.3919C103.764 19.7822 104.499 20.3265 105.103 21.0249C105.727 20.3265 106.472 19.7822 107.337 19.3919C108.203 19.0017 109.169 18.8064 110.236 18.8064ZM52.0341 19.2353C52.7924 19.0893 54.0205 19.1033 54.7657 19.2667C57.1852 19.7974 59.0827 21.4512 60.0145 23.7622L56.4976 24.7793C55.4834 22.9305 53.1129 22.2788 51.2719 23.5592C50.9728 23.7673 50.6712 24.0814 50.0253 24.8573C49.5569 25.4199 49.1561 25.8803 49.1344 25.8808C49.095 25.8808 46.8143 23.1421 46.7874 23.0624C46.7736 23.0197 47.4804 22.1325 47.926 21.6333C49.095 20.3237 50.4307 19.5442 52.0341 19.2353Z" fill="url(#paint1_linear_4011_243)"/>
<defs>
<linearGradient id="paint0_linear_4011_243" x1="-3.18691" y1="-6.34607e-07" x2="53.1308" y2="-1.57226" gradientUnits="userSpaceOnUse">
<stop stop-color="#47E1E2"/>
<stop offset="0.216667" stop-color="#2090F7"/>
<stop offset="0.463095" stop-color="#0332D9"/>
<stop offset="0.764286" stop-color="#050D3B"/>
<stop offset="1" stop-color="#04082D"/>
</linearGradient>
<linearGradient id="paint1_linear_4011_243" x1="150.735" y1="26.3529" x2="36.4928" y2="8.04792" gradientUnits="userSpaceOnUse">
<stop stop-color="#47E1E2"/>
<stop offset="0.216667" stop-color="#2090F7"/>
<stop offset="0.463095" stop-color="#0332D9"/>
<stop offset="0.764286" stop-color="#050D3B"/>
<stop offset="1" stop-color="#04082D"/>
</linearGradient>
</defs>
</svg>
