<svg width="78" height="78" viewBox="0 0 78 78" fill="none" xmlns="http://www.w3.org/2000/svg">
<rect width="78" height="78" rx="17" fill="#66BE6A"/>
<path d="M47.7143 54.5313L50.8 57.606C51.6571 58.4746 52.8571 57.7797 52.8571 56.7548V49.3199L57.6571 43.4136C57.8482 43.1555 57.9645 42.8487 57.9931 42.5274C58.0217 42.2061 57.9614 41.883 57.819 41.5945C57.6766 41.3059 57.4578 41.0633 57.187 40.8937C56.9162 40.724 56.6041 40.6342 56.2857 40.6342H44.2857C42.9143 40.6342 42.0571 42.3713 42.9143 43.4136L47.7143 49.3199V54.5313ZM44.2857 52.7942H22V47.5828C22 42.8925 31.0857 40.6342 35.7143 40.6342C36.7429 40.6342 37.9429 40.8079 39.3143 40.9816C38.9714 42.0239 39.1429 43.2399 39.4857 44.2822C38.2857 44.1085 36.9143 43.9348 35.7143 43.9348C30.5714 43.9348 25.2571 46.5405 25.2571 47.5828V49.4936H43.4286L44.2857 50.5359V52.7942ZM35.7143 25C31.9429 25 28.8571 28.1268 28.8571 31.9485C28.8571 35.7702 31.9429 38.8971 35.7143 38.8971C39.4857 38.8971 42.5714 35.7702 42.5714 31.9485C42.5714 28.1268 39.4857 25 35.7143 25ZM35.7143 35.4228C33.8286 35.4228 32.2857 33.8594 32.2857 31.9485C32.2857 30.0377 33.8286 28.4743 35.7143 28.4743C37.6 28.4743 39.1429 30.0377 39.1429 31.9485C39.1429 33.8594 37.6 35.4228 35.7143 35.4228Z" fill="white"/>
</svg>
