<svg width="78" height="78" viewBox="0 0 78 78" fill="none" xmlns="http://www.w3.org/2000/svg">
<rect width="78" height="78" rx="17" fill="#173619"/>
<path d="M55.5329 30.0333C55.3638 29.6261 55.0402 29.3025 54.6329 29.1333C54.4325 29.0479 54.2174 29.0026 53.9996 29H45.6662C45.2242 29 44.8003 29.1756 44.4877 29.4882C44.1752 29.8007 43.9996 30.2246 43.9996 30.6667C43.9996 31.1087 44.1752 31.5326 44.4877 31.8452C44.8003 32.1577 45.2242 32.3333 45.6662 32.3333H49.9829L40.6662 41.65L35.1829 36.15C35.028 35.9938 34.8436 35.8698 34.6405 35.7852C34.4374 35.7006 34.2196 35.657 33.9996 35.657C33.7796 35.657 33.5617 35.7006 33.3586 35.7852C33.1555 35.8698 32.9712 35.9938 32.8162 36.15L22.8162 46.15C22.66 46.3049 22.536 46.4893 22.4514 46.6924C22.3668 46.8955 22.3232 47.1133 22.3232 47.3333C22.3232 47.5534 22.3668 47.7712 22.4514 47.9743C22.536 48.1774 22.66 48.3617 22.8162 48.5167C22.9712 48.6729 23.1555 48.7969 23.3586 48.8815C23.5617 48.9661 23.7796 49.0097 23.9996 49.0097C24.2196 49.0097 24.4374 48.9661 24.6405 48.8815C24.8436 48.7969 25.028 48.6729 25.1829 48.5167L33.9996 39.6833L39.4829 45.1833C39.6378 45.3395 39.8222 45.4635 40.0253 45.5482C40.2284 45.6328 40.4462 45.6763 40.6662 45.6763C40.8863 45.6763 41.1041 45.6328 41.3072 45.5482C41.5103 45.4635 41.6946 45.3395 41.8496 45.1833L52.3329 34.6833V39C52.3329 39.442 52.5085 39.866 52.8211 40.1785C53.1336 40.4911 53.5575 40.6667 53.9996 40.6667C54.4416 40.6667 54.8655 40.4911 55.1781 40.1785C55.4906 39.866 55.6662 39.442 55.6662 39V30.6667C55.6636 30.4489 55.6183 30.2337 55.5329 30.0333Z" fill="white"/>
</svg>
