<svg width="55" height="55" viewBox="0 0 55 55" fill="none" xmlns="http://www.w3.org/2000/svg">
<rect width="55" height="55" rx="27.5" fill="#C7D4FF"/>
<path d="M23.6 37.213C22.3833 36.6877 21.325 35.975 20.425 35.075C19.525 34.175 18.8127 33.1167 18.288 31.9C17.7633 30.6833 17.5007 29.3833 17.5 28C17.4993 26.6167 17.762 25.3167 18.288 24.1C18.814 22.8833 19.5263 21.825 20.425 20.925C21.3237 20.025 22.382 19.3127 23.6 18.788C24.818 18.2633 26.118 18.0007 27.5 18H28.5V26.275C28.8 26.4583 29.0417 26.696 29.225 26.988C29.4083 27.28 29.5 27.6173 29.5 28C29.5 28.55 29.3043 29.021 28.913 29.413C28.5217 29.805 28.0507 30.0007 27.5 30C26.9493 29.9993 26.4787 29.8037 26.088 29.413C25.6973 29.0223 25.5013 28.5513 25.5 28C25.5 27.6167 25.5917 27.275 25.775 26.975C25.9583 26.675 26.2 26.4417 26.5 26.275V24.125C25.6333 24.3583 24.9167 24.8293 24.35 25.538C23.7833 26.2467 23.5 27.0673 23.5 28C23.5 29.1 23.8917 30.0417 24.675 30.825C25.4583 31.6083 26.4 32 27.5 32C28.6 32 29.5417 31.6083 30.325 30.825C31.1083 30.0417 31.5 29.1 31.5 28C31.5 27.4 31.379 26.846 31.137 26.338C30.895 25.83 30.566 25.384 30.15 25L31.575 23.575C32.1583 24.125 32.625 24.7793 32.975 25.538C33.325 26.2967 33.5 27.1173 33.5 28C33.5 29.6667 32.9167 31.0833 31.75 32.25C30.5833 33.4167 29.1667 34 27.5 34C25.8333 34 24.4167 33.4167 23.25 32.25C22.0833 31.0833 21.5 29.6667 21.5 28C21.5 26.5 21.975 25.196 22.925 24.088C23.875 22.98 25.0667 22.309 26.5 22.075V20.05C24.5167 20.3 22.854 21.175 21.512 22.675C20.17 24.175 19.4993 25.95 19.5 28C19.5 30.2333 20.275 32.125 21.825 33.675C23.375 35.225 25.2667 36 27.5 36C29.7333 36 31.625 35.225 33.175 33.675C34.725 32.125 35.5 30.2333 35.5 28C35.5 26.85 35.275 25.775 34.825 24.775C34.375 23.775 33.7583 22.9083 32.975 22.175L34.4 20.75C35.35 21.6667 36.1043 22.746 36.663 23.988C37.2217 25.23 37.5007 26.5673 37.5 28C37.5 29.3833 37.2373 30.6833 36.712 31.9C36.1867 33.1167 35.4743 34.175 34.575 35.075C33.6757 35.975 32.6173 36.6877 31.4 37.213C30.1827 37.7383 28.8827 38.0007 27.5 38C26.1173 37.9993 24.8173 37.7377 23.6 37.213Z" fill="#182180"/>
</svg>
