<svg width="300" height="300" viewBox="0 0 300 300" fill="none" xmlns="http://www.w3.org/2000/svg">
<rect x="0.5" y="0.5" width="299" height="299" rx="149.5" fill="white"/>
<rect x="0.5" y="0.5" width="299" height="299" rx="149.5" stroke="#C7D4FF"/>
<rect x="70" y="70" width="160" height="160" rx="37.6229" fill="#3F9643"/>
<path fill-rule="evenodd" clip-rule="evenodd" d="M110.016 106.409C109.727 106.571 109.737 106.859 110.116 109.186C111.686 118.819 114.967 126.004 120.194 131.249C125.074 136.146 131.264 138.705 137.566 138.432C139.414 138.352 140.566 138.174 142.624 137.652C143.348 137.468 144.021 137.348 144.119 137.385C144.477 137.523 145.786 140.701 146.63 143.48C147.55 146.51 148.066 150.97 147.914 154.585C147.827 156.634 147.644 158.107 147.201 160.317C146.703 162.804 146.778 162.695 145.34 163C143.725 163.343 141.092 164.304 139.848 165.006C137.166 166.517 134.314 169.042 132.765 171.277L132.482 171.686L130.471 171.607C128.237 171.519 127.089 171.646 125.618 172.147C124.65 172.476 123.354 173.146 122.54 173.738C120.913 174.922 119.3 176.998 118.389 179.08C118.107 179.725 117.859 180.272 117.839 180.297C117.818 180.321 117.327 180.394 116.747 180.458C115.201 180.629 113.966 181 112.396 181.766C110.12 182.877 108.513 184.421 107.508 186.465C106.822 187.859 106.585 188.879 106.654 190.138C106.741 191.726 107.379 192.69 108.783 193.36L109.48 193.692L146.061 193.726C166.181 193.745 184.554 193.713 186.89 193.656L191.138 193.553L191.66 193.219C192.851 192.459 193.357 191.423 193.357 189.744C193.357 185.42 188.913 181.186 183.657 180.501C182.165 180.307 182.166 180.308 181.583 179.027C179.646 174.776 176.284 172.146 172.183 171.676C171.501 171.598 170.249 171.571 169.301 171.614L167.626 171.691L166.899 170.773C164.84 168.173 162.361 166.151 159.437 164.686C158.335 164.134 157.16 163.711 154.747 163.001C154.119 162.816 153.539 162.61 153.457 162.543C153.281 162.4 152.918 160.868 152.514 158.569C152.255 157.101 152.223 156.499 152.217 153.054C152.211 149.372 152.228 149.091 152.563 147.205C152.944 145.057 153.541 142.817 154.266 140.818C154.882 139.117 155.644 137.47 155.851 137.391C155.944 137.355 156.475 137.443 157.032 137.585C164.165 139.41 170.223 138.359 176.303 134.242C177.704 133.293 181.446 129.621 182.559 128.102C185.478 124.121 187.753 118.985 189.112 113.312C189.532 111.559 190.187 107.69 190.187 106.965V106.414L189.212 106.322C187.629 106.174 180.3 106.35 178.648 106.576C168.662 107.943 161.438 111.185 156.76 116.397C153.592 119.926 151.939 123.799 151.693 128.265C151.589 130.143 151.877 133.654 152.134 133.654C152.179 133.654 152.649 133.012 153.18 132.227C154.792 129.84 156.303 127.992 158.297 125.968C161.049 123.175 163.424 121.278 166.412 119.485C167.755 118.68 171.289 116.869 171.367 116.947C171.392 116.972 170.488 117.682 169.357 118.525C163.96 122.543 159.654 126.765 156.221 131.401C154.26 134.051 151.271 139.313 150.408 141.637C150.121 142.409 149.931 142.56 149.796 142.124C149.614 141.536 147.734 137.735 146.954 136.38C144.609 132.306 141.961 128.795 138.787 125.555C136.235 122.949 134.293 121.282 130.36 118.323C129.501 117.676 128.825 117.12 128.859 117.086C128.893 117.052 129.967 117.558 131.246 118.211C135.008 120.131 137.721 122.076 140.806 125.063C143.493 127.664 145.404 129.978 147.007 132.571C147.885 133.992 147.866 134.003 148.159 131.942C149.267 124.149 145.512 116.69 138.174 112.107C133.902 109.44 128.719 107.66 122.436 106.705C120.123 106.354 110.524 106.125 110.016 106.409Z" fill="white"/>
</svg>
