<svg width="55" height="55" viewBox="0 0 55 55" fill="none" xmlns="http://www.w3.org/2000/svg">
<rect width="55" height="55" rx="27.5" fill="#C7D4FF"/>
<path d="M18.0211 20.7434L25.2678 29.1842C25.3762 29.3087 25.4364 29.4678 25.4375 29.6328V34.7598C25.4368 34.8317 25.4588 34.9019 25.5004 34.9605C25.542 35.019 25.6011 35.063 25.6691 35.086L29.1131 36.232C29.1646 36.2492 29.2194 36.2539 29.273 36.2457C29.3267 36.2374 29.3776 36.2165 29.4216 36.1847C29.4655 36.1528 29.5012 36.111 29.5258 36.0625C29.5503 36.0141 29.5629 35.9605 29.5625 35.9063V29.6328C29.5643 29.4675 29.6253 29.3084 29.7344 29.1842L36.9789 20.7434C37.0539 20.6562 37.1022 20.5493 37.1182 20.4354C37.1342 20.3215 37.1173 20.2054 37.0694 20.1009C37.0214 19.9963 36.9445 19.9077 36.8478 19.8455C36.751 19.7833 36.6385 19.7502 36.5235 19.75H18.4787C18.3636 19.7498 18.2507 19.7826 18.1536 19.8446C18.0566 19.9067 17.9794 19.9953 17.9312 20.0999C17.883 20.2045 17.8658 20.3208 17.8818 20.4349C17.8977 20.5489 17.9461 20.656 18.0211 20.7434Z" stroke="#182180" stroke-linecap="round" stroke-linejoin="round"/>
</svg>
