<svg width="78" height="78" viewBox="0 0 78 78" fill="none" xmlns="http://www.w3.org/2000/svg">
<rect width="78" height="78" rx="17" fill="#357F39"/>
<g clip-path="url(#clip0_4605_5654)">
<path d="M54.1504 45.1357V51.8643H51.707V49.3057L47.3633 53.6494C47.1342 53.8783 46.8238 54.0068 46.5 54.0068C46.1762 54.0068 45.8658 53.8783 45.6367 53.6494L43.2861 51.2979L38.4785 56.1064L38.3721 56.2119L38.2656 56.1064L36.751 54.5908L36.6445 54.4854L36.751 54.3789L42.4229 48.708C42.6515 48.4793 42.9618 48.3501 43.2852 48.3496H43.2881C43.6116 48.35 43.9217 48.4792 44.1504 48.708L46.5 51.0576L49.9805 47.5781H47.4219V45.1357H54.1504ZM37.9287 42.9932C40.1023 42.9932 42.1797 43.9215 43.6299 45.542L43.7305 45.6543L43.6182 45.7539L42.0215 47.1836L41.9102 47.2832L41.8096 47.1719C41.3212 46.6258 40.7234 46.1888 40.0547 45.8896C39.3859 45.5905 38.6614 45.4356 37.9287 45.4355H31.5C28.629 45.4355 26.2931 47.7716 26.293 50.6426V56.1504H23.8496V50.6426C23.8498 46.4241 27.2815 42.9932 31.5 42.9932H37.9287ZM34.7139 25.8496C36.7428 25.8496 38.6894 26.6562 40.124 28.0908C41.5585 29.5254 42.3643 31.4712 42.3643 33.5C42.3643 35.5288 41.5585 37.4746 40.124 38.9092C38.6894 40.3438 36.7428 41.1504 34.7139 41.1504C32.6851 41.1503 30.7392 40.3437 29.3047 38.9092C27.8702 37.4745 27.0645 35.5288 27.0645 33.5C27.0645 31.4712 27.8702 29.5255 29.3047 28.0908C30.7392 26.6563 32.6851 25.8497 34.7139 25.8496ZM50.9355 25.8496V27.9932H54.1504V30.4355H47.7217V32.2783H51.8574C53.1219 32.2785 54.1503 33.3079 54.1504 34.5713V36.7139C54.1504 37.9784 53.1219 39.0067 51.8574 39.0068H50.9355V41.1504H48.4932V39.0068H45.2783V36.5645H51.707V34.7217H47.5713C46.3068 34.7216 45.2784 33.6932 45.2783 32.4287V30.2861C45.2783 29.0227 46.3067 27.9932 47.5713 27.9932H48.4932V25.8496H50.9355ZM34.7139 28.293C33.333 28.2931 32.0087 28.8419 31.0322 29.8184C30.0558 30.7949 29.5068 32.1191 29.5068 33.5C29.5068 34.8809 30.0558 36.2051 31.0322 37.1816C32.0087 38.1581 33.333 38.7069 34.7139 38.707C36.0949 38.707 37.42 38.1582 38.3965 37.1816C39.3728 36.2051 39.9219 34.8809 39.9219 33.5C39.9219 32.1191 39.3728 30.7949 38.3965 29.8184C37.42 28.8418 36.0949 28.293 34.7139 28.293Z" fill="white" stroke="white" stroke-width="0.3"/>
</g>
<defs>
<clipPath id="clip0_4605_5654">
<rect width="30" height="30" fill="white" transform="translate(24 24)"/>
</clipPath>
</defs>
</svg>
