<svg width="55" height="55" viewBox="0 0 55 55" fill="none" xmlns="http://www.w3.org/2000/svg">
<rect width="55" height="55" rx="27.5" fill="#C7D4FF"/>
<path d="M23.21 38.1343C21.8717 37.5564 20.7075 36.7725 19.7175 35.7825C18.7275 34.7925 17.9439 33.6283 17.3668 32.29C16.7897 30.9517 16.5007 29.5217 16.5 28C16.4993 26.4783 16.7882 25.0483 17.3668 23.71C17.9454 22.3717 18.729 21.2075 19.7175 20.2175C20.706 19.2275 21.8702 18.4439 23.21 17.8668C24.5498 17.2897 25.9798 17.0007 27.5 17H28.6V26.1025C28.93 26.3042 29.1958 26.5656 29.3975 26.8868C29.5992 27.208 29.7 27.5791 29.7 28C29.7 28.605 29.4848 29.1231 29.0543 29.5543C28.6238 29.9855 28.1057 30.2007 27.5 30.2C26.8943 30.1993 26.3765 29.984 25.9468 29.5543C25.5171 29.1246 25.3015 28.6065 25.3 28C25.3 27.5783 25.4008 27.2025 25.6025 26.8725C25.8042 26.5425 26.07 26.2858 26.4 26.1025V23.7375C25.4467 23.9942 24.6583 24.5123 24.035 25.2918C23.4117 26.0713 23.1 26.9741 23.1 28C23.1 29.21 23.5308 30.2458 24.3925 31.1075C25.2542 31.9692 26.29 32.4 27.5 32.4C28.71 32.4 29.7458 31.9692 30.6075 31.1075C31.4692 30.2458 31.9 29.21 31.9 28C31.9 27.34 31.7669 26.7306 31.5007 26.1718C31.2345 25.613 30.8726 25.1224 30.415 24.7L31.9825 23.1325C32.6242 23.7375 33.1375 24.4573 33.5225 25.2918C33.9075 26.1263 34.1 27.0291 34.1 28C34.1 29.8333 33.4583 31.3917 32.175 32.675C30.8917 33.9583 29.3333 34.6 27.5 34.6C25.6667 34.6 24.1083 33.9583 22.825 32.675C21.5417 31.3917 20.9 29.8333 20.9 28C20.9 26.35 21.4225 24.9156 22.4675 23.6968C23.5125 22.478 24.8233 21.7399 26.4 21.4825V19.255C24.2183 19.53 22.3894 20.4925 20.9132 22.1425C19.437 23.7925 18.6993 25.745 18.7 28C18.7 30.4567 19.5525 32.5375 21.2575 34.2425C22.9625 35.9475 25.0433 36.8 27.5 36.8C29.9567 36.8 32.0375 35.9475 33.7425 34.2425C35.4475 32.5375 36.3 30.4567 36.3 28C36.3 26.735 36.0525 25.5525 35.5575 24.4525C35.0625 23.3525 34.3842 22.3992 33.5225 21.5925L35.09 20.025C36.135 21.0333 36.9648 22.2206 37.5793 23.5868C38.1938 24.953 38.5007 26.4241 38.5 28C38.5 29.5217 38.2111 30.9517 37.6332 32.29C37.0553 33.6283 36.2718 34.7925 35.2825 35.7825C34.2932 36.7725 33.1291 37.5564 31.79 38.1343C30.4509 38.7122 29.0209 39.0007 27.5 39C25.9791 38.9993 24.5491 38.7114 23.21 38.1343Z" fill="#182180"/>
</svg>
