<svg width="55" height="55" viewBox="0 0 55 55" fill="none" xmlns="http://www.w3.org/2000/svg">
<rect width="55" height="55" rx="27.5" fill="#C7D4FF"/>
<path d="M34.5 25C33.2 25 32.1 25.84 31.68 27H28.5V18H26.5V21H23.32C23.115 20.4156 22.7335 19.9094 22.2284 19.5511C21.7232 19.1928 21.1193 19.0003 20.5 19C18.85 19 17.5 20.35 17.5 22C17.5 23.65 18.85 25 20.5 25C21.8 25 22.9 24.16 23.32 23H26.5V33H23.32C23.115 32.4156 22.7335 31.9094 22.2284 31.5511C21.7232 31.1928 21.1193 31.0003 20.5 31C18.85 31 17.5 32.35 17.5 34C17.5 35.65 18.85 37 20.5 37C21.8 37 22.9 36.16 23.32 35H26.5V38H28.5V29H31.68C32.09 30.16 33.19 31 34.5 31C36.15 31 37.5 29.65 37.5 28C37.5 26.35 36.15 25 34.5 25ZM20.5 23C19.95 23 19.5 22.55 19.5 22C19.5 21.45 19.95 21 20.5 21C21.05 21 21.5 21.45 21.5 22C21.5 22.55 21.05 23 20.5 23ZM20.5 35C19.95 35 19.5 34.55 19.5 34C19.5 33.45 19.95 33 20.5 33C21.05 33 21.5 33.45 21.5 34C21.5 34.55 21.05 35 20.5 35ZM34.5 29C33.95 29 33.5 28.55 33.5 28C33.5 27.45 33.95 27 34.5 27C35.05 27 35.5 27.45 35.5 28C35.5 28.55 35.05 29 34.5 29Z" fill="#182180"/>
</svg>
