<svg width="78" height="78" viewBox="0 0 78 78" fill="none" xmlns="http://www.w3.org/2000/svg">
<rect width="78" height="78" rx="17" fill="#311B5F"/>
<path d="M23.1074 34.2513C24.344 34.2513 25.5299 34.7517 26.4043 35.6425C27.2787 36.5333 27.7699 37.7415 27.7699 39.0012C27.7699 40.261 27.2787 41.4692 26.4043 42.36C25.5299 43.2508 24.344 43.7512 23.1074 43.7512V46.9178C23.1074 47.7577 23.4349 48.5631 24.0178 49.157C24.6008 49.7509 25.3914 50.0845 26.2158 50.0845H51.0825C51.9069 50.0845 52.6975 49.7509 53.2804 49.157C53.8634 48.5631 54.1909 47.7577 54.1909 46.9178V43.7512C52.9543 43.7512 51.7683 43.2508 50.894 42.36C50.0196 41.4692 49.5283 40.261 49.5283 39.0012C49.5283 37.7415 50.0196 36.5333 50.894 35.6425C51.7683 34.7517 52.9543 34.2513 54.1909 34.2513V31.0846C54.1909 30.2448 53.8634 29.4393 53.2804 28.8455C52.6975 28.2516 51.9069 27.918 51.0825 27.918H26.2158C25.3914 27.918 24.6008 28.2516 24.0178 28.8455C23.4349 29.4393 23.1074 30.2448 23.1074 31.0846V34.2513Z" stroke="white" stroke-width="3.13736" stroke-linecap="round" stroke-linejoin="round"/>
<path d="M33.9863 39.0026L37.0947 42.1692L43.3114 35.8359" stroke="white" stroke-width="3.13736" stroke-linecap="round" stroke-linejoin="round"/>
</svg>
