<svg width="78" height="78" viewBox="0 0 78 78" fill="none" xmlns="http://www.w3.org/2000/svg">
<rect width="78" height="78" rx="17" fill="#936EF2"/>
<path d="M23.7305 34.3333C24.967 34.3333 26.153 34.8337 27.0274 35.7245C27.9018 36.6153 28.393 37.8235 28.393 39.0833C28.393 40.343 27.9018 41.5512 27.0274 42.442C26.153 43.3328 24.967 43.8332 23.7305 43.8332V46.9999C23.7305 47.8397 24.058 48.6452 24.6409 49.239C25.2238 49.8329 26.0144 50.1665 26.8388 50.1665H51.7056C52.5299 50.1665 53.3206 49.8329 53.9035 49.239C54.4864 48.6452 54.8139 47.8397 54.8139 46.9999V43.8332C53.5773 43.8332 52.3914 43.3328 51.517 42.442C50.6426 41.5512 50.1514 40.343 50.1514 39.0833C50.1514 37.8235 50.6426 36.6153 51.517 35.7245C52.3914 34.8337 53.5773 34.3333 54.8139 34.3333V31.1666C54.8139 30.3268 54.4864 29.5214 53.9035 28.9275C53.3206 28.3336 52.5299 28 51.7056 28H26.8388C26.0144 28 25.2238 28.3336 24.6409 28.9275C24.058 29.5214 23.7305 30.3268 23.7305 31.1666V34.3333Z" stroke="white" stroke-width="3.13736" stroke-linecap="round" stroke-linejoin="round"/>
</svg>
