<svg width="78" height="78" viewBox="0 0 78 78" fill="none" xmlns="http://www.w3.org/2000/svg">
<rect width="78" height="78" rx="17" fill="#653EC9"/>
<path d="M27.916 41.7159C29.3959 40.2654 31.3854 39.4529 33.4576 39.4529C35.5298 39.4529 37.5194 40.2654 38.9992 41.7159C40.479 43.1665 42.4686 43.979 44.5408 43.979C46.613 43.979 48.6026 43.1665 50.0824 41.7159V27.4661C48.6026 28.9167 46.613 29.7291 44.5408 29.7291C42.4686 29.7291 40.479 28.9167 38.9992 27.4661C37.5194 26.0156 35.5298 25.2031 33.4576 25.2031C31.3854 25.2031 29.3959 26.0156 27.916 27.4661V41.7159ZM27.916 41.7159V52.7991" stroke="white" stroke-width="3.16663" stroke-linecap="round" stroke-linejoin="round"/>
</svg>
