<svg width="55" height="55" viewBox="0 0 55 55" fill="none" xmlns="http://www.w3.org/2000/svg">
<rect width="55" height="55" rx="27.5" fill="#C7D4FF"/>
<g clip-path="url(#clip0_4089_391)">
<path d="M34.9583 18.916H20.7917C18.8357 18.916 17.25 20.5017 17.25 22.4577V33.791C17.25 35.747 18.8357 37.3327 20.7917 37.3327H34.9583C36.9143 37.3327 38.5 35.747 38.5 33.791V22.4577C38.5 20.5017 36.9143 18.916 34.9583 18.916Z" stroke="#182180" stroke-width="1.62917"/>
<path opacity="0.3" d="M20.1895 23.3076C20.1895 22.8976 20.1901 22.6388 20.2061 22.4443C20.2213 22.2589 20.2458 22.2072 20.252 22.1953L20.2549 22.1904C20.3129 22.0771 20.4052 21.9847 20.5186 21.9268L20.5176 21.9258C20.5356 21.9166 20.593 21.893 20.7773 21.8779C20.929 21.8655 21.1186 21.8621 21.3877 21.8613V30.1494H20.1836V23.6514L20.1895 23.6455V23.3076Z" fill="black" stroke="#182180" stroke-width="1.62917"/>
<path d="M34.3506 21.8555C34.6258 21.8562 34.8186 21.8595 34.9717 21.8721C35.1568 21.8873 35.2086 21.9117 35.2207 21.918L35.2256 21.9209C35.339 21.9788 35.4313 22.0712 35.4893 22.1846C35.4985 22.2029 35.523 22.2598 35.5381 22.4434C35.554 22.6378 35.5547 22.8948 35.5547 23.3018V30.1377H34.3506V21.8555Z" fill="black" stroke="#182180" stroke-width="1.62917"/>
<path opacity="0.3" d="M35.5596 33.1895C35.5588 33.4615 35.5564 33.6526 35.5439 33.8047C35.5289 33.9888 35.5045 34.0412 35.498 34.0537L35.4951 34.0596C35.4374 34.1728 35.3447 34.2646 35.2314 34.3223C35.2134 34.3314 35.157 34.356 34.9727 34.3711C34.7782 34.387 34.5212 34.3877 34.1143 34.3877H21.6475C21.2372 34.3877 20.9787 34.387 20.7842 34.3711C20.5985 34.3559 20.5471 34.3314 20.5352 34.3252L20.5293 34.3223C20.4444 34.279 20.3719 34.216 20.3164 34.1396L20.2666 34.0596C20.2575 34.0418 20.2329 33.9857 20.2178 33.8008C20.2053 33.649 20.2029 33.459 20.2021 33.1895H35.5596Z" fill="black" stroke="#182180" stroke-width="1.62917"/>
</g>
<defs>
<clipPath id="clip0_4089_391">
<rect width="24" height="24" fill="white" transform="translate(15.5 16)"/>
</clipPath>
</defs>
</svg>
