<svg width="78" height="78" viewBox="0 0 78 78" fill="none" xmlns="http://www.w3.org/2000/svg">
<rect width="78" height="78" rx="17" fill="#442784"/>
<path d="M45.1534 52.8459V49.769C45.1534 48.1369 44.505 46.5717 43.351 45.4176C42.1969 44.2636 40.6317 43.6152 38.9996 43.6152H29.769C28.1369 43.6152 26.5717 44.2636 25.4176 45.4176C24.2636 46.5717 23.6152 48.1369 23.6152 49.769V52.8459" stroke="white" stroke-width="3.07686" stroke-linecap="round" stroke-linejoin="round"/>
<path d="M45.1543 25.3516C46.4739 25.6937 47.6426 26.4643 48.4768 27.5424C49.3111 28.6205 49.7638 29.9452 49.7638 31.3084C49.7638 32.6716 49.3111 33.9963 48.4768 35.0744C47.6426 36.1525 46.4739 36.9231 45.1543 37.2652" stroke="white" stroke-width="3.07686" stroke-linecap="round" stroke-linejoin="round"/>
<path d="M54.3848 52.847V49.7702C54.3838 48.4067 53.93 47.0822 53.0947 46.0045C52.2593 44.9269 51.0897 44.1573 49.7695 43.8164" stroke="white" stroke-width="3.07686" stroke-linecap="round" stroke-linejoin="round"/>
<path d="M34.3842 37.4618C37.7828 37.4618 40.538 34.7067 40.538 31.308C40.538 27.9094 37.7828 25.1543 34.3842 25.1543C30.9856 25.1543 28.2305 27.9094 28.2305 31.308C28.2305 34.7067 30.9856 37.4618 34.3842 37.4618Z" stroke="white" stroke-width="3.07686" stroke-linecap="round" stroke-linejoin="round"/>
</svg>
