<svg width="300" height="300" viewBox="0 0 300 300" fill="none" xmlns="http://www.w3.org/2000/svg">
<rect x="0.5" y="0.5" width="299" height="299" rx="149.5" fill="white"/>
<rect x="0.5" y="0.5" width="299" height="299" rx="149.5" stroke="#C7D4FF"/>
<rect x="70" y="70" width="160" height="160" rx="37.6229" fill="#754CD3"/>
<path fill-rule="evenodd" clip-rule="evenodd" d="M175.851 104.91C179.68 103.858 183.46 106.74 183.46 110.711V129.7C180.54 132.544 176.452 139.437 183.46 144.25V163.047C183.46 166.281 181.985 171.423 172.632 173.198L150.037 179.213L116.766 188.311L116.54 121.204L175.851 104.91ZM157.557 160.71C157.557 159.46 156.36 158.558 155.159 158.903L142.3 162.594C141.494 162.826 140.939 163.563 140.939 164.401C140.94 165.65 142.136 166.551 143.337 166.207L156.196 162.515C157.002 162.284 157.557 161.548 157.557 160.71ZM170.227 157.176C170.227 155.927 169.029 155.025 167.828 155.371L162.45 156.917C161.645 157.148 161.091 157.885 161.091 158.722C161.091 159.972 162.287 160.873 163.488 160.528L168.866 158.982C169.671 158.751 170.227 158.014 170.227 157.176ZM169.437 141.175C169.437 139.931 168.253 139.028 167.053 139.357L130.784 149.3C129.965 149.525 129.398 150.27 129.397 151.119C129.397 152.363 130.581 153.266 131.781 152.937L168.05 142.994C168.869 142.769 169.436 142.024 169.437 141.175ZM170.678 124.857C170.678 123.612 169.492 122.709 168.292 123.04L157.888 125.91C157.07 126.135 156.504 126.879 156.504 127.727C156.504 128.972 157.69 129.874 158.89 129.544L169.294 126.673C170.111 126.448 170.678 125.705 170.678 124.857Z" fill="white"/>
<path d="M150.037 189.666V179.215L116.766 188.313L142.368 195.118C148.443 196.261 150.012 191.96 150.037 189.666Z" fill="white" fill-opacity="0.43"/>
</svg>
