<svg width="55" height="55" viewBox="0 0 55 55" fill="none" xmlns="http://www.w3.org/2000/svg">
<rect width="55" height="55" rx="27.5" fill="#C7D4FF"/>
<path d="M24.1667 38C22.3148 38 20.7407 37.3519 19.4444 36.0556C18.1481 34.7593 17.5 33.1852 17.5 31.3333V24.6667C17.5 22.8148 18.1481 21.2407 19.4444 19.9444C20.7407 18.6481 22.3148 18 24.1667 18H30.8333C32.6852 18 34.2593 18.6481 35.5556 19.9444C36.8519 21.2407 37.5 22.8148 37.5 24.6667V31.3333C37.5 33.1852 36.8519 34.7593 35.5556 36.0556C34.2593 37.3519 32.6852 38 30.8333 38H24.1667ZM26.3889 32.4444L33.0556 25.7778L31.5 24.2222L26.3889 29.3333L23.9444 26.8889L22.3889 28.4444L26.3889 32.4444ZM24.1667 35.7778H30.8333C32.0556 35.7778 33.1019 35.3426 33.9722 34.4722C34.8426 33.6019 35.2778 32.5556 35.2778 31.3333V24.6667C35.2778 23.4444 34.8426 22.3981 33.9722 21.5278C33.1019 20.6574 32.0556 20.2222 30.8333 20.2222H24.1667C22.9444 20.2222 21.8981 20.6574 21.0278 21.5278C20.1574 22.3981 19.7222 23.4444 19.7222 24.6667V31.3333C19.7222 32.5556 20.1574 33.6019 21.0278 34.4722C21.8981 35.3426 22.9444 35.7778 24.1667 35.7778Z" fill="#182180"/>
</svg>
